<svg xmlns="http://www.w3.org/2000/svg" viewBox="0 0 411.06 418.43">
  <defs>
    <style>
      .cls-1 {
        fill: #fff;
      }

      .cls-2 {
        fill: #f9a83a;
      }

      .cls-3 {
        fill: #ffe05c;
      }

      .cls-4 {
        fill: #ff7550;
      }

      .cls-5 {
        isolation: isolate;
      }

      .cls-6 {
        fill: #414042;
      }

      .cls-7 {
        fill: none;
      }

      .cls-8 {
        fill: #f7a31f;
      }

      .cls-9 {
        fill: #262121;
      }
    </style>
  </defs>
  <title>Asset 8</title>
  <g id="Layer_2" data-name="Layer 2">
    <g id="elements">
      <g>
        <g>
          <path class="cls-1" d="M374.46,149.66a88.74,88.74,0,0,0-9.39,1,41.76,41.76,0,0,1-14.66,2.76A37.64,37.64,0,0,1,327,145.31l-5-.06a44.26,44.26,0,0,1-4.94-.41,51.3,51.3,0,0,1-16.76,2.5l-1.47,0a54.21,54.21,0,0,1-24.9-4.86A40,40,0,0,1,263,144.18l-23.12.35a38.69,38.69,0,0,1-27.24-10.81,39.75,39.75,0,0,1-8.89-1.06,46.48,46.48,0,0,1-14.69,11c-11.71,5.64-25,6-37.61,1a40.66,40.66,0,0,1-4.36-1.94l-14.15,2.07a6.5,6.5,0,0,1-.75.12c-1.32.13-2.54.22-3.73.25-1.57.91-3.1,1.66-4.51,2.35a50.55,50.55,0,0,1-22,4.6l-1.35,0c-.69,0-1.35,0-1.94,0a54,54,0,0,1-29.47-8.49,52.56,52.56,0,0,1-8,1.28,38.82,38.82,0,0,1-19.6,6.67c-.69,0-1.53.07-2.38.07a39.2,39.2,0,0,1-39-36.14v-.19a6.32,6.32,0,0,1-.06-.75,158.88,158.88,0,0,1,0-17.2c.22-3.47.31-9.45.31-10.27v-.34A39.93,39.93,0,0,1,3.83,71.9a65.7,65.7,0,0,1,.31-15l.19-1.59c.6-4.61,1.73-13.13,6.39-21.8A45.54,45.54,0,0,1,50.46,9.08a39,39,0,0,1,17.1-3.94c.56,0,1.16,0,1.72.06A39.23,39.23,0,0,1,99.63,21.92a38.94,38.94,0,0,1,19.92-9.11q22-3.15,38.05-.72a38.81,38.81,0,0,1,20.57-9.52l16-2.19A35.26,35.26,0,0,1,199.65,0a39.29,39.29,0,0,1,25.9,9.8c.35,0,.72,0,1.07,0l23.77-.44c9.92-.15,18.85-.72,20.79-.87.72-.07,1.44-.13,2.16-.13.53,0,1,0,1.44,0a39.14,39.14,0,0,1,24.68,8.83,38.91,38.91,0,0,1,23.36-7.7H331a39.3,39.3,0,0,1,20.38-6.3l20.11-.31h.34A39.37,39.37,0,0,1,411,41.18a39.77,39.77,0,0,1-9.43,26.09l.1,18a39,39,0,0,1-27.19,64.39Z"/>
          <path class="cls-2" d="M373.08,127.77a88.83,88.83,0,0,0-14.15,1.78l-.85.32a20.61,20.61,0,0,1-7.67,1.63,16,16,0,0,1-10.93-4.29,15.28,15.28,0,0,1-3-3.67l-14.19-.22a17.15,17.15,0,0,1-7-1.63c-.88.47-1.75.88-2.57,1.26A28.25,28.25,0,0,1,300,125.42l-2,0c-.37,0-.75,0-1.13,0-9.3,0-16.72-3.35-22-8.42l0,0a17.15,17.15,0,0,1-12.12,5.17l-23.14.34a17.24,17.24,0,0,1-16.82-13.9,17.15,17.15,0,0,1-20.11-.32,16.29,16.29,0,0,1-1.81-1.53,16.84,16.84,0,0,1-7,1.47h-.9c-2.73,7.61-6.92,12.47-13.41,15.6a23.24,23.24,0,0,1-10.11,2.32,26.58,26.58,0,0,1-10-2,20.84,20.84,0,0,1-7.46-4.92,15.57,15.57,0,0,1-4,1.1l-18.19,2.69a21.44,21.44,0,0,1-2.47.16,16.17,16.17,0,0,1-4.76-.69,30.13,30.13,0,0,1-8,5.14,28.71,28.71,0,0,1-12.75,2.47l-1.94,0c-.41,0-.78,0-1.13,0-11.24,0-19.69-4.88-25-11.8a32.74,32.74,0,0,1-16.94,4.79A32.3,32.3,0,0,1,53,123l-.81,1a17.18,17.18,0,0,1-11.84,5.76c-.28,0-.66,0-1.06,0a17.21,17.21,0,0,1-17.1-16l0-.34a139.3,139.3,0,0,1,0-14.82c.25-4.1.34-11,.34-11.3v0A17.43,17.43,0,0,1,26.81,76.1a40.54,40.54,0,0,1-.94-16.38l.13-1c.5-3.76,1.16-9.43,4-14.82A23.8,23.8,0,0,1,51.74,31l1.69,0a26.22,26.22,0,0,1,2.79.35,17,17,0,0,1,11.34-4.32l.18,0a17.22,17.22,0,0,1,17,17.25v.19c0,.06-.09,3-.25,7a25.71,25.71,0,0,1,10.43-2.09,30.13,30.13,0,0,1,4.85.4,17.26,17.26,0,0,1,9.87-5.54,17.79,17.79,0,0,1,1.81-3,17.17,17.17,0,0,1,11.34-6.76A145.05,145.05,0,0,1,142.4,33c10.18,0,18.26,1.48,24.4,4.42a17.18,17.18,0,0,1,14.37-13.12l16.16-2.19a13.71,13.71,0,0,1,2.32-.16,17.22,17.22,0,0,1,12.53,5.42A23.39,23.39,0,0,1,216,33.23l.78,1.84a17,17,0,0,1,10.05-3.38l24-.44c11.68-.19,22.08-.91,22.61-1l.25,0c.38,0,.75,0,1.13,0A17.29,17.29,0,0,1,287,35.39a16.67,16.67,0,0,1,4.7,9.39,11.09,11.09,0,0,1,1.41-.06,33.42,33.42,0,0,1,4.85.37,16.91,16.91,0,0,1,10.21-5.54,17.12,17.12,0,0,1,14.63-8.2H339a17.38,17.38,0,0,1,13-6.3l19.92-.31a17.16,17.16,0,0,1,7.76,32.5c.1,18.67.16,30.38.19,38.12a17.16,17.16,0,0,1-6.7,32.41Z"/>
          <polygon class="cls-2" points="200.89 52.93 196.27 75.55 209.2 73.41 200.89 52.93"/>
          <path class="cls-1" d="M52.14,74.84c-4.32-.67-6.62-3.57-5.48-12.51l.13-1.08c1-7.77,1.78-9.5,5.51-9.29a6.88,6.88,0,0,1,3.62,1.79c1.16,1.35,3.76,3.1,5.22,6.57a18.62,18.62,0,0,1,1.56,6l.23,2.19h0a3.78,3.78,0,0,0,7.42,0c.05-.25,1-23.8,1-24.19a3.8,3.8,0,0,0-3.75-3.79,3.76,3.76,0,0,0-3.77,3.75c0,.05,0,3.3-.08,6.58-3-3.23-6.77-6.13-11-6.38-11.39-.6-12.63,9.87-13.38,15.9l-.11,1.07C37.66,73.31,41.64,80.84,51,82.3c10.16,1.6,16.94,3.93,17,10.18a9.06,9.06,0,0,1-3.47,6.83,12,12,0,0,1-9.67,2.76,18.3,18.3,0,0,1-3-.76c-1.33-.74-4.69-2.78-6.38-5.14-1.44-2-1.94-5.1-2.09-7.08,0-.89,0-1.47,0-1.54a3.78,3.78,0,1,0-7.55-.11c0,.06-.09,7.44-.36,11.89a132.52,132.52,0,0,0,0,13.48,3.78,3.78,0,0,0,4,3.51,3.72,3.72,0,0,0,3.51-4s-.18-3-.16-7a29.24,29.24,0,0,0,10.72,4.21A19.27,19.27,0,0,0,69.39,105,16.58,16.58,0,0,0,75.53,92.4C75.39,78.47,59.68,76,52.14,74.84"/>
          <path class="cls-1" d="M156.87,63.9a9.5,9.5,0,0,1-2.29,2,17,17,0,0,1-3.41,1.31l-1.91.61a67,67,0,0,1-10,2.62l-.07-17.14c10-.28,18.68.84,20.35,3.71a1.86,1.86,0,0,1,.23.95c0,1.37-1,3.49-2.93,5.93m21.44,33.68a3.76,3.76,0,0,0-4.71,2.49c-1.38,4.47-2.48,4.64-3.24,5s-1.79.25-3.44-.38a6.12,6.12,0,0,1-1.29-1.88c-.61-1.25-1.29-6.5-1.37-9.5C164,82.24,162.05,76.16,159,72.8a19.11,19.11,0,0,0,3.81-3.38l.05-.12c4.62-6,5.72-11.14,3.26-15.35-6.16-10.49-33.24-7.39-41.37-6.19a3.77,3.77,0,0,0,1.09,7.47c1.93-.3,3.91-.52,5.9-.72l.06,17.56c-.62,0-1.25.06-1.85.06a3.75,3.75,0,0,0-3.77,3.76,3.79,3.79,0,0,0,3.77,3.79c.61,0,1.26,0,1.88-.07l.1,22-5.18.76a3.76,3.76,0,0,0-3.2,4.25,3.8,3.8,0,0,0,4.28,3.23L146,107.11a3.73,3.73,0,0,0,3.18-4.27,3.79,3.79,0,0,0-4.27-3.19l-5.45.81-.11-21.63a83.14,83.14,0,0,0,9.89-2.22,4.28,4.28,0,0,1,1.34,0,4.07,4.07,0,0,1,3.23,1.77c1.21,1.69,2.73,5.73,3,15.15.05,1.82.51,9.26,2.06,12.53.47,1,2.29,4.49,5.42,5.7,2.33.9,5.82,1.86,9.44.12,3.34-1.63,5.44-4,7.15-9.56a3.74,3.74,0,0,0-2.49-4.71"/>
          <path class="cls-1" d="M313.91,85.71a3.78,3.78,0,0,0-3.73,3.77l.13,1.36c0,.16-.1,3.14-.11,3.55a18.15,18.15,0,0,1-1.3,4.94,17.67,17.67,0,0,1-2.19,2.94,10.93,10.93,0,0,1-2.89,1.73c-1,.45-1.9.47-4.08.49l-2.31,0c-9.8.32-11-7.64-11.19-9.41l-.11-6.46.11-10.09c.47-6.48,2-10.84,4.3-12.25,1.77-1.1,4.61-.8,8.68.9,5,2.08,8.39,7.53,8.42,7.58a3.78,3.78,0,0,0,7-2V56.48a3.78,3.78,0,0,0-7.55,0v6.7a23.2,23.2,0,0,0-5-3c-2.35-1-9.59-4-15.49-.35-4.65,2.85-7.22,8.82-7.88,18.19l-.16,10.55.16,6.95c.39,5.9,4.86,16.92,18.95,16.48l2.11,0c2.55,0,4.75,0,7.25-1.22a15.71,15.71,0,0,0,5.31-3.56,23.44,23.44,0,0,0,3.13-4.19c1.45-2.54,2.12-6.91,2.23-7.78l.15-4.3-.14-1.57a3.73,3.73,0,0,0-3.8-3.7"/>
          <path class="cls-1" d="M375.73,110.39a3.8,3.8,0,0,0-4-3.52c-1.4.09-3.24.23-5.28.45,0-6.44-.07-19.41-.33-61.54l5.81-.1a3.78,3.78,0,0,0-.12-7.55l-19.62.33a3.78,3.78,0,0,0,.12,7.55l6.27-.1c0,8.24.1,17.12.16,26.11l-22.2,3.71.05-23.43h6.05a3.78,3.78,0,0,0,0-7.55H322.81a3.78,3.78,0,0,0,0,7.55H329L329,102.47l-6.35-.11a3.78,3.78,0,1,0-.1,7.55l20.35.35a3.78,3.78,0,0,0,.12-7.56l-6.48-.09,0-19.23,22.23-3.72c.08,14.2.14,23.69.14,28.73-5.15,1-8.57,1.39-10.67,3.73a3.73,3.73,0,0,0,.31,5.24c1.54,1.41,3.22.55,5.34-.23h0c2.16-1,9.34-2.15,18.33-2.74a3.78,3.78,0,0,0,3.54-4"/>
          <path class="cls-1" d="M196.27,75.54l4.62-22.61L209.2,73.4Zm33,6.09c-1.12.38-3.28,1.47-6.62,2.94l-4.85-11.95L203.57,38.35a10.46,10.46,0,0,0-1.17-1.84,3.79,3.79,0,0,0-3.24-1.16L183,37.57a3.78,3.78,0,0,0,1,7.49s6-.88,10.9-1.53c-1.4,6.88-7,35-8.7,43.49l-10.93-.53a3.79,3.79,0,0,0-3.95,3.59A3.75,3.75,0,0,0,174.9,94l18.76.89a3.76,3.76,0,0,0,3.94-3.59,3.54,3.54,0,0,0-3.81-3.95l.89-5.76,17.41-2.89,3.75,9.22c-2.87,1.62-4.65,2.67-6,4.45a3.77,3.77,0,0,0,6.06,4.5c1.68-2.27,8.8-5.64,15.84-8.15a3.78,3.78,0,0,0-2.56-7.11"/>
          <path class="cls-1" d="M274.51,43.64c-.11,0-11.15.81-23.5,1.06l-24,.38a3.86,3.86,0,0,0-2.84,1.34,3.69,3.69,0,0,0-.84,3L226.15,68a3.78,3.78,0,0,0,4.29,3.16,3.73,3.73,0,0,0,3.2-3.72c0-.17-1.5-9.67-2.27-14.84l15.95-.28.1,49.25-7.91.11a3.77,3.77,0,0,0-3.73,3.81,3.81,3.81,0,0,0,3.84,3.73l23-.35a3.77,3.77,0,0,0-.12-7.53l-7.5.1-.08-49.27c6.49-.18,12.05-.47,15.84-.69-.19,3.12-.28,5.48-.28,7.22,0,4,.43,4.78.75,5.37A3.59,3.59,0,0,0,276,65.38a3.9,3.9,0,0,0,2.06-3.76c0-.06.05-8.5.49-13.9a3.82,3.82,0,0,0-4-4.08"/>
          <path class="cls-1" d="M115.69,89.68A3.75,3.75,0,0,0,112,93.44l.08,2.13c0,.14-.07,3.11-.07,3.54a21.09,21.09,0,0,1-1.29,4.93,16.74,16.74,0,0,1-2.25,2.9,9.72,9.72,0,0,1-2.86,1.77c-.94.44-1.89.46-4.09.49l-2.28,0c-9.81.28-11.06-7.68-11.21-9.44l-.13-6.46L88,83.25c.48-6.47,2-10.83,4.29-12.24,1.78-1.1,4.64-.81,8.68.89,5,2.09,8.42,7.54,8.44,7.59a3.79,3.79,0,0,0,7-2V61.19a3.78,3.78,0,0,0-7.55,0v6.69a21.41,21.41,0,0,0-5-2.93c-2.39-1-9.62-4-15.54-.36-4.62,2.84-7.19,8.8-7.87,18.2l0,.21-.13,10.31v.13l.13,6.67,0,.17c.39,5.9,4.84,16.92,19,16.5l2.12,0c2.54,0,4.72,0,7.22-1.2a16.74,16.74,0,0,0,5.36-3.58,25.15,25.15,0,0,0,3.08-4.18c1.45-2.54,2.13-6.93,2.24-7.78l.15-4.46-.11-2.16a3.77,3.77,0,0,0-3.84-3.69"/>
        </g>
        <g>
          <g>
            <path class="cls-3" d="M384,241.49c-11.91-6.88-31.15-6.88-43,0-9.65,5.61-11.38,14.07-5.21,20.73l-92.16,53.55L208,295.19l27.35-15.79L223.89,233l30.54-17.74c11.51,3.55,26.12,2.52,35.77-3.09,11.83-6.87,11.76-18-.15-24.9s-31.15-6.87-43,0c-9.65,5.61-11.38,14.07-5.21,20.73l-36.75,21.36,11.44,46.42-21.12,12.18L139.9,255.88,34,317.41l175,101L314.87,356.9,256.2,323l92.16-53.56c11.52,3.55,26.12,2.53,35.77-3.09C396,259.51,395.9,248.36,384,241.49ZM258.54,193.87c5.54-3.22,14.55-3.22,20.13,0s5.61,8.44.06,11.66-14.54,3.22-20.13,0S253,197.09,258.54,193.87Zm114.13,65.9c-5.54,3.22-14.55,3.22-20.13,0s-5.6-8.43-.06-11.65,14.55-3.22,20.13,0S378.22,256.55,372.67,259.77Z"/>
            <path class="cls-3" d="M285.58,235.64c-11.51-3.56-26.11-2.53-35.77,3.08-11.83,6.88-11.77,18,.14,24.9s31.15,6.88,43,0c9.66-5.61,11.39-14.07,5.21-20.73l45.15-26.24c11.52,3.55,26.12,2.53,35.78-3.09,11.83-6.87,11.77-18-.14-24.89s-31.15-6.88-43,0c-9.66,5.61-11.39,14.07-5.22,20.73ZM281.47,257c-5.55,3.22-14.56,3.22-20.13,0s-5.61-8.44-.07-11.66,14.55-3.22,20.13,0S287,253.78,281.47,257Zm65.94-61.71c5.53-3.22,14.55-3.22,20.13,0s5.6,8.44.06,11.65-14.55,3.22-20.12,0S341.87,198.5,347.41,195.29Z"/>
          </g>
          <g>
            <polygon class="cls-1" points="34.36 166.09 34.02 317.41 208.99 418.43 209.34 267.11 34.36 166.09"/>
            <polygon class="cls-4" points="185.81 405.46 185.81 287.11 131.1 255.52 131.1 374.51 185.81 405.46"/>
          </g>
          <g>
            <g class="cls-5">
              <polygon class="cls-4" points="96.14 235.39 96.09 252.18 69.47 236.81 69.52 220.02 96.14 235.39"/>
            </g>
            <polygon class="cls-4" points="166.44 363.47 166.39 380.25 109.15 347.2 109.19 330.43 166.44 363.47"/>
            <polygon class="cls-4" points="139.9 318.99 139.86 335.77 82.61 302.72 82.66 285.94 139.9 318.99"/>
            <polygon class="cls-4" points="166.6 305.24 166.55 322.02 109.31 288.97 109.36 272.19 166.6 305.24"/>
            <polygon class="cls-4" points="166.69 276.12 166.64 292.91 109.39 259.86 109.44 243.07 166.69 276.12"/>
            <polygon class="cls-4" points="96.05 264.51 96.01 281.29 69.39 265.92 69.44 249.14 96.05 264.51"/>
            <polygon class="cls-4" points="69.36 278.26 69.31 295.04 42.69 279.68 42.74 262.89 69.36 278.26"/>
            <polygon class="cls-4" points="95.89 322.74 95.84 339.52 69.23 324.16 69.27 307.38 95.89 322.74"/>
          </g>
          <g>
            <path class="cls-6" d="M119.6,352.18a1,1,0,0,0,.1.19,23.81,23.81,0,0,1,2.66,3.26,16.06,16.06,0,0,0,1,1.29,7.29,7.29,0,0,0,.74.73,2.55,2.55,0,0,0,2.63.47,9.37,9.37,0,0,0,2.25-1.2c.75-.52,1.49-1.06,2.25-1.57a10.11,10.11,0,0,1,2.6-1.32,5.65,5.65,0,0,1,4.27.28,8.4,8.4,0,0,1,3.17,2.62,5.15,5.15,0,0,1,.64,5.26,9.09,9.09,0,0,1-1.81,2.73,22.49,22.49,0,0,1-5.1,3.95,37.72,37.72,0,0,1-6.15,2.94,8.65,8.65,0,0,1-5,.45,8.38,8.38,0,0,1-3.5-1.78c-.75-.65-1.44-1.38-2.16-2.07l-2.66-2.51a7,7,0,0,0-.58-.47,38.14,38.14,0,0,1-5.08,6.39c.09.11.16.22.25.32,4.52,4.89,9.38,9.44,14.3,13.93a.9.9,0,0,0,.78.21,38.71,38.71,0,0,1,6.09-.1,21.8,21.8,0,0,1,7.14,1.46,9.3,9.3,0,0,1,4.06,3,7.41,7.41,0,0,1,1.41,4.88,17.74,17.74,0,0,1-.29,2.05,2.77,2.77,0,0,1-1.45,1.94,7.44,7.44,0,0,1-2.6.81,35.75,35.75,0,0,1-7.31.17c-2.38-.13-4.76-.31-7.12-.56-2.57-.27-5.13-.63-7.69-1a1.28,1.28,0,0,1-.62-.32c-5.41-4.74-10.67-9.63-15.61-14.86-1.48-1.57-3.06-3-4.65-4.61A97.15,97.15,0,0,1,87.71,384a65.47,65.47,0,0,1-9.46,3.67l.33.57a15,15,0,0,1,1.78,4.26,6.92,6.92,0,0,1,.1,2.72,5.41,5.41,0,0,1-1.8,3.18,8.35,8.35,0,0,1-3.92,1.86,6.15,6.15,0,0,1-3.75-.53,12.74,12.74,0,0,1-3.72-2.52A29.51,29.51,0,0,1,59.47,385a11.12,11.12,0,0,1-.65-4.08,7.46,7.46,0,0,1,.24-1.62,4.29,4.29,0,0,1,2.18-2.81,7.27,7.27,0,0,1,6.74-.28,1.22,1.22,0,0,0,1,.06c.62-.22,1.26-.4,1.88-.69-.89-.18-1.79-.34-2.68-.55A25.32,25.32,0,0,1,59,371.17a19.2,19.2,0,0,1-8.11-12.65,14.78,14.78,0,0,1,.57-7.88,7.43,7.43,0,0,1,2-3.09,4.75,4.75,0,0,1,6.88.29,19.7,19.7,0,0,1,2,2.49c1.18,1.82,2.27,3.71,3.42,5.56a26.94,26.94,0,0,0,3.82,4.89,15.13,15.13,0,0,0,4.47,3,2.74,2.74,0,0,0,.4.15h.16c0-.16-.08-.3-.13-.45-.39-1.32-.84-2.63-1.17-4a5.58,5.58,0,0,1,1.76-5.81A11.45,11.45,0,0,1,77,352.3a42.26,42.26,0,0,0,5.25-3.87,26.58,26.58,0,0,1,4.29-3.1c.68-.37,1.39-.67,2.13-1l-.54-.38a34.25,34.25,0,0,1-10.51-11.62,19.84,19.84,0,0,1-1.94-5.05l-.08-.28a39.06,39.06,0,0,1-5.41.11c-1.77-.18-3.55-.33-5.4-.49l.13-1.09a42.11,42.11,0,0,0,10.46.36,23,23,0,0,1-.08-6.58,45.53,45.53,0,0,0-5.46-2.83,42.71,42.71,0,0,0-5.72-2.18l.26-1A37.67,37.67,0,0,1,70,315.38c1.82.84,3.61,1.75,5.45,2.65,0-.25.11-.52.17-.8a36.69,36.69,0,0,1,4.78-11.74c.7-1.14,1.48-2.24,2.25-3.34a1.13,1.13,0,0,0,.22-.79q-.54-6.28-1-12.59c-.27-3.26-.52-6.53-.79-9.79-.08-1-.16-2.07-.25-3.11v-.36l.55.38q8.41,5.85,16.82,11.73a1.09,1.09,0,0,0,1,.17,45.77,45.77,0,0,1,12.39-1.4c1,0,2,.12,2.92.21a5.33,5.33,0,0,0,1.69-.08c1.17-.29,2.34-.55,3.51-.8a1.83,1.83,0,0,0,.95-.5l10.17-9.14.71-.64c.3.08.32.31.37.53q1.1,5.31,2.21,10.62c.36,1.73.74,3.46,1.08,5.19a1.16,1.16,0,0,0,.47.68,67,67,0,0,1,5.6,5.18c.77.81,1.51,1.66,2.23,2.51a20.72,20.72,0,0,1,3.07,5.39,31.13,31.13,0,0,1,2.3,8.63c0,.08,0,.16,0,.26a19.16,19.16,0,0,1,8.17,6.62c2,0,5.52-1.38,8.79-3.49l.64.8a19.77,19.77,0,0,1-8.84,3.72,12.9,12.9,0,0,1,.85,9,20.37,20.37,0,0,0,3.09.38c1,.07,2,.08,3.09.12v1a35.92,35.92,0,0,1-6.45-.42,2.15,2.15,0,0,0-.11.25,22.1,22.1,0,0,1-6.66,9.63,34.41,34.41,0,0,1-9.95,5.94,55.08,55.08,0,0,1-11.62,3.17,73.56,73.56,0,0,1-9.83,1Zm32.52-13.88.12-.13h0l.12-.13h0l.42-.52a16.63,16.63,0,0,0,3.33-5.86,27.91,27.91,0,0,1-4-1.45l.4-.89,3.92,1.34a10.71,10.71,0,0,0-.85-8.18l-3.5.48-.12-1,3-.47a12.54,12.54,0,0,0-2.89-2.8l-.16-.17h0l-.37-.26h0c-.05-.2-.16-.3-.38-.25h0a.27.27,0,0,0-.37-.25h0a1.88,1.88,0,0,0-.42-.38l-3-1.54c-.16-.08-.33-.14-.48-.21,0-.57-.05-1.1-.11-1.63a28.91,28.91,0,0,0-2-7.47,21.06,21.06,0,0,0-4.09-6.67,71.14,71.14,0,0,0-6.78-6.33,1.86,1.86,0,0,1-.7-1.15q-1.27-6.21-2.58-12.42c-.06-.27-.13-.54-.22-.9l-.75.66q-4,3.61-8,7.24a2,2,0,0,1-1,.49l-3.39.76a4.52,4.52,0,0,0-.51.2l1.52.26,1.44.27c.46.09.93.17,1.38.3a2.56,2.56,0,0,1,1.31.48,79.6,79.6,0,0,0-8-1.33,40,40,0,0,0-8.11-.06,48.31,48.31,0,0,0-8,1.5c.82.74,1.74,1.2,2.43,2-5.93-4-11.78-8.19-17.77-12.4,0,.59.08,1,.11,1.46.1,1.26.19,2.51.29,3.77.19,2.33.39,4.66.58,7,.14,1.68.27,3.37.4,5.05s.29,3.57.45,5.35a1.08,1.08,0,0,1-.26.83,40.1,40.1,0,0,0-5,8.48,31.45,31.45,0,0,0-2.24,7.4.67.67,0,0,0,.35.8c.55.34,1.07.73,1.6,1.11a3.53,3.53,0,0,1,.35.33l-.62.77-1.76-1.24a13.17,13.17,0,0,0,.15,5.23l1.46-.08.1,1-1.39.19a16.56,16.56,0,0,0,1.62,4.36,32.12,32.12,0,0,0,8.53,10.09,40,40,0,0,0,14.31,7,54.39,54.39,0,0,0,11.55,1.81c.61,0,1.22,0,1.82,0,.41,0,.81.08,1.21.08a75.7,75.7,0,0,0,8-.41,66.43,66.43,0,0,0,10-1.75c1.17-.31,2.31-.73,3.46-1.1a4.64,4.64,0,0,0,.65-.11,41.4,41.4,0,0,0,6-2.66,28.21,28.21,0,0,0,6.86-5.13,3.71,3.71,0,0,0,.36-.52h0l.12-.13h0l.12-.13Zm-47.88,30.41h0l-.13-.14h0c-.21-.24-.44-.47-.64-.73s-.53-.4-.56-.92c1.57,1.5,2.79,3.16,4.44,4.48.63-.57,1.26-1.08,1.82-1.66a38.21,38.21,0,0,0,4-5.22,19,19,0,0,0,1.09-2l1.65-3.26.17.08c-.49,1.22-1.11,2.39-1.65,3.56.61.4,1.2.76,1.75,1.17a33.2,33.2,0,0,1,3.53,3.28,23.06,23.06,0,0,0,2.06,1.9,5.71,5.71,0,0,0,4.38,1.32,10.23,10.23,0,0,0,2.18-.54,34.37,34.37,0,0,0,6.64-3.33,19,19,0,0,0,3.79-3.07,6.4,6.4,0,0,0,1.54-2.53,3,3,0,0,0-.2-2.43,5.91,5.91,0,0,0-3.72-2.94,3,3,0,0,0-.6-.08,4.63,4.63,0,0,0-2.71.79c-.85.53-1.65,1.13-2.49,1.67a23.72,23.72,0,0,1-2.5,1.51,4.56,4.56,0,0,1-5.78-1,24.74,24.74,0,0,1-1.58-1.94c-.57-.71-1.08-1.48-1.68-2.17a19.18,19.18,0,0,0-4-3.42c-.21-.13-.44-.22-.25-.58a53.12,53.12,0,0,1-17.48-3.4c0,.1,0,.13,0,.14l.35.42a3.19,3.19,0,0,1,.73,2.67,6.37,6.37,0,0,1-1.5,3,14.57,14.57,0,0,1-3,2.76l-5.4,3.78c-.19.13-.38.28-.6.45l.49.54a29.27,29.27,0,0,1,3.21,3.91,9,9,0,0,1,1.2,2.53,4,4,0,0,1-1.09,4.14l-.34.37.47.43q4.74,4.19,9.17,8.7c2.38,2.42,4.7,4.91,7.15,7.26,3.11,3,6.33,5.86,9.5,8.79a1.29,1.29,0,0,0,.7.32c1.92.23,3.83.49,5.75.72a90.3,90.3,0,0,0,9.85.75c1.65,0,3.3-.06,4.94-.18A9.24,9.24,0,0,0,141,398a1.14,1.14,0,0,0,.83-1c0-.29.1-.56.14-.85a5.77,5.77,0,0,0-2.95-6.07,12,12,0,0,0-3.87-1.44,29.87,29.87,0,0,0-7.89-.55c-.92.05-1.83.1-2.74.19a.94.94,0,0,1-.86-.31c-.39-.39-.8-.76-1.21-1.13-5.14-4.63-10.09-9.46-14.8-14.54-1.08-1.16-2.18-2.31-3.27-3.46ZM64.06,356.87l-.25-.38h0l-.38-.61h0c-.26-.47-.49-1-.78-1.43-.87-1.4-1.74-2.79-2.64-4.17a4.6,4.6,0,0,0-.62-.63h0c-.12-.32-.27-.59-.66-.62a3,3,0,0,0-4.12,0,6.75,6.75,0,0,0-1.07,1.47,9.19,9.19,0,0,0-1,3.62,16.43,16.43,0,0,0,2.08,9.56,15.87,15.87,0,0,0,3.49,4.37,2,2,0,0,0,.19.22A21.22,21.22,0,0,0,66,372.52a38.6,38.6,0,0,0,12,1.7,1.07,1.07,0,0,0,.47-.09c1-.51,2-1,3-1.55a2.47,2.47,0,0,0,.33-.28c-.33-.26-.62-.48-.89-.71a15.44,15.44,0,0,1-3.34-4.25,1.22,1.22,0,0,0-.82-.63,34.09,34.09,0,0,1-3.41-1.14,17.14,17.14,0,0,1-6.66-5.11,3.8,3.8,0,0,0-.47-.42h0c0-.18,0-.29-.24-.25h0c.1-.16,0-.22-.13-.24h0l-.61-.87h0l-.25-.37h0l-.25-.37h0l-.25-.37h0l-.25-.37h0l-.24-.38Zm58.66-6.57h-1.06l-2.59.15c.51,0,1,0,1.52,0s.75-.08,1.13-.13h1c.16,0,.36.11.46-.13l2-.12c.35,0,.7-.09,1-.13l2.23-.35a9,9,0,0,0-1.37.13c-.31.05-.61.13-.91.19l-3.1.28ZM82.11,372.46l-1,.62a52.13,52.13,0,0,1-12.2,5.2,1.55,1.55,0,0,1-1.26-.12,5.47,5.47,0,0,0-5.48,0,2.55,2.55,0,0,0-1.28,1.56,5.21,5.21,0,0,0-.2,2.11,13.81,13.81,0,0,0,.85,3.49,28.49,28.49,0,0,0,6.46,10,12.87,12.87,0,0,0,3.53,2.59,5,5,0,0,0,2.6.55,6.13,6.13,0,0,0,2.13-.69,3.86,3.86,0,0,0,2.38-4.25,6.94,6.94,0,0,0-.2-1,21.21,21.21,0,0,0-3.06-5.8,7.86,7.86,0,0,1-2,.25,7.2,7.2,0,0,1,1.44-.35c.27,0,.36-.18.39-.45.19.23.33.3.57.23,1.22-.37,2.47-.67,3.68-1.08a83,83,0,0,0,16.84-8.13c.09-.05.17-.14.33-.26l-5.5-5C88.23,373.71,85.27,374.32,82.11,372.46Zm5-13c.16-.11.27-.16.37-.23,1.85-1.29,3.72-2.56,5.54-3.89a22.27,22.27,0,0,0,2.46-2.09,6.38,6.38,0,0,0,1.72-2.56,2.31,2.31,0,0,0-.83-2.81,3.46,3.46,0,0,0-.46-.32,8,8,0,0,0-8.19-.24,22.66,22.66,0,0,0-3.43,2.43,49.19,49.19,0,0,1-6.21,4.61,9.6,9.6,0,0,0-1.67,1.32,3.17,3.17,0,0,0-.94,3.07,26.31,26.31,0,0,0,4.58,10.42,9.83,9.83,0,0,0,2.48,2.33,6,6,0,0,0,4.77.92A7.42,7.42,0,0,0,91,370.56a2.71,2.71,0,0,0,.84-2.77,8.27,8.27,0,0,0-.58-1.6,14.47,14.47,0,0,0-2.34-3.27c-.92-1-1.87-2-2.79-3.06-.27-.3-.5-.62-.77-1l.88-.54Zm-32.63,4.44A8.69,8.69,0,0,0,57.56,368s0-.09,0-.11A22.28,22.28,0,0,1,54.49,363.86Zm18.94,12.56,0,.13,1.6-.66,0-.08Z"/>
            <path class="cls-6" d="M135.4,402.05c-1,0-2,0-3.26-.1-2.54-.15-4.89-.33-7.18-.57-2.13-.23-4.27-.52-6.34-.8l-1.39-.18a2.71,2.71,0,0,1-1.38-.67c-6.33-5.56-11.32-10.31-15.7-15-1-1-2-2-3.1-3.1l-.72-.7c-2.73,1.61-5.43,3-8,4.26a72,72,0,0,1-8,3.22,14.15,14.15,0,0,1,1.4,3.69,8.34,8.34,0,0,1,.11,3.28,6.83,6.83,0,0,1-2.26,4A9.8,9.8,0,0,1,75,401.61a7.5,7.5,0,0,1-4.61-.62,14.34,14.34,0,0,1-4.13-2.79,31,31,0,0,1-8.17-12.73,12.32,12.32,0,0,1-.73-4.6,9.89,9.89,0,0,1,.28-1.9,5.8,5.8,0,0,1,2.87-3.71,10.44,10.44,0,0,1,1.58-.7,22.93,22.93,0,0,1-3.92-2.23,20.66,20.66,0,0,1-8.7-13.56,17,17,0,0,1,0-6.59l-.07-.23.09.16a14.85,14.85,0,0,1,.58-2,8.63,8.63,0,0,1,2.41-3.66,6.19,6.19,0,0,1,8.89.41,23.11,23.11,0,0,1,2.09,2.66c.7,1.1,1.38,2.21,2,3.33.46.75.91,1.5,1.38,2.25a27.41,27.41,0,0,0,1.88,2.68h0a22.26,22.26,0,0,0,1.74,2,12.55,12.55,0,0,0,1.68,1.41c-.12-.42-.24-.85-.35-1.29a7,7,0,0,1,2.19-7.21,13.35,13.35,0,0,1,2.12-1.61,40.66,40.66,0,0,0,5.08-3.74,27.88,27.88,0,0,1,4.53-3.26l0,0A35.47,35.47,0,0,1,76.33,333a21.46,21.46,0,0,1-1.85-4.53h-.27a28.16,28.16,0,0,1-4.2,0c-1.23-.13-2.46-.24-3.71-.34l-3.14-.28.47-3.95,2.08.23a56.29,56.29,0,0,0,6.38.48c.58,0,1.13,0,1.66,0a23.17,23.17,0,0,1,0-4.56,46.9,46.9,0,0,0-4.53-2.28,40.53,40.53,0,0,0-5.53-2.11l-1.33-.38,1-3.78,1.41.4a38.31,38.31,0,0,1,5.85,2.19c1.27.59,2.53,1.21,3.79,1.84l0,0a38,38,0,0,1,4.75-11.19c.63-1,1.32-2,2-3l.26-.38c-.36-4.17-.7-8.33-1-12.5l-.51-6.46L79.33,276c0-.1,0-.2,0-.34v-2.83l5.23,3.6q7.16,5,14.29,10a48.06,48.06,0,0,1,11.29-1.46l1.43,0c1,0,1.89.11,2.8.19h.19a3.79,3.79,0,0,0,1.23,0c1.09-.27,2.25-.53,3.56-.8a.59.59,0,0,0,.28-.16c2.85-2.58,5.71-5.14,8.57-7.71l2.9-2.6.75.21a1.85,1.85,0,0,1,1.37,1.56l2.23,10.67.33,1.57c.24,1.16.49,2.32.72,3.48l0,0a68.78,68.78,0,0,1,5.72,5.29c.7.74,1.42,1.55,2.28,2.57a22.21,22.21,0,0,1,3.29,5.75,32.34,32.34,0,0,1,2.34,8.5,20.36,20.36,0,0,1,7.56,6.08,21.14,21.14,0,0,0,7.31-3.2l1.08-.7,2.37,2.94-1.17.89a20.22,20.22,0,0,1-7.72,3.63,13.24,13.24,0,0,1,.56,2.23l1.28,1.39-1.21-.82a14.77,14.77,0,0,1-.09,4c.37,0,.75.07,1.13.09l.4,0c.68.06,1.36.07,2,.09l2.36.08v3.74l-1.36.06a33.75,33.75,0,0,1-5.58-.28,23.83,23.83,0,0,1-6.77,9.39A35.49,35.49,0,0,1,142,349.28a56.45,56.45,0,0,1-11.91,3.26c-2.58.42-5.12.72-7.59.89l.65.88.35.48q.47.61,1,1.2a4.5,4.5,0,0,0,.58.57,1.11,1.11,0,0,0,.75.31,1.55,1.55,0,0,0,.49-.09,7.71,7.71,0,0,0,1.9-1l.94-.66c.44-.31.88-.62,1.33-.92a11.63,11.63,0,0,1,3-1.5,7.13,7.13,0,0,1,5.33.36,9.66,9.66,0,0,1,3.7,3.06,6.57,6.57,0,0,1,.81,6.63,10.41,10.41,0,0,1-2.09,3.17,23.4,23.4,0,0,1-5.41,4.2,39.14,39.14,0,0,1-6.39,3.06,10,10,0,0,1-5.84.5,9.77,9.77,0,0,1-4.1-2.09c-.55-.46-1-1-1.54-1.44l-.69-.67-2-1.88a38.31,38.31,0,0,1-3.42,4.29c4,4.3,8.29,8.33,13.38,13a40,40,0,0,1,6.19-.09,22.6,22.6,0,0,1,7.6,1.57,10.65,10.65,0,0,1,4.66,3.49,8.88,8.88,0,0,1,1.68,5.8,14.21,14.21,0,0,1-.25,1.91l-.06.31a4.16,4.16,0,0,1-2.14,2.94,8.81,8.81,0,0,1-3.1,1A29.11,29.11,0,0,1,135.4,402.05Zm-16.83-6.24,2.54.32,3.15.4a91.65,91.65,0,0,0,9.7.73h.48c1.29,0,2.71-.05,4.33-.17a7.25,7.25,0,0,0,1.59-.4h0c0-.14,0-.29.07-.43s0-.2.05-.3a4.35,4.35,0,0,0-2.28-4.68,10.53,10.53,0,0,0-3.42-1.27,29.5,29.5,0,0,0-7.52-.52c-1,.05-1.82.1-2.67.19a2.35,2.35,0,0,1-2-.73c-.37-.37-.75-.72-1.14-1.07-3.94-3.55-7.7-7.15-11.2-10.75l.16.32-7.29-7.84,0-.05,0,0,.2-.2,0-.06-.22.19-.18-.2c-.18-.2-.35-.4-.51-.61a2.37,2.37,0,0,1-.85-1.69l0-.53-4.22-8.09,5.49,6.38,1.18,1.12c.65.63,1.25,1.28,1.82,1.9s1.07,1.18,1.63,1.71c.28-.25.55-.5.8-.75a34.31,34.31,0,0,0,3.57-4.64l.28-.4a9.51,9.51,0,0,0,.65-1.2c.11-.24.23-.47.34-.69l2.27-4.47,2.65,1.22-.51,1.26c-.34.86-.75,1.69-1.13,2.48l0,0q.4.25.78.54A31.09,31.09,0,0,1,120.4,366l.33.34a20.73,20.73,0,0,0,1.93,1.78,4.3,4.3,0,0,0,3.31,1,8.25,8.25,0,0,0,1.87-.46,33,33,0,0,0,6.37-3.19,17.3,17.3,0,0,0,3.5-2.83,5.08,5.08,0,0,0,1.23-2,1.58,1.58,0,0,0-.07-1.33,4.5,4.5,0,0,0-2.85-2.27,1.44,1.44,0,0,0-.3,0h-.12a3.35,3.35,0,0,0-1.78.59c-.44.27-.87.57-1.3.87s-.76.53-1.16.78l-.42.27a20.15,20.15,0,0,1-2.23,1.32,6,6,0,0,1-7.42-1.33,19.8,19.8,0,0,1-1.36-1.62l-.33-.42c-.22-.29-.44-.58-.65-.88s-.64-.86-1-1.24a17.46,17.46,0,0,0-3.74-3.16,2.21,2.21,0,0,1-.49-.39,55.32,55.32,0,0,1-13.88-2.38,5.5,5.5,0,0,1-.07,1.06,7.82,7.82,0,0,1-1.8,3.61,15.59,15.59,0,0,1-3.29,3l-3.49,2.45-1.2.84a27.18,27.18,0,0,1,2.77,3.45,10.36,10.36,0,0,1,1.37,2.93,5.41,5.41,0,0,1-.8,4.77c2.93,2.61,5.84,5.38,8.65,8.25.76.77,1.51,1.55,2.27,2.33,1.57,1.63,3.2,3.32,4.85,4.9,2.11,2,4.31,4,6.44,6Zm-53.74-17a4.15,4.15,0,0,0-2,.55,1.18,1.18,0,0,0-.6.74,3.9,3.9,0,0,0-.14,1.54,12.35,12.35,0,0,0,.76,3.12A27.06,27.06,0,0,0,69,394.27a11.59,11.59,0,0,0,3.13,2.31A3.69,3.69,0,0,0,74,397a4.84,4.84,0,0,0,1.63-.55,2.45,2.45,0,0,0,1.59-2.83,5.59,5.59,0,0,0-.16-.77,16.57,16.57,0,0,0-2.35-4.6,4.91,4.91,0,0,1-1.46.09L67,387.6l6-2a8.14,8.14,0,0,1,1-.28l.38-2.49,1.69,2,.91-.25c.74-.2,1.44-.4,2.13-.63a80.24,80.24,0,0,0,15.29-7.24L91,373.62a9.14,9.14,0,0,1-8.82.48l-.35.21a54.62,54.62,0,0,1-12.53,5.35,2.9,2.9,0,0,1-2.31-.24A4.53,4.53,0,0,0,64.83,378.85Zm-8.08-29.2a1.56,1.56,0,0,0-1.1.39,5.4,5.4,0,0,0-.84,1.16,8,8,0,0,0-.82,3.07A15,15,0,0,0,55.9,363a13.88,13.88,0,0,0,3.17,4l.24.27a19.62,19.62,0,0,0,7.1,3.92,36.71,36.71,0,0,0,11.53,1.62l1.42-.71a17.28,17.28,0,0,1-3-4,33.8,33.8,0,0,1-3.56-1.2,18,18,0,0,1-6.54-4.74l-.09.15-.77-1-2.21.38,1.07-1.81-.87-1.09.19,0-.74-1.05h.06l-.31-.46.78-.53-.8.5-.38-.62.73-.47-.76.41-.25-.48c-.15-.3-.31-.59-.48-.88q-1.29-2.08-2.63-4.15l-.17-.15-.25-.24-.24-.24H58l-.39-.47A1.21,1.21,0,0,0,56.75,349.65Zm34.75-2a6.27,6.27,0,0,0-3.09.85,21.4,21.4,0,0,0-3.21,2.27,48.9,48.9,0,0,1-6.4,4.75,8,8,0,0,0-1.4,1.12,1.76,1.76,0,0,0-.54,1.74,24.74,24.74,0,0,0,4.33,9.85,8.7,8.7,0,0,0,2.11,2A4.64,4.64,0,0,0,87,371a5.93,5.93,0,0,0,3-1.46,1.28,1.28,0,0,0,.45-1.39,8.2,8.2,0,0,0-.48-1.32,13.43,13.43,0,0,0-2.12-2.95l-1.53-1.68c-.42-.45-.85-.91-1.26-1.38-.21-.23-.4-.48-.6-.74l-1.21-1.56,3.28-2,.87,1,.84-.59c1.33-.91,2.66-1.83,4-2.78a23.29,23.29,0,0,0,2.32-2,5,5,0,0,0,1.35-2,.91.91,0,0,0-.36-1.23,2.22,2.22,0,0,0-.27-.19A7.64,7.64,0,0,0,91.5,347.68ZM65,360.63a1.2,1.2,0,0,0,.44.28l.28-.35.07-.57-.46-.07-.49.35A1.14,1.14,0,0,0,65,360.63Zm50.36-11.92.46,0c.24,0,.47,0,.7,0a73.46,73.46,0,0,0,7.82-.4,64.1,64.1,0,0,0,9.78-1.71c.76-.2,1.5-.45,2.29-.71l1.11-.37.19-.05.27,0,.16,0a39.12,39.12,0,0,0,5.79-2.55,27,27,0,0,0,6.53-4.87.28.28,0,0,1,0-.09c0-.08.09-.16.14-.24l1.17.78-1-1h0l.07-.08.95.87-.91-.91.13-.13.07.07,1,.77-.95-.93.08.06-.08-.08.5-.61a13.8,13.8,0,0,0,2.51-4,20.82,20.82,0,0,1-2.79-1.08l-1.23-.61,1.51-3.33,3.58,1.23a8.85,8.85,0,0,0-.57-4.75l-3.93.55-.45-3.84,1.55-.24-1.14-.95-.72.15-.17-.82-.08-.07-.19-.2h0c-.8-.42-1.62-.83-2.44-1.23l-.47-.24-.27-.12-.93-.42-.09-1.41c0-.35,0-.68-.08-1a27.18,27.18,0,0,0-1.87-7.1,19.75,19.75,0,0,0-3.81-6.23,70.48,70.48,0,0,0-6.64-6.21,3.35,3.35,0,0,1-1.2-2c-.74-3.63-1.5-7.24-2.25-10.86l0-.07-.32.29q-3.31,3-6.63,6l-.11.09a2.62,2.62,0,0,1,1,.61l3.34,3.37-4.65-1a77.58,77.58,0,0,0-7.81-1.31,37.9,37.9,0,0,0-7.81-.06,48.19,48.19,0,0,0-5,.77l.3.3,8.46,9.17-10.31-7c-5-3.37-9.73-6.74-14.79-10.3l-.53-.37c.06.73.11,1.47.17,2.2l1,12.83c.12,1.51.25,3,.38,4.55a2.49,2.49,0,0,1-.55,1.84,38.75,38.75,0,0,0-4.86,8.18,30.82,30.82,0,0,0-2.07,6.65c.34.22.68.46,1,.7l.3.22a3,3,0,0,1,.42.38l1,1-2.3,2.83-.78-.56c0,.38,0,.76.08,1.11l1.56-.08.4,3.73-1.16.15a15.57,15.57,0,0,0,1.07,2.49,30.87,30.87,0,0,0,8.16,9.65A38.2,38.2,0,0,0,102.35,347a53.29,53.29,0,0,0,11.25,1.77c.38,0,.77,0,1.15,0Zm15.94-72.78-.91.21a.35.35,0,0,0,0,.11Z"/>
            <path class="cls-7" d="M152.14,338.32l.12-.12h0l.12-.13h0l.41-.53a16.37,16.37,0,0,0,3.34-5.85,28.69,28.69,0,0,1-4-1.45l.4-.9,3.92,1.35a10.74,10.74,0,0,0-.85-8.19l-3.5.49-.12-1,3-.46a12.54,12.54,0,0,0-2.89-2.8l-.16-.17h0l-.37-.25h0a.29.29,0,0,0-.38-.25h0c0-.21-.16-.3-.37-.24h0a1.88,1.88,0,0,0-.42-.38c-1-.53-2-1-3-1.54l-.48-.21c0-.58-.05-1.11-.11-1.63a29.21,29.21,0,0,0-2-7.47,21,21,0,0,0-4.09-6.67,72.56,72.56,0,0,0-6.78-6.34,1.84,1.84,0,0,1-.7-1.14c-.85-4.15-1.72-8.29-2.58-12.43-.06-.27-.14-.53-.23-.89l-.74.65q-4,3.62-8,7.25a2.1,2.1,0,0,1-1,.49l-3.39.76a5.38,5.38,0,0,0-.51.19l1.52.27c.48.09,1,.17,1.44.27s.92.17,1.37.29,1,.12,1.31.49a76.2,76.2,0,0,0-8-1.33,39.26,39.26,0,0,0-8.11-.06,48.31,48.31,0,0,0-8,1.5c.82.73,1.74,1.2,2.43,1.95-5.93-4-11.78-8.18-17.77-12.39,0,.59.08,1,.11,1.45.1,1.26.19,2.52.29,3.78.19,2.33.39,4.66.58,7,.14,1.68.27,3.36.4,5s.29,3.56.45,5.34a1.1,1.1,0,0,1-.26.84,39.85,39.85,0,0,0-5,8.48,31.73,31.73,0,0,0-2.25,7.39.68.68,0,0,0,.36.8c.55.35,1.07.74,1.6,1.12.12.09.22.21.35.33l-.62.77-1.76-1.25a13.39,13.39,0,0,0,.14,5.24l1.46-.09.11,1-1.39.18a16.43,16.43,0,0,0,1.62,4.36,32.16,32.16,0,0,0,8.53,10.1,39.77,39.77,0,0,0,14.31,7,54.4,54.4,0,0,0,11.55,1.82c.61,0,1.22,0,1.82,0,.41,0,.81.08,1.21.08a73.11,73.11,0,0,0,8-.42,66.41,66.41,0,0,0,10-1.74c1.17-.31,2.31-.73,3.46-1.1a4.27,4.27,0,0,0,.64-.12,40.41,40.41,0,0,0,6-2.65,28.73,28.73,0,0,0,6.86-5.13,3.29,3.29,0,0,0,.36-.53h0l.13-.13h0l.12-.12Zm-47.88,30.42h0l-.12-.14h0c-.22-.24-.44-.48-.64-.73s-.53-.41-.56-.92c1.57,1.5,2.79,3.16,4.44,4.48.63-.57,1.26-1.08,1.82-1.66a38.3,38.3,0,0,0,4-5.23,18.06,18.06,0,0,0,1.09-2l1.65-3.25.17.07c-.49,1.23-1.11,2.39-1.65,3.56.61.41,1.2.77,1.75,1.18a32.19,32.19,0,0,1,3.53,3.28,23.18,23.18,0,0,0,2.06,1.9,5.66,5.66,0,0,0,4.38,1.31,9.16,9.16,0,0,0,2.18-.54A34.37,34.37,0,0,0,135,366.7a18.91,18.91,0,0,0,3.79-3.06,6.54,6.54,0,0,0,1.54-2.53,3.07,3.07,0,0,0-.2-2.43,5.88,5.88,0,0,0-3.72-2.94,2.49,2.49,0,0,0-.6-.09,4.76,4.76,0,0,0-2.72.8c-.84.52-1.64,1.13-2.48,1.67a25.44,25.44,0,0,1-2.5,1.5,4.56,4.56,0,0,1-5.78-1,24.58,24.58,0,0,1-1.58-1.93c-.57-.72-1.08-1.48-1.68-2.17a18.89,18.89,0,0,0-4-3.42c-.21-.13-.44-.23-.25-.58a53.38,53.38,0,0,1-17.48-3.4.49.49,0,0,0,0,.14c.11.14.23.27.35.41a3.21,3.21,0,0,1,.73,2.68,6.34,6.34,0,0,1-1.5,2.95,14.57,14.57,0,0,1-3,2.76c-1.79,1.27-3.6,2.52-5.4,3.78l-.6.46.49.54a28.06,28.06,0,0,1,3.21,3.91,9,9,0,0,1,1.2,2.52,4,4,0,0,1-1.09,4.15l-.34.36c.17.16.32.31.47.44q4.74,4.19,9.16,8.7c2.39,2.42,4.7,4.91,7.16,7.26,3.11,3,6.33,5.86,9.5,8.78a1.16,1.16,0,0,0,.7.32c1.92.24,3.83.5,5.75.73a90.1,90.1,0,0,0,9.85.74c1.65,0,3.3,0,4.94-.17A8.87,8.87,0,0,0,141,398a1.13,1.13,0,0,0,.83-1c0-.28.1-.56.13-.84a5.75,5.75,0,0,0-2.94-6.07,12.25,12.25,0,0,0-3.87-1.45,30.74,30.74,0,0,0-7.89-.55c-.92.05-1.83.1-2.74.2a.94.94,0,0,1-.86-.32c-.39-.39-.8-.76-1.21-1.12-5.14-4.64-10.09-9.47-14.8-14.55-1.08-1.16-2.18-2.3-3.27-3.45ZM64.08,356.9l-.25-.38h0l-.38-.62h0c-.25-.48-.48-1-.77-1.43q-1.3-2.1-2.64-4.18a4.6,4.6,0,0,0-.62-.63h0c-.12-.32-.27-.59-.66-.62a3,3,0,0,0-4.12,0,6.75,6.75,0,0,0-1.07,1.47,9.14,9.14,0,0,0-1,3.62,16.45,16.45,0,0,0,2.08,9.56,15.5,15.5,0,0,0,3.49,4.36,2.11,2.11,0,0,0,.19.23A21.37,21.37,0,0,0,66,372.55a38.3,38.3,0,0,0,12,1.69.94.94,0,0,0,.47-.09c1-.5,2-1,3-1.55a2.32,2.32,0,0,0,.33-.27c-.33-.26-.62-.48-.89-.72a15.15,15.15,0,0,1-3.34-4.25,1.24,1.24,0,0,0-.82-.62,34.15,34.15,0,0,1-3.41-1.15,17,17,0,0,1-6.66-5.11,3.07,3.07,0,0,0-.47-.41h0c0-.18,0-.3-.23-.26h0c.1-.16,0-.22-.13-.24h0l-.61-.86h0l-.25-.37h0l-.24-.37h0l-.25-.38h0l-.25-.37h0l-.25-.37Zm58.66-6.58h-1.06l-2.59.16c.51,0,1,0,1.52,0s.75-.08,1.13-.12h1c.16,0,.36.12.46-.12l2-.12c.35,0,.7-.09,1-.14l2.23-.34a9,9,0,0,0-1.37.13c-.31.05-.61.12-.92.18l-3.09.28ZM82.13,372.49l-1,.61a52.66,52.66,0,0,1-12.21,5.21,1.53,1.53,0,0,1-1.25-.12,5.5,5.5,0,0,0-5.48,0,2.56,2.56,0,0,0-1.28,1.57,5.19,5.19,0,0,0-.2,2.11,14,14,0,0,0,.85,3.49,28.45,28.45,0,0,0,6.46,10,12.67,12.67,0,0,0,3.53,2.59,5,5,0,0,0,2.59.55,5.73,5.73,0,0,0,2.14-.69,3.85,3.85,0,0,0,2.38-4.24,7.07,7.07,0,0,0-.2-1,21.15,21.15,0,0,0-3.06-5.79,8.36,8.36,0,0,1-2,.25,7.2,7.2,0,0,1,1.44-.35c.27,0,.36-.18.39-.46.19.23.33.31.57.23,1.22-.37,2.47-.66,3.68-1.07a83.53,83.53,0,0,0,16.84-8.13,3.84,3.84,0,0,0,.32-.27l-5.49-5C88.25,373.74,85.29,374.34,82.13,372.49Zm5-13.05.37-.22c1.85-1.3,3.72-2.56,5.54-3.89a23.4,23.4,0,0,0,2.46-2.09,6.38,6.38,0,0,0,1.72-2.56,2.31,2.31,0,0,0-.84-2.82,3.58,3.58,0,0,0-.45-.31,8,8,0,0,0-8.19-.25,23.39,23.39,0,0,0-3.43,2.43,48.31,48.31,0,0,1-6.21,4.62,9.24,9.24,0,0,0-1.67,1.32,3.16,3.16,0,0,0-.94,3.07,26.2,26.2,0,0,0,4.58,10.41,9.69,9.69,0,0,0,2.48,2.34,6,6,0,0,0,4.77.92A7.42,7.42,0,0,0,91,370.59a2.73,2.73,0,0,0,.84-2.78,8.18,8.18,0,0,0-.58-1.59A14.56,14.56,0,0,0,88.92,363c-.92-1-1.87-2-2.8-3.07-.26-.29-.49-.62-.76-1l.88-.54Zm-32.63,4.45a8.73,8.73,0,0,0,3.07,4.18s0-.1,0-.12A22.55,22.55,0,0,1,54.51,363.89Zm18.94,12.56,0,.13,1.6-.66,0-.09Z"/>
            <path class="cls-2" d="M115.37,350.17c-.6,0-1.21,0-1.82,0A54.4,54.4,0,0,1,102,348.35a39.77,39.77,0,0,1-14.31-7,32.16,32.16,0,0,1-8.53-10.1,16.43,16.43,0,0,1-1.62-4.36l1.39-.18-.11-1-1.46.09a13.39,13.39,0,0,1-.14-5.24L79,321.78l.62-.77c-.13-.12-.23-.24-.35-.33-.53-.38-1-.77-1.6-1.12a.68.68,0,0,1-.36-.8,31.73,31.73,0,0,1,2.25-7.39,39.85,39.85,0,0,1,5-8.48,1.1,1.1,0,0,0,.26-.84c-.16-1.78-.3-3.56-.45-5.34s-.26-3.37-.4-5c-.19-2.33-.39-4.66-.58-7-.1-1.26-.19-2.52-.29-3.78,0-.43-.07-.86-.11-1.45,6,4.21,11.84,8.35,17.77,12.39-.69-.75-1.61-1.22-2.43-1.95a48.31,48.31,0,0,1,8-1.5,39.26,39.26,0,0,1,8.11.06,76.2,76.2,0,0,1,8,1.33c-.36-.37-.86-.36-1.31-.49s-.91-.2-1.37-.29-1-.18-1.44-.27l-1.52-.27a5.38,5.38,0,0,1,.51-.19l3.39-.76a2.1,2.1,0,0,0,1-.49q4-3.64,8-7.25l.74-.65c.09.36.17.62.23.89.86,4.14,1.73,8.28,2.58,12.43a1.84,1.84,0,0,0,.7,1.14,72.56,72.56,0,0,1,6.78,6.34,21,21,0,0,1,4.09,6.67,29.21,29.21,0,0,1,2,7.47c.06.52.07,1.05.11,1.63l.48.21c1,.51,2,1,3,1.54a1.88,1.88,0,0,1,.42.38,2.93,2.93,0,0,1-.59-.2A19.41,19.41,0,0,0,146,316a1.19,1.19,0,0,1-.68-.46c-.58-.76-1.17-1.5-1.76-2.24a12.7,12.7,0,0,0,0-3.59,18.34,18.34,0,0,0-6.37-11.27,11.17,11.17,0,0,0-5-2.54,5.57,5.57,0,0,0-6.62,3.65,9.87,9.87,0,0,0-.43,5.05,18.06,18.06,0,0,0,3.34,8,19.26,19.26,0,0,0,3.33,3.54,6,6,0,0,1-1.1,2.33,12.19,12.19,0,0,0-1.31-.27c-.83-.07-1.67-.08-2.5-.12L124,318c-.75,0-1.5-.13-2.25-.12a3.88,3.88,0,0,0-1.31.23,1.12,1.12,0,0,0-.69,1.49c.06.18.1.37.15.57a5.77,5.77,0,0,1-.58-.08,37,37,0,0,1-6.16-2.35,1.55,1.55,0,0,1,0-.23,11.09,11.09,0,0,0,.54-5.53,15.9,15.9,0,0,0-4.3-8.8,12.24,12.24,0,0,0-7.06-3.94,7.28,7.28,0,0,0-7.86,3.9,10.52,10.52,0,0,0-1,6.41,16,16,0,0,0,4.47,9,15.35,15.35,0,0,0,3.91,2.87c-1,.22-2,.4-3,.68a12.48,12.48,0,0,0-4.54,2.18A5.83,5.83,0,0,0,92.08,328a11.62,11.62,0,0,0,0,3.58,14,14,0,0,0,2.58,6.19,24.08,24.08,0,0,0,5.75,5.51A48.37,48.37,0,0,0,111.8,349C113,349.38,114.18,349.76,115.37,350.17Z"/>
            <path class="cls-1" d="M130.67,318.47a6,6,0,0,0,1.1-2.33l.71.48a11.06,11.06,0,0,0,3.79,1.73,5.62,5.62,0,0,0,7-4c.12-.36.2-.74.31-1.11.59.74,1.18,1.48,1.76,2.24a1.19,1.19,0,0,0,.68.46,19.41,19.41,0,0,1,4.23,1.64,2.93,2.93,0,0,0,.59.2h0c0,.23.17.27.37.24h0a.31.31,0,0,0,.38.25h0l.37.25h0l.16.17a12.54,12.54,0,0,1,2.89,2.8l-3,.46.12,1,3.5-.49a10.74,10.74,0,0,1,.85,8.19l-3.92-1.35-.4.9a28.69,28.69,0,0,0,4,1.45,16.37,16.37,0,0,1-3.34,5.85c-.13.18-.27.35-.41.53h0l-.12.13h0l-.12.12h0l-.12.12h0l-.13.13h0a1.38,1.38,0,0,0-.3.14,42.08,42.08,0,0,1-9.53,6.37c-1.34.67-2.71,1.28-4.06,1.92-1.15.37-2.29.79-3.46,1.1a66.41,66.41,0,0,1-10,1.74,73.11,73.11,0,0,1-8,.42c-.4,0-.8-.06-1.21-.08-1.19-.41-2.39-.79-3.57-1.22a48.37,48.37,0,0,1-11.36-5.7,24.08,24.08,0,0,1-5.75-5.51,14,14,0,0,1-2.58-6.19,11.62,11.62,0,0,1,0-3.58,5.83,5.83,0,0,1,2.31-3.69,12.48,12.48,0,0,1,4.54-2.18c1-.28,2-.46,3-.68.19.07.39.13.57.21a10.65,10.65,0,0,0,2.94.73,7.27,7.27,0,0,0,7.34-4l.36-.7a37,37,0,0,0,6.16,2.35,5.77,5.77,0,0,0,.58.08h0l.15.11.13.12a14.57,14.57,0,0,0,6.06,3.84,2,2,0,0,0,2.14-.44A10,10,0,0,0,131,320,1.13,1.13,0,0,0,130.67,318.47Zm9.88,15.65c-2.58-.45-5.05-.85-7.51-1.31a72,72,0,0,1-8-1.78c-4.48-1.38-9-2.8-13.42-4.21-1-.3-1.92-.63-3-1-.3,1-.61,2-.84,3a13.07,13.07,0,0,0-.26,5.21,9.89,9.89,0,0,0,3.85,6.3,19.62,19.62,0,0,0,7.22,3.42,13.4,13.4,0,0,0,4.23.44,18,18,0,0,0,6.26-1.47,30.62,30.62,0,0,0,9.84-7C139.52,335.29,140,334.73,140.55,334.12Z"/>
            <path class="cls-2" d="M104.35,368.85c1.09,1.15,2.19,2.29,3.27,3.45,4.71,5.08,9.66,9.91,14.8,14.55.41.36.82.73,1.21,1.12a.94.94,0,0,0,.86.32c.91-.1,1.82-.15,2.74-.2a30.74,30.74,0,0,1,7.89.55,12.25,12.25,0,0,1,3.87,1.45,5.75,5.75,0,0,1,2.94,6.07c0,.28-.1.56-.13.84a1.13,1.13,0,0,1-.83,1,8.87,8.87,0,0,1-2.06.51c-1.64.12-3.29.19-4.94.17a90.1,90.1,0,0,1-9.85-.74c-1.92-.23-3.83-.49-5.75-.73a1.16,1.16,0,0,1-.7-.32c-3.17-2.92-6.39-5.8-9.5-8.78-2.46-2.35-4.77-4.84-7.16-7.26q-4.42-4.51-9.16-8.7c-.15-.13-.3-.28-.47-.44l.34-.36a4,4,0,0,0,1.09-4.15,9,9,0,0,0-1.2-2.52,28.06,28.06,0,0,0-3.21-3.91l-.49-.54.6-.46c1.8-1.26,3.61-2.51,5.4-3.78a14.57,14.57,0,0,0,3-2.76,6.34,6.34,0,0,0,1.5-2.95,3.21,3.21,0,0,0-.73-2.68c-.12-.14-.24-.27-.35-.41a.49.49,0,0,1,0-.14,53.38,53.38,0,0,0,17.48,3.4c-.19.35,0,.45.25.58a18.89,18.89,0,0,1,4,3.42c.6.69,1.11,1.45,1.68,2.17a24.58,24.58,0,0,0,1.58,1.93,4.56,4.56,0,0,0,5.78,1,25.44,25.44,0,0,0,2.5-1.5c.84-.54,1.64-1.15,2.48-1.67a4.76,4.76,0,0,1,2.72-.8,2.49,2.49,0,0,1,.6.09,5.88,5.88,0,0,1,3.72,2.94,3.07,3.07,0,0,1,.2,2.43,6.54,6.54,0,0,1-1.54,2.53A18.91,18.91,0,0,1,135,366.7a34.37,34.37,0,0,1-6.64,3.33,9.16,9.16,0,0,1-2.18.54,5.66,5.66,0,0,1-4.38-1.31,23.18,23.18,0,0,1-2.06-1.9,32.19,32.19,0,0,0-3.53-3.28c-.55-.41-1.14-.77-1.75-1.18.54-1.17,1.16-2.33,1.65-3.56l-.17-.07-1.65,3.25a7.71,7.71,0,0,0-.1-.84,4.07,4.07,0,0,0-1.3-2.23,12.3,12.3,0,0,0-5.24-3,6.39,6.39,0,0,0-5.88,1.11c-.65.49-1.23,1.07-1.84,1.61a2.85,2.85,0,0,0-.85,3,6.71,6.71,0,0,0,.9,2.05,18.39,18.39,0,0,0,3.7,4.12,2.35,2.35,0,0,0,.46.28h0l.12.14h0Z"/>
            <path class="cls-2" d="M82.13,372.49c3.16,1.85,6.12,1.25,9-.6l5.49,5a3.84,3.84,0,0,1-.32.27A83.53,83.53,0,0,1,79.5,385.3c-1.21.41-2.46.7-3.68,1.07-.24.08-.38,0-.57-.23,0,.28-.12.43-.39.46a7.2,7.2,0,0,0-1.44.35,8.36,8.36,0,0,0,2-.25,21.15,21.15,0,0,1,3.06,5.79,7.07,7.07,0,0,1,.2,1,3.85,3.85,0,0,1-2.38,4.24,5.73,5.73,0,0,1-2.14.69,5,5,0,0,1-2.59-.55A12.67,12.67,0,0,1,68,395.3a28.45,28.45,0,0,1-6.46-10,14,14,0,0,1-.85-3.49,5.19,5.19,0,0,1,.2-2.11,2.56,2.56,0,0,1,1.28-1.57,5.5,5.5,0,0,1,5.48,0,1.53,1.53,0,0,0,1.25.12,52.66,52.66,0,0,0,12.21-5.21Z"/>
            <path class="cls-2" d="M87.14,359.44l-.9-1.07-.88.54c.27.35.5.68.76,1,.93,1,1.88,2,2.8,3.07a14.56,14.56,0,0,1,2.34,3.27,8.18,8.18,0,0,1,.58,1.59,2.73,2.73,0,0,1-.84,2.78,7.42,7.42,0,0,1-3.67,1.82,6,6,0,0,1-4.77-.92,9.69,9.69,0,0,1-2.48-2.34,26.2,26.2,0,0,1-4.58-10.41,3.16,3.16,0,0,1,.94-3.07,9.24,9.24,0,0,1,1.67-1.32,48.31,48.31,0,0,0,6.21-4.62,23.39,23.39,0,0,1,3.43-2.43,8,8,0,0,1,8.19.25,3.58,3.58,0,0,1,.45.31,2.31,2.31,0,0,1,.84,2.82,6.38,6.38,0,0,1-1.72,2.56,23.4,23.4,0,0,1-2.46,2.09c-1.82,1.33-3.69,2.59-5.54,3.89Z"/>
            <path class="cls-2" d="M66.27,360.07a3.07,3.07,0,0,1,.47.41,17,17,0,0,0,6.66,5.11,34.15,34.15,0,0,0,3.41,1.15,1.24,1.24,0,0,1,.82.62A15.15,15.15,0,0,0,81,371.61c.27.24.56.46.89.72a2.32,2.32,0,0,1-.33.27c-1,.53-2,1-3,1.55a.94.94,0,0,1-.47.09,38.3,38.3,0,0,1-12-1.69,21.37,21.37,0,0,1-7.63-4.23,2.11,2.11,0,0,1-.19-.23c0-.36.11-.72.13-1.08,0-.69,0-1.38,0-2.07a3.73,3.73,0,0,1,2.78-3.67,8.69,8.69,0,0,1,3.54-.41c.69.07,1.38.16,2.13.25-.17-.27-.32-.47-.43-.68A1.05,1.05,0,0,1,66.27,360.07Z"/>
            <path class="cls-1" d="M104.15,368.62a2.35,2.35,0,0,1-.46-.28,18.39,18.39,0,0,1-3.7-4.12,6.71,6.71,0,0,1-.9-2.05,2.85,2.85,0,0,1,.85-3c.61-.54,1.19-1.12,1.84-1.61a6.39,6.39,0,0,1,5.88-1.11,12.3,12.3,0,0,1,5.24,3,4.07,4.07,0,0,1,1.3,2.23,7.71,7.71,0,0,1,.1.84,18.06,18.06,0,0,1-1.09,2,38.3,38.3,0,0,1-4,5.23c-.56.58-1.19,1.09-1.82,1.66-1.65-1.32-2.87-3-4.44-4.48,0,.51.37.67.56.92S103.93,368.38,104.15,368.62Z"/>
            <path class="cls-1" d="M66.27,360.07a1.05,1.05,0,0,0,.08.36c.11.21.26.41.43.68-.75-.09-1.44-.18-2.13-.25a8.69,8.69,0,0,0-3.54.41,3.73,3.73,0,0,0-2.78,3.67c0,.69,0,1.38,0,2.07,0,.36-.09.72-.13,1.08a15.5,15.5,0,0,1-3.49-4.36,16.45,16.45,0,0,1-2.08-9.56,9.14,9.14,0,0,1,1-3.62,6.75,6.75,0,0,1,1.07-1.47,3,3,0,0,1,4.12,0l.66.62h0c.22.38.42.77.65,1.13q1.47,2.34,3,4.66a3.56,3.56,0,0,0,.42.45h0a.63.63,0,0,0,.38.62h0l.25.38h0l.25.37h0l.25.37h0l.25.38h0l.24.37h0l.25.37h0a1.21,1.21,0,0,0,.61.86h0l.13.24h0c0,.17,0,.32.23.26Z"/>
            <path class="cls-8" d="M138,347c1.35-.64,2.72-1.25,4.06-1.92a42.08,42.08,0,0,0,9.53-6.37,1.38,1.38,0,0,1,.3-.14,3.29,3.29,0,0,1-.36.53,28.73,28.73,0,0,1-6.86,5.13,40.41,40.41,0,0,1-6,2.65A4.27,4.27,0,0,1,138,347Z"/>
            <path class="cls-8" d="M63.46,355.92a3.56,3.56,0,0,1-.42-.45q-1.49-2.33-3-4.66c-.23-.36-.43-.75-.65-1.13a4.6,4.6,0,0,1,.62.63q1.34,2.08,2.64,4.18C63,355,63.21,355.44,63.46,355.92Z"/>
            <path class="cls-1" d="M54.51,363.89A22.55,22.55,0,0,0,57.6,368s0,.08,0,.12A8.73,8.73,0,0,1,54.51,363.89Z"/>
            <path class="cls-1" d="M123.15,350.24l3.09-.28v0h0c-.35.05-.7.11-1,.14l-2,.12A.06.06,0,0,0,123.15,350.24Z"/>
            <path class="cls-8" d="M121.73,350.38c-.37,0-.74.11-1.12.12s-1,0-1.52,0l2.59-.16Z"/>
            <path class="cls-8" d="M126.3,350h0v0c.31-.06.61-.13.92-.18a9,9,0,0,1,1.37-.13Z"/>
            <path class="cls-8" d="M73.45,376.45l1.62-.62,0,.09-1.6.66Z"/>
            <path class="cls-8" d="M65.91,359.58a1.21,1.21,0,0,1-.61-.86Z"/>
            <path class="cls-8" d="M59.44,349.69l-.66-.62C59.17,349.1,59.32,349.37,59.44,349.69Z"/>
            <path class="cls-8" d="M123.15,350.24a.06.06,0,0,1,.06,0c-.1.24-.3.1-.46.12l0,0,0,0Z"/>
            <path class="cls-1" d="M122.74,350.32l0,0,0,0h-1l0-.05Z"/>
            <path class="cls-8" d="M63.84,356.53a.63.63,0,0,1-.38-.62Z"/>
            <path class="cls-8" d="M152.38,338.08c.14-.18.28-.35.41-.53C152.66,337.73,152.52,337.9,152.38,338.08Z"/>
            <path class="cls-8" d="M151.9,318.54l-.37-.25Z"/>
            <path class="cls-8" d="M151.54,318.3a.31.31,0,0,1-.38-.25A.29.29,0,0,1,151.54,318.3Z"/>
            <path class="cls-8" d="M151.17,318.05c-.2,0-.35,0-.37-.24C151,317.75,151.13,317.84,151.17,318.05Z"/>
            <path class="cls-8" d="M66.27,360.07c-.23.06-.24-.09-.23-.26C66.25,359.77,66.3,359.89,66.27,360.07Z"/>
            <path class="cls-8" d="M65.3,358.73l-.25-.37Z"/>
            <path class="cls-8" d="M65.05,358.36l-.24-.37Z"/>
            <path class="cls-8" d="M64.81,358l-.25-.38Z"/>
            <path class="cls-8" d="M64.57,357.63l-.25-.37Z"/>
            <path class="cls-8" d="M64.32,357.26l-.25-.37Z"/>
            <path class="cls-8" d="M64.08,356.9l-.25-.38Z"/>
            <path class="cls-8" d="M66,359.82l-.13-.24C66.06,359.6,66.14,359.66,66,359.82Z"/>
            <path class="cls-8" d="M152.05,318.71l-.16-.17Z"/>
            <path class="cls-1" d="M104.26,368.75l-.12-.14Z"/>
            <path class="cls-1" d="M104.35,368.85l-.09-.11Z"/>
            <path class="cls-8" d="M152.26,338.2l.12-.13Z"/>
            <path class="cls-8" d="M151.89,338.57l.13-.13Z"/>
            <path class="cls-8" d="M152,338.44l.12-.12Z"/>
            <path class="cls-8" d="M152.14,338.32l.12-.12Z"/>
            <path class="cls-9" d="M113.16,317.7l-.36.7a7.27,7.27,0,0,1-7.34,4,10.65,10.65,0,0,1-2.94-.73c-.18-.08-.38-.14-.57-.21A15.35,15.35,0,0,1,98,318.55a16,16,0,0,1-4.47-9,10.52,10.52,0,0,1,1-6.41,7.28,7.28,0,0,1,7.86-3.9,12.24,12.24,0,0,1,7.06,3.94,15.9,15.9,0,0,1,4.3,8.8,11.09,11.09,0,0,1-.54,5.53A1.55,1.55,0,0,0,113.16,317.7Zm-.38-4.05c0-.29,0-.57,0-.86a14.72,14.72,0,0,0-3.28-8,12.37,12.37,0,0,0-6-4.26,7.39,7.39,0,0,0-3.73-.26,6.15,6.15,0,0,0-4.69,4.1,9.82,9.82,0,0,0-.46,5.23,14.91,14.91,0,0,0,4.95,8.94,10.73,10.73,0,0,0,5.73,2.75,6.27,6.27,0,0,0,6.51-3.34A8.92,8.92,0,0,0,112.78,313.65Z"/>
            <path class="cls-9" d="M143.54,313.27c-.11.37-.19.75-.31,1.11a5.62,5.62,0,0,1-7,4,11.06,11.06,0,0,1-3.79-1.73l-.71-.48a19.26,19.26,0,0,1-3.33-3.54,18.06,18.06,0,0,1-3.34-8,9.87,9.87,0,0,1,.43-5.05,5.57,5.57,0,0,1,6.62-3.65,11.17,11.17,0,0,1,5,2.54,18.34,18.34,0,0,1,6.37,11.27A12.7,12.7,0,0,1,143.54,313.27Zm-.93-2a14.39,14.39,0,0,0-.16-1.59,17.38,17.38,0,0,0-5.6-10.1,10.91,10.91,0,0,0-4.11-2.43,5.59,5.59,0,0,0-3.24-.13,4.55,4.55,0,0,0-3.12,3.3,9.16,9.16,0,0,0-.21,4.29A17.31,17.31,0,0,0,132,314.87a10.07,10.07,0,0,0,4.94,2.52,4.49,4.49,0,0,0,5.1-2.73A9,9,0,0,0,142.61,311.22Z"/>
            <path class="cls-9" d="M130.67,318.47A1.13,1.13,0,0,1,131,320a10,10,0,0,1-2.57,3.8,2,2,0,0,1-2.14.44,14.57,14.57,0,0,1-6.06-3.84l-.13-.12-.15-.11h0c-.05-.2-.09-.39-.15-.57a1.12,1.12,0,0,1,.69-1.49,3.88,3.88,0,0,1,1.31-.23c.75,0,1.5.08,2.25.12l2.86.12c.83,0,1.67.05,2.5.12A12.19,12.19,0,0,1,130.67,318.47Z"/>
            <path class="cls-9" d="M140.55,334.12c-.56.61-1,1.17-1.54,1.69a30.62,30.62,0,0,1-9.84,7,18,18,0,0,1-6.26,1.47,13.4,13.4,0,0,1-4.23-.44,19.62,19.62,0,0,1-7.22-3.42,9.89,9.89,0,0,1-3.85-6.3,13.07,13.07,0,0,1,.26-5.21c.23-1,.54-2,.84-3,1,.34,2,.67,3,1,4.47,1.41,8.94,2.83,13.42,4.21a72,72,0,0,0,8,1.78C135.5,333.27,138,333.67,140.55,334.12Zm-2.07.78-.3-.11c-2.08-.37-4.17-.72-6.25-1.11a68.93,68.93,0,0,1-7.24-1.65c-3.42-1-6.84-2.11-10.24-3.18-1.67-.52-3.32-1.08-5-1.64a4.75,4.75,0,0,0-.18.53c-.23,1.09-.54,2.18-.66,3.28a8.94,8.94,0,0,0,3.3,8.36,18.09,18.09,0,0,0,10.59,3.82,16.56,16.56,0,0,0,5.3-1,26.9,26.9,0,0,0,8.28-5.06C136.87,336.43,137.62,335.69,138.48,334.9Z"/>
            <path class="cls-8" d="M119.9,320.12l.15.11Z"/>
            <path class="cls-1" d="M112.78,313.65a8.92,8.92,0,0,1-.94,4.3,6.27,6.27,0,0,1-6.51,3.34,10.73,10.73,0,0,1-5.73-2.75,14.91,14.91,0,0,1-4.95-8.94,9.82,9.82,0,0,1,.46-5.23,6.15,6.15,0,0,1,4.69-4.1,7.39,7.39,0,0,1,3.73.26,12.37,12.37,0,0,1,6,4.26,14.72,14.72,0,0,1,3.28,8C112.8,313.08,112.78,313.36,112.78,313.65Zm-8.64.48a1.77,1.77,0,0,0,1.68,1.81,1.81,1.81,0,0,0,1.72-1.85,1.71,1.71,0,1,0-3.4,0Z"/>
            <path class="cls-1" d="M142.61,311.22a9,9,0,0,1-.61,3.44,4.49,4.49,0,0,1-5.1,2.73,10.07,10.07,0,0,1-4.94-2.52,17.31,17.31,0,0,1-5.79-10.31,9.16,9.16,0,0,1,.21-4.29,4.55,4.55,0,0,1,3.12-3.3,5.59,5.59,0,0,1,3.24.13,10.91,10.91,0,0,1,4.11,2.43,17.38,17.38,0,0,1,5.6,10.1A14.39,14.39,0,0,1,142.61,311.22Zm-7.34,0a1.75,1.75,0,0,0,1.53,1.82,1.72,1.72,0,0,0,1.8-1.4,1.84,1.84,0,0,0-1.1-2.18A1.72,1.72,0,0,0,135.27,311.24Z"/>
            <path class="cls-1" d="M138.48,334.9c-.86.79-1.61,1.53-2.41,2.22a26.9,26.9,0,0,1-8.28,5.06,16.56,16.56,0,0,1-5.3,1,18.09,18.09,0,0,1-10.59-3.82,8.94,8.94,0,0,1-3.3-8.36c.12-1.1.43-2.19.66-3.28a4.75,4.75,0,0,1,.18-.53c1.69.56,3.34,1.12,5,1.64,3.4,1.07,6.82,2.14,10.24,3.18a68.93,68.93,0,0,0,7.24,1.65c2.08.39,4.17.74,6.25,1.11Z"/>
            <path class="cls-9" d="M104.14,314.13a1.71,1.71,0,1,1,3.4,0,1.81,1.81,0,0,1-1.72,1.85A1.77,1.77,0,0,1,104.14,314.13Z"/>
            <path class="cls-9" d="M135.27,311.24a1.72,1.72,0,0,1,2.23-1.76,1.84,1.84,0,0,1,1.1,2.18,1.72,1.72,0,0,1-1.8,1.4A1.75,1.75,0,0,1,135.27,311.24Z"/>
          </g>
        </g>
      </g>
    </g>
  </g>
</svg>
