<svg xmlns="http://www.w3.org/2000/svg" viewBox="0 0 424.26 418.61">
  <defs>
    <style>
      .cls-1 {
        fill: #ff7550;
      }

      .cls-2 {
        isolation: isolate;
      }

      .cls-3 {
        fill: #fff;
      }

      .cls-4 {
        opacity: 0.1;
      }

      .cls-5 {
        opacity: 0.5;
      }

      .cls-6 {
        fill: #58595b;
      }

      .cls-7 {
        fill: #52db96;
      }

      .cls-8 {
        fill: #ffd039;
      }

      .cls-9 {
        fill: #ffa083;
      }
    </style>
  </defs>
  <title>Asset 9</title>
  <g id="Layer_2" data-name="Layer 2">
    <g id="elements">
      <g>
        <path class="cls-1" d="M231,290.66a5.49,5.49,0,0,1-2.75-.74l-62.05-35.86a30.82,30.82,0,0,1-15.36-26.62V194.58a5.5,5.5,0,1,1,11,0v32.86a19.79,19.79,0,0,0,9.86,17.09l62.05,35.86A5.5,5.5,0,0,1,231,290.66Z"/>
        <g>
          <g class="cls-2">
            <path class="cls-1" d="M30.55,118.78c.78-.45,20.27-12.06,21-12.44,0-.79-.05-1.58-.05-2.38-.11-40.17,20.18-77.1,55.15-97.27,15-8.62,28.74-8.54,40.25-1.86l17.62,10.39c9.64-4.19,18.28-4.08,24.79-.29L262,57.17l-.07,0c7.61,4.38,12.34,13.76,12.38,27.1.07,26.77-18.75,59.38-42.05,72.83l-128.86,74.4c-8.76,5-16.67,5.38-22.28,1.83.16.1.31.21.47.3L8.94,191.35c-5.5-3.2-8.91-10-8.94-19.66C0,152.24,13.62,128.55,30.55,118.78Z"/>
          </g>
          <path class="cls-1" d="M168.59,48.14c-35,20.18-63.2,69.1-63.09,109.27,0,.8,0,1.59,0,2.38-.76.37-1.53.77-2.31,1.22-16.93,9.78-30.61,33.47-30.55,52.92s13.82,27.29,30.75,17.52l128.86-74.4c23.3-13.45,42.12-46.06,42.05-72.83S255.32,46.65,232,60.1c-1.19.69-2.37,1.44-3.54,2.22C219.76,39,196.22,32.19,168.59,48.14Z"/>
          <path class="cls-3" d="M178.53,60.13c-27,15.59-48.82,53.38-48.73,84.4,0,.62,0,1.24,0,1.84-.59.29-20.72,12-21.32,12.36-13.07,7.55-23.64,25.85-23.59,40.87s10.67,21.09,23.75,13.54l119.07-68.88c18-10.39,32.54-35.58,32.48-56.26s-14.69-29-32.69-18.63c-.93.53-1.84,1.11-2.74,1.72C218.05,53,199.87,47.81,178.53,60.13Z"/>
        </g>
        <g>
          <g class="cls-4">
            <path class="cls-1" d="M331.35,131c9.89-5.71,17.94-1.12,18,10.25V241.39c0,11.37-8,25.22-17.86,30.94L157.27,372.9c-9.9,5.71-17.94,1.12-18-10.25V262.5c0-11.37,8-25.21,17.85-30.93Z"/>
          </g>
          <g class="cls-5">
            <path class="cls-1" d="M368.82,152.63c9.89-5.71,17.94-1.12,18,10.25V263c0,11.37-8,25.22-17.86,30.94L194.74,394.53c-9.9,5.71-17.94,1.12-18-10.25V284.13c0-11.37,8-25.21,17.85-30.93Z"/>
          </g>
          <path class="cls-6" d="M406.28,174.26c9.9-5.71,18-1.12,18,10.25V284.65c0,11.37-8,25.22-17.86,30.94L232.2,416.16c-9.89,5.71-17.93,1.12-18-10.25V305.76c0-11.37,7.95-25.21,17.85-30.93Z"/>
          <g>
            <path class="cls-7" d="M260.28,270.58a11.14,11.14,0,0,0-5.06,8.75c0,3.22,2.29,4.51,5.09,2.9a11.13,11.13,0,0,0,5.05-8.75C265.35,270.26,263.08,269,260.28,270.58Z"/>
            <path class="cls-8" d="M246.69,278.42a11.14,11.14,0,0,0-5.05,8.75c0,3.22,2.29,4.52,5.09,2.9a11.13,11.13,0,0,0,5.05-8.75C251.77,278.1,249.49,276.8,246.69,278.42Z"/>
            <path class="cls-9" d="M233.11,286.26a11.14,11.14,0,0,0-5.05,8.75c0,3.22,2.29,4.52,5.09,2.9a11.13,11.13,0,0,0,5-8.75C238.19,285.94,235.91,284.65,233.11,286.26Z"/>
          </g>
        </g>
        <g>
          <polygon class="cls-3" points="341.13 315.3 341.18 331.98 284.28 364.83 284.23 348.15 341.13 315.3"/>
          <polygon class="cls-3" points="367.51 271.08 367.56 287.76 310.65 320.62 310.61 303.93 367.51 271.08"/>
          <polygon class="cls-3" points="297.38 311.57 297.42 328.25 270.96 343.53 270.92 326.84 297.38 311.57"/>
          <polygon class="cls-3" points="297.29 282.63 297.34 299.31 270.88 314.59 270.83 297.9 297.29 282.63"/>
          <polygon class="cls-3" points="367.43 242.13 367.48 258.82 310.57 291.67 310.52 274.99 367.43 242.13"/>
          <polygon class="cls-3" points="271 355.79 271.05 372.47 244.59 387.75 244.54 371.07 271 355.79"/>
        </g>
      </g>
    </g>
  </g>
</svg>
