<?xml version="1.0" standalone="no"?>
<!DOCTYPE svg PUBLIC "-//W3C//DTD SVG 20010904//EN"
 "http://www.w3.org/TR/2001/REC-SVG-20010904/DTD/svg10.dtd">
<svg version="1.0" xmlns="http://www.w3.org/2000/svg"
 width="700.000000pt" height="700.000000pt" viewBox="0 0 700.000000 700.000000"
 preserveAspectRatio="xMidYMid meet">
<metadata>
Created by potrace 1.11, written by Peter Selinger 2001-2013
</metadata>
<g transform="translate(0.000000,700.000000) scale(0.100000,-0.100000)"
fill="#000000" stroke="none">
<path d="M2990 6990 c-9 -5 -15 -29 -26 -100 -3 -19 -12 -69 -19 -110 -13 -67
-57 -316 -70 -395 -3 -16 -7 -41 -10 -55 -3 -14 -9 -50 -15 -80 -6 -30 -12
-64 -14 -75 -6 -33 -19 -119 -20 -130 -1 -8 -649 -285 -669 -285 -9 0 -121 77
-549 378 -128 90 -239 166 -246 169 -13 5 -661 -632 -662 -650 0 -7 472 -690
504 -728 7 -8 21 -29 31 -46 l18 -30 -137 -329 c-76 -181 -139 -330 -141 -333
-2 -2 -26 -7 -52 -12 -57 -11 -255 -46 -333 -60 -30 -5 -66 -11 -80 -14 -14
-3 -38 -7 -55 -10 -240 -41 -431 -78 -435 -85 -4 -6 -5 -845 -1 -911 1 -12 15
-19 49 -23 26 -4 81 -13 122 -21 41 -8 89 -16 105 -18 30 -5 129 -23 175 -32
14 -3 41 -8 60 -11 19 -3 73 -12 120 -21 47 -8 96 -17 110 -19 14 -2 41 -7 60
-11 59 -11 64 -12 108 -18 49 -7 46 -1 127 -200 31 -77 68 -164 81 -193 13
-29 24 -58 24 -65 0 -7 4 -17 9 -22 8 -10 81 -188 81 -199 0 -6 -27 -47 -57
-85 -30 -39 -486 -697 -490 -707 -6 -16 646 -666 660 -657 13 7 385 266 631
439 l159 112 36 -15 c20 -8 52 -22 71 -30 64 -27 74 -32 260 -109 315 -130
302 -124 305 -145 13 -78 17 -101 25 -144 6 -27 19 -99 30 -160 11 -60 22
-120 24 -131 2 -12 7 -39 10 -60 4 -22 13 -75 21 -119 8 -44 16 -91 18 -105 3
-14 12 -69 22 -123 l17 -97 464 0 c363 0 466 3 469 13 2 6 6 28 9 48 3 20 7
42 10 50 3 8 7 32 10 54 3 22 8 51 10 65 3 14 10 52 15 85 6 33 13 71 16 85 3
14 21 113 40 220 19 107 36 204 38 215 7 32 21 109 21 119 1 5 18 15 38 22 20
7 52 19 70 28 18 8 152 64 298 124 l264 109 57 -41 c32 -22 132 -93 223 -156
299 -207 400 -278 459 -321 l59 -42 330 330 330 330 -279 400 -280 400 59 144
c33 79 65 158 73 174 7 17 41 98 75 180 34 83 67 155 73 162 7 7 39 16 72 22
33 6 69 12 80 14 18 4 37 8 135 24 14 2 50 8 80 14 30 6 66 12 80 14 14 2 63
10 110 19 47 9 99 18 115 21 17 3 86 15 155 28 l125 22 3 467 2 466 -42 8
c-24 4 -50 8 -58 9 -12 2 -159 28 -280 50 -14 3 -52 9 -85 15 -33 5 -71 12
-85 15 -14 3 -79 15 -145 26 -66 12 -127 22 -135 24 -8 2 -36 7 -62 10 -26 4
-54 13 -61 19 -8 6 -35 63 -61 126 -26 63 -51 124 -56 135 -4 11 -16 38 -25
60 -9 22 -45 108 -79 190 -62 147 -63 151 -46 175 9 14 132 189 272 390 140
201 258 370 261 377 5 7 -116 135 -319 337 -179 179 -329 326 -333 326 -6 0
-68 -43 -577 -399 -110 -77 -207 -143 -215 -146 -11 -4 -414 155 -544 215 -11
5 -46 20 -77 34 -39 17 -58 31 -59 43 0 10 -3 29 -5 43 -34 190 -55 301 -59
330 -3 19 -17 94 -30 165 -13 72 -26 141 -28 155 -10 57 -21 115 -22 120 -1 3
-5 31 -9 63 -5 31 -13 57 -20 58 -45 4 -910 3 -916 -1z m720 -1433 c14 -3 42
-8 63 -11 237 -38 523 -142 703 -256 35 -22 67 -40 72 -40 4 0 17 -8 28 -18
10 -9 48 -38 83 -64 322 -238 571 -584 705 -980 25 -74 48 -149 51 -168 3 -19
8 -42 10 -50 8 -29 16 -76 29 -180 13 -98 14 -407 2 -470 -2 -14 -10 -59 -16
-100 -43 -293 -176 -606 -369 -870 -140 -191 -346 -382 -551 -510 -89 -56
-316 -170 -338 -170 -7 0 -20 -4 -30 -9 -48 -26 -228 -77 -333 -95 -19 -3 -45
-8 -58 -10 -130 -27 -478 -28 -619 -1 -9 1 -37 6 -62 10 -145 23 -368 98 -530
179 -94 47 -266 149 -280 166 -3 4 -32 26 -65 50 -80 57 -285 265 -362 366
-212 278 -343 594 -397 956 -18 120 -18 413 0 543 61 437 266 845 578 1157
284 283 629 466 1041 554 20 5 55 10 150 24 52 7 450 5 495 -3z"/>
</g>
</svg>
