<?xml version="1.0" encoding="UTF-8"?>
<svg width="190px" height="40px" viewBox="0 0 190 40" version="1.1" xmlns="http://www.w3.org/2000/svg" xmlns:xlink="http://www.w3.org/1999/xlink">
    <!-- Generator: Sketch 50.2 (55047) - http://www.bohemiancoding.com/sketch -->
    <title>codebender-logo</title>
    <desc>Created with Sketch.</desc>
    <defs></defs>
    <g id="Page-1" stroke="none" stroke-width="1" fill="none" fill-rule="evenodd">
        <g id="codebender-logo" fill="#000000" fill-rule="nonzero">
            <g id="Codebender" transform="translate(46.666667, 8.000000)">
                <path d="M13.9946265,5.70947747 C13.4915239,5.05544403 12.8542701,4.55234897 12.0828461,4.20017715 C11.3114221,3.84800532 10.5148551,3.67192205 9.6931208,3.67192205 C8.6869156,3.67192205 7.777152,3.86058271 6.9638028,4.23790965 C6.1504536,4.61523661 5.45450547,5.13090904 4.87593747,5.7849424 C4.29736947,6.43897587 3.84877627,7.20619573 3.53014467,8.08662533 C3.21151307,8.96705493 3.0521996,9.91035813 3.0521996,10.9165633 C3.0521996,11.8556881 3.20312813,12.7444895 3.5049896,13.5829937 C3.8068512,14.4214981 4.24286693,15.1593709 4.81304987,15.7966341 C5.3832328,16.4338975 6.07918107,16.9369925 6.9009152,17.3059344 C7.72264947,17.6748764 8.65337533,17.8593445 9.6931208,17.8593445 C10.716096,17.8593445 11.6132823,17.6497216 12.3847063,17.2304695 C13.1561303,16.8112173 13.8101537,16.2242731 14.3467965,15.4696191 L16.384352,17.0040744 C16.2501912,17.1885453 16.0154136,17.4526703 15.6800119,17.7964571 C15.3446101,18.1402439 14.9002095,18.4840255 14.3467965,18.8278123 C13.7933837,19.1715991 13.1267828,19.473456 12.3469737,19.7333924 C11.5671647,19.9933287 10.665786,20.1232949 9.6428108,20.1232949 C8.23412347,20.1232949 6.9638084,19.8549776 5.8318276,19.3183348 C4.69984667,18.781692 3.7355812,18.0773589 2.93900213,17.2053144 C2.14242293,16.3332699 1.5345164,15.3480421 1.11526427,14.2496015 C0.696012133,13.1511607 0.4863892,12.0401592 0.4863892,10.9165633 C0.4863892,9.54141627 0.712781867,8.2711012 1.16557427,7.10558013 C1.61836653,5.94005907 2.25142787,4.93386901 3.06477707,4.08697963 C3.87812627,3.24009024 4.8549692,2.58187421 5.99533507,2.11231179 C7.13570107,1.64274935 8.39343867,1.40797165 9.76858573,1.40797165 C10.9424919,1.40797165 12.095418,1.63436443 13.2273989,2.08715677 C14.3593797,2.53994912 15.2859132,3.23589728 16.0070269,4.17502215 L13.9946265,5.70947747 Z M18.1452023,13.7087688 C18.1452023,12.8367243 18.3087081,12.0233873 18.6357248,11.2687333 C18.9627415,10.5140795 19.4113347,9.85167093 19.9815176,9.281488 C20.5517005,8.71130507 21.2224939,8.262712 21.9939179,7.93569533 C22.7653419,7.60867867 23.5954488,7.44517267 24.4842633,7.44517267 C25.373078,7.44517267 26.2031848,7.60867867 26.9746088,7.93569533 C27.7460328,8.262712 28.4168263,8.71130507 28.9870092,9.281488 C29.5571921,9.85167093 30.0057852,10.5140795 30.3328019,11.2687333 C30.6598185,12.0233873 30.8233245,12.8367243 30.8233245,13.7087688 C30.8233245,14.5808133 30.6598185,15.3983428 30.3328019,16.1613817 C30.0057852,16.9244207 29.5571921,17.5868292 28.9870092,18.1486271 C28.4168263,18.7104251 27.7460328,19.1548256 26.9746088,19.4818424 C26.2031848,19.8088591 25.373078,19.9723649 24.4842633,19.9723649 C23.5954488,19.9723649 22.7653419,19.8088591 21.9939179,19.4818424 C21.2224939,19.1548256 20.5517005,18.7104251 19.9815176,18.1486271 C19.4113347,17.5868292 18.9627415,16.9244207 18.6357248,16.1613817 C18.3087081,15.3983428 18.1452023,14.5808133 18.1452023,13.7087688 Z M20.5600827,13.7087688 C20.5600827,14.312492 20.6523168,14.8700889 20.8367877,15.3815767 C21.0212587,15.8930643 21.2811911,16.32908 21.6165928,16.6896368 C21.9519945,17.0501937 22.3628556,17.3352809 22.8491881,17.5449069 C23.3355205,17.7545331 23.8805403,17.8593445 24.4842633,17.8593445 C25.0879865,17.8593445 25.6330061,17.7545331 26.1193387,17.5449069 C26.6056712,17.3352809 27.0165321,17.0501937 27.3519339,16.6896368 C27.6873356,16.32908 27.947268,15.8930643 28.1317391,15.3815767 C28.31621,14.8700889 28.408444,14.312492 28.408444,13.7087688 C28.408444,13.1050457 28.31621,12.5474487 28.1317391,12.0359611 C27.947268,11.5244733 27.6873356,11.0884576 27.3519339,10.7279008 C27.0165321,10.3673439 26.6056712,10.0822567 26.1193387,9.87263067 C25.6330061,9.66300453 25.0879865,9.55819307 24.4842633,9.55819307 C23.8805403,9.55819307 23.3355205,9.66300453 22.8491881,9.87263067 C22.3628556,10.0822567 21.9519945,10.3673439 21.6165928,10.7279008 C21.2811911,11.0884576 21.0212587,11.5244733 20.8367877,12.0359611 C20.6523168,12.5474487 20.5600827,13.1050457 20.5600827,13.7087688 Z M45.6144671,19.6705049 L43.3505167,19.6705049 L43.3505167,17.9599645 L43.3002067,17.9599645 C42.8641844,18.5972279 42.2646628,19.091938 41.5016239,19.4441099 C40.7385849,19.7962816 39.9545951,19.9723649 39.1496309,19.9723649 C38.2272761,19.9723649 37.3929768,19.8130515 36.646708,19.4944199 C35.9004392,19.1757881 35.2631853,18.7313876 34.7349276,18.1612047 C34.2066699,17.5910216 33.8000015,16.9286132 33.51491,16.1739592 C33.2298185,15.4193053 33.0872749,14.5975835 33.0872749,13.7087688 C33.0872749,12.8199543 33.2298185,11.9940399 33.51491,11.2310009 C33.8000015,10.467962 34.2066699,9.80555347 34.7349276,9.2437556 C35.2631853,8.6819576 35.9004392,8.24174947 36.646708,7.92311787 C37.3929768,7.60448613 38.2272761,7.44517267 39.1496309,7.44517267 C40.0049053,7.44517267 40.8098575,7.6254484 41.5645113,7.98600533 C42.3191653,8.34656213 42.8977245,8.83707987 43.3002067,9.45757307 L43.3505167,9.45757307 L43.3505167,0.65332152 L45.6144671,0.65332152 L45.6144671,19.6705049 Z M39.426336,17.8593445 C40.0300591,17.8593445 40.5750788,17.7545331 41.0614113,17.5449069 C41.5477437,17.3352809 41.9586048,17.0501937 42.2940065,16.6896368 C42.6294083,16.32908 42.8893407,15.8930643 43.0738116,15.3815767 C43.2582825,14.8700889 43.3505167,14.312492 43.3505167,13.7087688 C43.3505167,13.1050457 43.2582825,12.5474487 43.0738116,12.0359611 C42.8893407,11.5244733 42.6294083,11.0884576 42.2940065,10.7279008 C41.9586048,10.3673439 41.5477437,10.0822567 41.0614113,9.87263067 C40.5750788,9.66300453 40.0300591,9.55819307 39.426336,9.55819307 C38.8226128,9.55819307 38.2775932,9.66300453 37.7912607,9.87263067 C37.3049281,10.0822567 36.8940672,10.3673439 36.5586655,10.7279008 C36.2232637,11.0884576 35.9633313,11.5244733 35.7788604,12.0359611 C35.5943893,12.5474487 35.5021553,13.1050457 35.5021553,13.7087688 C35.5021553,14.312492 35.5943893,14.8700889 35.7788604,15.3815767 C35.9633313,15.8930643 36.2232637,16.32908 36.5586655,16.6896368 C36.8940672,17.0501937 37.3049281,17.3352809 37.7912607,17.5449069 C38.2775932,17.7545331 38.8226128,17.8593445 39.426336,17.8593445 Z M50.746088,14.538884 C50.746088,15.0587567 50.8592844,15.5325045 51.0856805,15.9601417 C51.3120767,16.3877789 51.6097413,16.7525228 51.9786832,17.0543844 C52.3476251,17.356246 52.7752559,17.5910237 53.2615884,17.7587245 C53.7479209,17.9264255 54.251016,18.0102745 54.7708887,18.0102745 C55.4752324,18.0102745 56.0873313,17.8467687 56.607204,17.519752 C57.1270767,17.1927353 57.6050171,16.760912 58.0410393,16.2242692 L59.7515796,17.5323295 C58.4938231,19.1590279 56.7329904,19.9723649 54.4690287,19.9723649 C53.5299037,19.9723649 52.6788347,19.8130515 51.9157957,19.4944199 C51.1527568,19.1757881 50.5071181,18.73558 49.9788604,18.1737821 C49.4506027,17.6119843 49.0439341,16.9495757 48.7588427,16.1865368 C48.4737512,15.4234979 48.3312076,14.5975835 48.3312076,13.7087688 C48.3312076,12.8199543 48.4863285,11.9940399 48.7965752,11.2310009 C49.1068217,10.467962 49.5344525,9.80555347 50.0794804,9.2437556 C50.6245081,8.6819576 51.2743393,8.24174947 52.0289932,7.92311787 C52.7836471,7.60448613 53.6053691,7.44517267 54.4941836,7.44517267 C55.5506991,7.44517267 56.4436928,7.62964093 57.1731916,7.9985828 C57.9026904,8.36752467 58.502212,8.84965747 58.9717744,9.4449956 C59.4413368,10.0403336 59.780926,10.7111271 59.9905521,11.4573959 C60.2001781,12.2036648 60.3049896,12.9624999 60.3049896,13.7339239 L60.3049896,14.538884 L50.746088,14.538884 Z M57.8901092,12.7277236 C57.8733392,12.2246211 57.7936824,11.7634505 57.6511367,11.3441984 C57.5085909,10.9249463 57.2947756,10.5602023 57.0096841,10.2499557 C56.7245927,9.93970907 56.3682336,9.69654653 55.9405964,9.52046053 C55.5129592,9.34437467 55.0140565,9.25633307 54.4438736,9.25633307 C53.8904608,9.25633307 53.3831732,9.36114453 52.9219959,9.57077053 C52.4608185,9.78039667 52.0709199,10.0529065 51.7522881,10.3883083 C51.4336565,10.72371 51.1863015,11.0968388 51.0102155,11.507706 C50.8341296,11.9185731 50.746088,12.3252416 50.746088,12.7277236 L57.8901092,12.7277236 Z M63.0217301,0.65332152 L65.2856805,0.65332152 L65.2856805,9.45757307 L65.3359905,9.45757307 C65.7384727,8.83707987 66.317032,8.34656213 67.0716859,7.98600533 C67.8263397,7.6254484 68.6312919,7.44517267 69.4865663,7.44517267 C70.4089211,7.44517267 71.2432204,7.60448613 71.9894892,7.92311787 C72.7357581,8.24174947 73.3730119,8.6819576 73.9012696,9.2437556 C74.4295273,9.80555347 74.8361957,10.467962 75.1212873,11.2310009 C75.4063788,11.9940399 75.5489224,12.8199543 75.5489224,13.7087688 C75.5489224,14.5975835 75.4063788,15.4193053 75.1212873,16.1739592 C74.8361957,16.9286132 74.4295273,17.5910216 73.9012696,18.1612047 C73.3730119,18.7313876 72.7357581,19.1757881 71.9894892,19.4944199 C71.2432204,19.8130515 70.4089211,19.9723649 69.4865663,19.9723649 C68.6816021,19.9723649 67.8976123,19.7962816 67.1345733,19.4441099 C66.3715344,19.091938 65.7720128,18.5972279 65.3359905,17.9599645 L65.2856805,17.9599645 L65.2856805,19.6705049 L63.0217301,19.6705049 L63.0217301,0.65332152 Z M69.2098612,17.8593445 C69.8135844,17.8593445 70.358604,17.7545331 70.8449365,17.5449069 C71.3312691,17.3352809 71.74213,17.0501937 72.0775317,16.6896368 C72.4129335,16.32908 72.6728659,15.8930643 72.8573369,15.3815767 C73.0418079,14.8700889 73.1340419,14.312492 73.1340419,13.7087688 C73.1340419,13.1050457 73.0418079,12.5474487 72.8573369,12.0359611 C72.6728659,11.5244733 72.4129335,11.0884576 72.0775317,10.7279008 C71.74213,10.3673439 71.3312691,10.0822567 70.8449365,9.87263067 C70.358604,9.66300453 69.8135844,9.55819307 69.2098612,9.55819307 C68.6061381,9.55819307 68.0611184,9.66300453 67.574786,9.87263067 C67.0884535,10.0822567 66.6775924,10.3673439 66.3421907,10.7279008 C66.0067889,11.0884576 65.7468565,11.5244733 65.5623856,12.0359611 C65.3779147,12.5474487 65.2856805,13.1050457 65.2856805,13.7087688 C65.2856805,14.312492 65.3779147,14.8700889 65.5623856,15.3815767 C65.7468565,15.8930643 66.0067889,16.32908 66.3421907,16.6896368 C66.6775924,17.0501937 67.0884535,17.3352809 67.574786,17.5449069 C68.0611184,17.7545331 68.6061381,17.8593445 69.2098612,17.8593445 Z M80.1019781,14.538884 C80.1019781,15.0587567 80.2151745,15.5325045 80.4415707,15.9601417 C80.6679669,16.3877789 80.9656315,16.7525228 81.3345733,17.0543844 C81.7035153,17.356246 82.1311461,17.5910237 82.6174785,17.7587245 C83.1038111,17.9264255 83.6069061,18.0102745 84.1267788,18.0102745 C84.8311225,18.0102745 85.4432215,17.8467687 85.9630941,17.519752 C86.4829669,17.1927353 86.9609067,16.760912 87.3969293,16.2242692 L89.1074693,17.5323295 C87.8497133,19.1590279 86.0888805,19.9723649 83.8249188,19.9723649 C82.885794,19.9723649 82.0347248,19.8130515 81.2716859,19.4944199 C80.5086469,19.1757881 79.8630083,18.73558 79.3347505,18.1737821 C78.8064928,17.6119843 78.3998243,16.9495757 78.1147328,16.1865368 C77.8296413,15.4234979 77.6870977,14.5975835 77.6870977,13.7087688 C77.6870977,12.8199543 77.8422187,11.9940399 78.1524653,11.2310009 C78.4627119,10.467962 78.8903427,9.80555347 79.4353705,9.2437556 C79.9803984,8.6819576 80.6302295,8.24174947 81.3848833,7.92311787 C82.1395373,7.60448613 82.9612592,7.44517267 83.8500739,7.44517267 C84.9065893,7.44517267 85.7995831,7.62964093 86.5290817,7.9985828 C87.25858,8.36752467 87.8581027,8.84965747 88.327664,9.4449956 C88.7972267,10.0403336 89.136816,10.7111271 89.3464427,11.4573959 C89.556068,12.2036648 89.66088,12.9624999 89.66088,13.7339239 L89.66088,14.538884 L80.1019781,14.538884 Z M87.246,12.7277236 C87.2292293,12.2246211 87.149572,11.7634505 87.0070267,11.3441984 C86.8644813,10.9249463 86.6506657,10.5602023 86.3655743,10.2499557 C86.0804828,9.93970907 85.7241237,9.69654653 85.2964865,9.52046053 C84.8688493,9.34437467 84.3699468,9.25633307 83.7997639,9.25633307 C83.2463509,9.25633307 82.7390635,9.36114453 82.277886,9.57077053 C81.8167087,9.78039667 81.42681,10.0529065 81.1081783,10.3883083 C80.7895467,10.72371 80.5421916,11.0968388 80.3661057,11.507706 C80.1900197,11.9185731 80.1019781,12.3252416 80.1019781,12.7277236 L87.246,12.7277236 Z M92.37762,7.7470328 L94.6415707,7.7470328 L94.6415707,9.58334813 L94.6918813,9.58334813 C94.976972,8.9460848 95.4716827,8.4304124 96.1760253,8.03631533 C96.8803693,7.64221827 97.6937067,7.44517267 98.6160613,7.44517267 C99.186244,7.44517267 99.735456,7.5332144 100.263715,7.70930027 C100.791972,7.88538613 101.253143,8.157896 101.64724,8.52683787 C102.041336,8.89577987 102.355771,9.3695276 102.590552,9.9480956 C102.825333,10.5266636 102.942723,11.2100344 102.942723,11.9982285 L102.942723,19.6705049 L100.678772,19.6705049 L100.678772,12.6271036 C100.678772,12.0736908 100.603308,11.5999429 100.452377,11.2058459 C100.301445,10.8117488 100.100208,10.493122 99.848656,10.2499557 C99.5971053,10.0067895 99.3078253,9.83070613 98.9808093,9.72170067 C98.653792,9.61269507 98.3142027,9.55819307 97.9620307,9.55819307 C97.4924693,9.55819307 97.0564533,9.63365733 96.6539707,9.78458813 C96.2514893,9.93551893 95.8993227,10.1744891 95.5974613,10.5015057 C95.2955987,10.8285224 95.0608213,11.2435759 94.8931213,11.7466785 C94.72542,12.2497811 94.6415707,12.8451103 94.6415707,13.5326837 L94.6415707,19.6705049 L92.37762,19.6705049 L92.37762,7.7470328 Z M118.312429,19.6705049 L116.04848,19.6705049 L116.04848,17.9599645 L115.998169,17.9599645 C115.562147,18.5972279 114.962625,19.091938 114.199587,19.4441099 C113.436548,19.7962816 112.652557,19.9723649 111.847593,19.9723649 C110.925239,19.9723649 110.09094,19.8130515 109.344671,19.4944199 C108.598401,19.1757881 107.961148,18.7313876 107.432891,18.1612047 C106.904633,17.5910216 106.497964,16.9286132 106.212873,16.1739592 C105.927781,15.4193053 105.785237,14.5975835 105.785237,13.7087688 C105.785237,12.8199543 105.927781,11.9940399 106.212873,11.2310009 C106.497964,10.467962 106.904633,9.80555347 107.432891,9.2437556 C107.961148,8.6819576 108.598401,8.24174947 109.344671,7.92311787 C110.09094,7.60448613 110.925239,7.44517267 111.847593,7.44517267 C112.702868,7.44517267 113.50782,7.6254484 114.262475,7.98600533 C115.017128,8.34656213 115.595688,8.83707987 115.998169,9.45757307 L116.04848,9.45757307 L116.04848,0.65332152 L118.312429,0.65332152 L118.312429,19.6705049 Z M112.124299,17.8593445 C112.728021,17.8593445 113.273041,17.7545331 113.759375,17.5449069 C114.245707,17.3352809 114.656568,17.0501937 114.991969,16.6896368 C115.327371,16.32908 115.587304,15.8930643 115.771775,15.3815767 C115.956245,14.8700889 116.04848,14.312492 116.04848,13.7087688 C116.04848,13.1050457 115.956245,12.5474487 115.771775,12.0359611 C115.587304,11.5244733 115.327371,11.0884576 114.991969,10.7279008 C114.656568,10.3673439 114.245707,10.0822567 113.759375,9.87263067 C113.273041,9.66300453 112.728021,9.55819307 112.124299,9.55819307 C111.520576,9.55819307 110.975556,9.66300453 110.489224,9.87263067 C110.002891,10.0822567 109.592031,10.3673439 109.256628,10.7279008 C108.921227,11.0884576 108.661295,11.5244733 108.476823,12.0359611 C108.292352,12.5474487 108.200119,13.1050457 108.200119,13.7087688 C108.200119,14.312492 108.292352,14.8700889 108.476823,15.3815767 C108.661295,15.8930643 108.921227,16.32908 109.256628,16.6896368 C109.592031,17.0501937 110.002891,17.3352809 110.489224,17.5449069 C110.975556,17.7545331 111.520576,17.8593445 112.124299,17.8593445 Z M123.444051,14.538884 C123.444051,15.0587567 123.557247,15.5325045 123.783644,15.9601417 C124.01004,16.3877789 124.307704,16.7525228 124.676645,17.0543844 C125.045588,17.356246 125.473219,17.5910237 125.959551,17.7587245 C126.445884,17.9264255 126.948979,18.0102745 127.468852,18.0102745 C128.173195,18.0102745 128.785295,17.8467687 129.305167,17.519752 C129.82504,17.1927353 130.30298,16.760912 130.739003,16.2242692 L132.449543,17.5323295 C131.191785,19.1590279 129.430953,19.9723649 127.166992,19.9723649 C126.227867,19.9723649 125.376797,19.8130515 124.613759,19.4944199 C123.85072,19.1757881 123.205081,18.73558 122.676823,18.1737821 C122.148565,17.6119843 121.741897,16.9495757 121.456805,16.1865368 C121.171713,15.4234979 121.029171,14.5975835 121.029171,13.7087688 C121.029171,12.8199543 121.184291,11.9940399 121.494537,11.2310009 C121.804784,10.467962 122.232416,9.80555347 122.777443,9.2437556 C123.322471,8.6819576 123.972303,8.24174947 124.726956,7.92311787 C125.481609,7.60448613 126.303332,7.44517267 127.192147,7.44517267 C128.248661,7.44517267 129.141656,7.62964093 129.871155,7.9985828 C130.600653,8.36752467 131.200175,8.84965747 131.669737,9.4449956 C132.1393,10.0403336 132.478889,10.7111271 132.688515,11.4573959 C132.898141,12.2036648 133.002952,12.9624999 133.002952,13.7339239 L133.002952,14.538884 L123.444051,14.538884 Z M130.588072,12.7277236 C130.571301,12.2246211 130.491645,11.7634505 130.3491,11.3441984 C130.206553,10.9249463 129.992739,10.5602023 129.707647,10.2499557 C129.422556,9.93970907 129.066196,9.69654653 128.638559,9.52046053 C128.210921,9.34437467 127.71202,9.25633307 127.141836,9.25633307 C126.588424,9.25633307 126.081136,9.36114453 125.619959,9.57077053 C125.158781,9.78039667 124.768883,10.0529065 124.450251,10.3883083 C124.131619,10.72371 123.884264,11.0968388 123.708179,11.507706 C123.532092,11.9185731 123.444051,12.3252416 123.444051,12.7277236 L130.588072,12.7277236 Z M135.719693,7.7470328 L137.983644,7.7470328 L137.983644,9.58334813 L138.033953,9.58334813 C138.184884,9.2647164 138.386123,8.9754368 138.637673,8.7155004 C138.889225,8.45556413 139.17012,8.23336373 139.480367,8.0488928 C139.790613,7.86442187 140.130201,7.71768587 140.499144,7.60868027 C140.868085,7.49967467 141.237023,7.44517267 141.605964,7.44517267 C141.974905,7.44517267 142.310303,7.49548227 142.612164,7.5961028 L142.511544,10.0361381 C142.327073,9.98582787 142.142605,9.94390333 141.958135,9.9103632 C141.773663,9.87682293 141.589195,9.8600532 141.404724,9.8600532 C140.297899,9.8600532 139.451021,10.1702951 138.864068,10.7907883 C138.277116,11.4112815 137.983644,12.3755471 137.983644,13.6836139 L137.983644,19.6705049 L135.719693,19.6705049 L135.719693,7.7470328 Z" id="path-1"></path>
                <path d="M13.9946265,5.70947747 C13.4915239,5.05544403 12.8542701,4.55234897 12.0828461,4.20017715 C11.3114221,3.84800532 10.5148551,3.67192205 9.6931208,3.67192205 C8.6869156,3.67192205 7.777152,3.86058271 6.9638028,4.23790965 C6.1504536,4.61523661 5.45450547,5.13090904 4.87593747,5.7849424 C4.29736947,6.43897587 3.84877627,7.20619573 3.53014467,8.08662533 C3.21151307,8.96705493 3.0521996,9.91035813 3.0521996,10.9165633 C3.0521996,11.8556881 3.20312813,12.7444895 3.5049896,13.5829937 C3.8068512,14.4214981 4.24286693,15.1593709 4.81304987,15.7966341 C5.3832328,16.4338975 6.07918107,16.9369925 6.9009152,17.3059344 C7.72264947,17.6748764 8.65337533,17.8593445 9.6931208,17.8593445 C10.716096,17.8593445 11.6132823,17.6497216 12.3847063,17.2304695 C13.1561303,16.8112173 13.8101537,16.2242731 14.3467965,15.4696191 L16.384352,17.0040744 C16.2501912,17.1885453 16.0154136,17.4526703 15.6800119,17.7964571 C15.3446101,18.1402439 14.9002095,18.4840255 14.3467965,18.8278123 C13.7933837,19.1715991 13.1267828,19.473456 12.3469737,19.7333924 C11.5671647,19.9933287 10.665786,20.1232949 9.6428108,20.1232949 C8.23412347,20.1232949 6.9638084,19.8549776 5.8318276,19.3183348 C4.69984667,18.781692 3.7355812,18.0773589 2.93900213,17.2053144 C2.14242293,16.3332699 1.5345164,15.3480421 1.11526427,14.2496015 C0.696012133,13.1511607 0.4863892,12.0401592 0.4863892,10.9165633 C0.4863892,9.54141627 0.712781867,8.2711012 1.16557427,7.10558013 C1.61836653,5.94005907 2.25142787,4.93386901 3.06477707,4.08697963 C3.87812627,3.24009024 4.8549692,2.58187421 5.99533507,2.11231179 C7.13570107,1.64274935 8.39343867,1.40797165 9.76858573,1.40797165 C10.9424919,1.40797165 12.095418,1.63436443 13.2273989,2.08715677 C14.3593797,2.53994912 15.2859132,3.23589728 16.0070269,4.17502215 L13.9946265,5.70947747 Z M18.1452023,13.7087688 C18.1452023,12.8367243 18.3087081,12.0233873 18.6357248,11.2687333 C18.9627415,10.5140795 19.4113347,9.85167093 19.9815176,9.281488 C20.5517005,8.71130507 21.2224939,8.262712 21.9939179,7.93569533 C22.7653419,7.60867867 23.5954488,7.44517267 24.4842633,7.44517267 C25.373078,7.44517267 26.2031848,7.60867867 26.9746088,7.93569533 C27.7460328,8.262712 28.4168263,8.71130507 28.9870092,9.281488 C29.5571921,9.85167093 30.0057852,10.5140795 30.3328019,11.2687333 C30.6598185,12.0233873 30.8233245,12.8367243 30.8233245,13.7087688 C30.8233245,14.5808133 30.6598185,15.3983428 30.3328019,16.1613817 C30.0057852,16.9244207 29.5571921,17.5868292 28.9870092,18.1486271 C28.4168263,18.7104251 27.7460328,19.1548256 26.9746088,19.4818424 C26.2031848,19.8088591 25.373078,19.9723649 24.4842633,19.9723649 C23.5954488,19.9723649 22.7653419,19.8088591 21.9939179,19.4818424 C21.2224939,19.1548256 20.5517005,18.7104251 19.9815176,18.1486271 C19.4113347,17.5868292 18.9627415,16.9244207 18.6357248,16.1613817 C18.3087081,15.3983428 18.1452023,14.5808133 18.1452023,13.7087688 Z M20.5600827,13.7087688 C20.5600827,14.312492 20.6523168,14.8700889 20.8367877,15.3815767 C21.0212587,15.8930643 21.2811911,16.32908 21.6165928,16.6896368 C21.9519945,17.0501937 22.3628556,17.3352809 22.8491881,17.5449069 C23.3355205,17.7545331 23.8805403,17.8593445 24.4842633,17.8593445 C25.0879865,17.8593445 25.6330061,17.7545331 26.1193387,17.5449069 C26.6056712,17.3352809 27.0165321,17.0501937 27.3519339,16.6896368 C27.6873356,16.32908 27.947268,15.8930643 28.1317391,15.3815767 C28.31621,14.8700889 28.408444,14.312492 28.408444,13.7087688 C28.408444,13.1050457 28.31621,12.5474487 28.1317391,12.0359611 C27.947268,11.5244733 27.6873356,11.0884576 27.3519339,10.7279008 C27.0165321,10.3673439 26.6056712,10.0822567 26.1193387,9.87263067 C25.6330061,9.66300453 25.0879865,9.55819307 24.4842633,9.55819307 C23.8805403,9.55819307 23.3355205,9.66300453 22.8491881,9.87263067 C22.3628556,10.0822567 21.9519945,10.3673439 21.6165928,10.7279008 C21.2811911,11.0884576 21.0212587,11.5244733 20.8367877,12.0359611 C20.6523168,12.5474487 20.5600827,13.1050457 20.5600827,13.7087688 Z M45.6144671,19.6705049 L43.3505167,19.6705049 L43.3505167,17.9599645 L43.3002067,17.9599645 C42.8641844,18.5972279 42.2646628,19.091938 41.5016239,19.4441099 C40.7385849,19.7962816 39.9545951,19.9723649 39.1496309,19.9723649 C38.2272761,19.9723649 37.3929768,19.8130515 36.646708,19.4944199 C35.9004392,19.1757881 35.2631853,18.7313876 34.7349276,18.1612047 C34.2066699,17.5910216 33.8000015,16.9286132 33.51491,16.1739592 C33.2298185,15.4193053 33.0872749,14.5975835 33.0872749,13.7087688 C33.0872749,12.8199543 33.2298185,11.9940399 33.51491,11.2310009 C33.8000015,10.467962 34.2066699,9.80555347 34.7349276,9.2437556 C35.2631853,8.6819576 35.9004392,8.24174947 36.646708,7.92311787 C37.3929768,7.60448613 38.2272761,7.44517267 39.1496309,7.44517267 C40.0049053,7.44517267 40.8098575,7.6254484 41.5645113,7.98600533 C42.3191653,8.34656213 42.8977245,8.83707987 43.3002067,9.45757307 L43.3505167,9.45757307 L43.3505167,0.65332152 L45.6144671,0.65332152 L45.6144671,19.6705049 Z M39.426336,17.8593445 C40.0300591,17.8593445 40.5750788,17.7545331 41.0614113,17.5449069 C41.5477437,17.3352809 41.9586048,17.0501937 42.2940065,16.6896368 C42.6294083,16.32908 42.8893407,15.8930643 43.0738116,15.3815767 C43.2582825,14.8700889 43.3505167,14.312492 43.3505167,13.7087688 C43.3505167,13.1050457 43.2582825,12.5474487 43.0738116,12.0359611 C42.8893407,11.5244733 42.6294083,11.0884576 42.2940065,10.7279008 C41.9586048,10.3673439 41.5477437,10.0822567 41.0614113,9.87263067 C40.5750788,9.66300453 40.0300591,9.55819307 39.426336,9.55819307 C38.8226128,9.55819307 38.2775932,9.66300453 37.7912607,9.87263067 C37.3049281,10.0822567 36.8940672,10.3673439 36.5586655,10.7279008 C36.2232637,11.0884576 35.9633313,11.5244733 35.7788604,12.0359611 C35.5943893,12.5474487 35.5021553,13.1050457 35.5021553,13.7087688 C35.5021553,14.312492 35.5943893,14.8700889 35.7788604,15.3815767 C35.9633313,15.8930643 36.2232637,16.32908 36.5586655,16.6896368 C36.8940672,17.0501937 37.3049281,17.3352809 37.7912607,17.5449069 C38.2775932,17.7545331 38.8226128,17.8593445 39.426336,17.8593445 Z M50.746088,14.538884 C50.746088,15.0587567 50.8592844,15.5325045 51.0856805,15.9601417 C51.3120767,16.3877789 51.6097413,16.7525228 51.9786832,17.0543844 C52.3476251,17.356246 52.7752559,17.5910237 53.2615884,17.7587245 C53.7479209,17.9264255 54.251016,18.0102745 54.7708887,18.0102745 C55.4752324,18.0102745 56.0873313,17.8467687 56.607204,17.519752 C57.1270767,17.1927353 57.6050171,16.760912 58.0410393,16.2242692 L59.7515796,17.5323295 C58.4938231,19.1590279 56.7329904,19.9723649 54.4690287,19.9723649 C53.5299037,19.9723649 52.6788347,19.8130515 51.9157957,19.4944199 C51.1527568,19.1757881 50.5071181,18.73558 49.9788604,18.1737821 C49.4506027,17.6119843 49.0439341,16.9495757 48.7588427,16.1865368 C48.4737512,15.4234979 48.3312076,14.5975835 48.3312076,13.7087688 C48.3312076,12.8199543 48.4863285,11.9940399 48.7965752,11.2310009 C49.1068217,10.467962 49.5344525,9.80555347 50.0794804,9.2437556 C50.6245081,8.6819576 51.2743393,8.24174947 52.0289932,7.92311787 C52.7836471,7.60448613 53.6053691,7.44517267 54.4941836,7.44517267 C55.5506991,7.44517267 56.4436928,7.62964093 57.1731916,7.9985828 C57.9026904,8.36752467 58.502212,8.84965747 58.9717744,9.4449956 C59.4413368,10.0403336 59.780926,10.7111271 59.9905521,11.4573959 C60.2001781,12.2036648 60.3049896,12.9624999 60.3049896,13.7339239 L60.3049896,14.538884 L50.746088,14.538884 Z M57.8901092,12.7277236 C57.8733392,12.2246211 57.7936824,11.7634505 57.6511367,11.3441984 C57.5085909,10.9249463 57.2947756,10.5602023 57.0096841,10.2499557 C56.7245927,9.93970907 56.3682336,9.69654653 55.9405964,9.52046053 C55.5129592,9.34437467 55.0140565,9.25633307 54.4438736,9.25633307 C53.8904608,9.25633307 53.3831732,9.36114453 52.9219959,9.57077053 C52.4608185,9.78039667 52.0709199,10.0529065 51.7522881,10.3883083 C51.4336565,10.72371 51.1863015,11.0968388 51.0102155,11.507706 C50.8341296,11.9185731 50.746088,12.3252416 50.746088,12.7277236 L57.8901092,12.7277236 Z M63.0217301,0.65332152 L65.2856805,0.65332152 L65.2856805,9.45757307 L65.3359905,9.45757307 C65.7384727,8.83707987 66.317032,8.34656213 67.0716859,7.98600533 C67.8263397,7.6254484 68.6312919,7.44517267 69.4865663,7.44517267 C70.4089211,7.44517267 71.2432204,7.60448613 71.9894892,7.92311787 C72.7357581,8.24174947 73.3730119,8.6819576 73.9012696,9.2437556 C74.4295273,9.80555347 74.8361957,10.467962 75.1212873,11.2310009 C75.4063788,11.9940399 75.5489224,12.8199543 75.5489224,13.7087688 C75.5489224,14.5975835 75.4063788,15.4193053 75.1212873,16.1739592 C74.8361957,16.9286132 74.4295273,17.5910216 73.9012696,18.1612047 C73.3730119,18.7313876 72.7357581,19.1757881 71.9894892,19.4944199 C71.2432204,19.8130515 70.4089211,19.9723649 69.4865663,19.9723649 C68.6816021,19.9723649 67.8976123,19.7962816 67.1345733,19.4441099 C66.3715344,19.091938 65.7720128,18.5972279 65.3359905,17.9599645 L65.2856805,17.9599645 L65.2856805,19.6705049 L63.0217301,19.6705049 L63.0217301,0.65332152 Z M69.2098612,17.8593445 C69.8135844,17.8593445 70.358604,17.7545331 70.8449365,17.5449069 C71.3312691,17.3352809 71.74213,17.0501937 72.0775317,16.6896368 C72.4129335,16.32908 72.6728659,15.8930643 72.8573369,15.3815767 C73.0418079,14.8700889 73.1340419,14.312492 73.1340419,13.7087688 C73.1340419,13.1050457 73.0418079,12.5474487 72.8573369,12.0359611 C72.6728659,11.5244733 72.4129335,11.0884576 72.0775317,10.7279008 C71.74213,10.3673439 71.3312691,10.0822567 70.8449365,9.87263067 C70.358604,9.66300453 69.8135844,9.55819307 69.2098612,9.55819307 C68.6061381,9.55819307 68.0611184,9.66300453 67.574786,9.87263067 C67.0884535,10.0822567 66.6775924,10.3673439 66.3421907,10.7279008 C66.0067889,11.0884576 65.7468565,11.5244733 65.5623856,12.0359611 C65.3779147,12.5474487 65.2856805,13.1050457 65.2856805,13.7087688 C65.2856805,14.312492 65.3779147,14.8700889 65.5623856,15.3815767 C65.7468565,15.8930643 66.0067889,16.32908 66.3421907,16.6896368 C66.6775924,17.0501937 67.0884535,17.3352809 67.574786,17.5449069 C68.0611184,17.7545331 68.6061381,17.8593445 69.2098612,17.8593445 Z M80.1019781,14.538884 C80.1019781,15.0587567 80.2151745,15.5325045 80.4415707,15.9601417 C80.6679669,16.3877789 80.9656315,16.7525228 81.3345733,17.0543844 C81.7035153,17.356246 82.1311461,17.5910237 82.6174785,17.7587245 C83.1038111,17.9264255 83.6069061,18.0102745 84.1267788,18.0102745 C84.8311225,18.0102745 85.4432215,17.8467687 85.9630941,17.519752 C86.4829669,17.1927353 86.9609067,16.760912 87.3969293,16.2242692 L89.1074693,17.5323295 C87.8497133,19.1590279 86.0888805,19.9723649 83.8249188,19.9723649 C82.885794,19.9723649 82.0347248,19.8130515 81.2716859,19.4944199 C80.5086469,19.1757881 79.8630083,18.73558 79.3347505,18.1737821 C78.8064928,17.6119843 78.3998243,16.9495757 78.1147328,16.1865368 C77.8296413,15.4234979 77.6870977,14.5975835 77.6870977,13.7087688 C77.6870977,12.8199543 77.8422187,11.9940399 78.1524653,11.2310009 C78.4627119,10.467962 78.8903427,9.80555347 79.4353705,9.2437556 C79.9803984,8.6819576 80.6302295,8.24174947 81.3848833,7.92311787 C82.1395373,7.60448613 82.9612592,7.44517267 83.8500739,7.44517267 C84.9065893,7.44517267 85.7995831,7.62964093 86.5290817,7.9985828 C87.25858,8.36752467 87.8581027,8.84965747 88.327664,9.4449956 C88.7972267,10.0403336 89.136816,10.7111271 89.3464427,11.4573959 C89.556068,12.2036648 89.66088,12.9624999 89.66088,13.7339239 L89.66088,14.538884 L80.1019781,14.538884 Z M87.246,12.7277236 C87.2292293,12.2246211 87.149572,11.7634505 87.0070267,11.3441984 C86.8644813,10.9249463 86.6506657,10.5602023 86.3655743,10.2499557 C86.0804828,9.93970907 85.7241237,9.69654653 85.2964865,9.52046053 C84.8688493,9.34437467 84.3699468,9.25633307 83.7997639,9.25633307 C83.2463509,9.25633307 82.7390635,9.36114453 82.277886,9.57077053 C81.8167087,9.78039667 81.42681,10.0529065 81.1081783,10.3883083 C80.7895467,10.72371 80.5421916,11.0968388 80.3661057,11.507706 C80.1900197,11.9185731 80.1019781,12.3252416 80.1019781,12.7277236 L87.246,12.7277236 Z M92.37762,7.7470328 L94.6415707,7.7470328 L94.6415707,9.58334813 L94.6918813,9.58334813 C94.976972,8.9460848 95.4716827,8.4304124 96.1760253,8.03631533 C96.8803693,7.64221827 97.6937067,7.44517267 98.6160613,7.44517267 C99.186244,7.44517267 99.735456,7.5332144 100.263715,7.70930027 C100.791972,7.88538613 101.253143,8.157896 101.64724,8.52683787 C102.041336,8.89577987 102.355771,9.3695276 102.590552,9.9480956 C102.825333,10.5266636 102.942723,11.2100344 102.942723,11.9982285 L102.942723,19.6705049 L100.678772,19.6705049 L100.678772,12.6271036 C100.678772,12.0736908 100.603308,11.5999429 100.452377,11.2058459 C100.301445,10.8117488 100.100208,10.493122 99.848656,10.2499557 C99.5971053,10.0067895 99.3078253,9.83070613 98.9808093,9.72170067 C98.653792,9.61269507 98.3142027,9.55819307 97.9620307,9.55819307 C97.4924693,9.55819307 97.0564533,9.63365733 96.6539707,9.78458813 C96.2514893,9.93551893 95.8993227,10.1744891 95.5974613,10.5015057 C95.2955987,10.8285224 95.0608213,11.2435759 94.8931213,11.7466785 C94.72542,12.2497811 94.6415707,12.8451103 94.6415707,13.5326837 L94.6415707,19.6705049 L92.37762,19.6705049 L92.37762,7.7470328 Z M118.312429,19.6705049 L116.04848,19.6705049 L116.04848,17.9599645 L115.998169,17.9599645 C115.562147,18.5972279 114.962625,19.091938 114.199587,19.4441099 C113.436548,19.7962816 112.652557,19.9723649 111.847593,19.9723649 C110.925239,19.9723649 110.09094,19.8130515 109.344671,19.4944199 C108.598401,19.1757881 107.961148,18.7313876 107.432891,18.1612047 C106.904633,17.5910216 106.497964,16.9286132 106.212873,16.1739592 C105.927781,15.4193053 105.785237,14.5975835 105.785237,13.7087688 C105.785237,12.8199543 105.927781,11.9940399 106.212873,11.2310009 C106.497964,10.467962 106.904633,9.80555347 107.432891,9.2437556 C107.961148,8.6819576 108.598401,8.24174947 109.344671,7.92311787 C110.09094,7.60448613 110.925239,7.44517267 111.847593,7.44517267 C112.702868,7.44517267 113.50782,7.6254484 114.262475,7.98600533 C115.017128,8.34656213 115.595688,8.83707987 115.998169,9.45757307 L116.04848,9.45757307 L116.04848,0.65332152 L118.312429,0.65332152 L118.312429,19.6705049 Z M112.124299,17.8593445 C112.728021,17.8593445 113.273041,17.7545331 113.759375,17.5449069 C114.245707,17.3352809 114.656568,17.0501937 114.991969,16.6896368 C115.327371,16.32908 115.587304,15.8930643 115.771775,15.3815767 C115.956245,14.8700889 116.04848,14.312492 116.04848,13.7087688 C116.04848,13.1050457 115.956245,12.5474487 115.771775,12.0359611 C115.587304,11.5244733 115.327371,11.0884576 114.991969,10.7279008 C114.656568,10.3673439 114.245707,10.0822567 113.759375,9.87263067 C113.273041,9.66300453 112.728021,9.55819307 112.124299,9.55819307 C111.520576,9.55819307 110.975556,9.66300453 110.489224,9.87263067 C110.002891,10.0822567 109.592031,10.3673439 109.256628,10.7279008 C108.921227,11.0884576 108.661295,11.5244733 108.476823,12.0359611 C108.292352,12.5474487 108.200119,13.1050457 108.200119,13.7087688 C108.200119,14.312492 108.292352,14.8700889 108.476823,15.3815767 C108.661295,15.8930643 108.921227,16.32908 109.256628,16.6896368 C109.592031,17.0501937 110.002891,17.3352809 110.489224,17.5449069 C110.975556,17.7545331 111.520576,17.8593445 112.124299,17.8593445 Z M123.444051,14.538884 C123.444051,15.0587567 123.557247,15.5325045 123.783644,15.9601417 C124.01004,16.3877789 124.307704,16.7525228 124.676645,17.0543844 C125.045588,17.356246 125.473219,17.5910237 125.959551,17.7587245 C126.445884,17.9264255 126.948979,18.0102745 127.468852,18.0102745 C128.173195,18.0102745 128.785295,17.8467687 129.305167,17.519752 C129.82504,17.1927353 130.30298,16.760912 130.739003,16.2242692 L132.449543,17.5323295 C131.191785,19.1590279 129.430953,19.9723649 127.166992,19.9723649 C126.227867,19.9723649 125.376797,19.8130515 124.613759,19.4944199 C123.85072,19.1757881 123.205081,18.73558 122.676823,18.1737821 C122.148565,17.6119843 121.741897,16.9495757 121.456805,16.1865368 C121.171713,15.4234979 121.029171,14.5975835 121.029171,13.7087688 C121.029171,12.8199543 121.184291,11.9940399 121.494537,11.2310009 C121.804784,10.467962 122.232416,9.80555347 122.777443,9.2437556 C123.322471,8.6819576 123.972303,8.24174947 124.726956,7.92311787 C125.481609,7.60448613 126.303332,7.44517267 127.192147,7.44517267 C128.248661,7.44517267 129.141656,7.62964093 129.871155,7.9985828 C130.600653,8.36752467 131.200175,8.84965747 131.669737,9.4449956 C132.1393,10.0403336 132.478889,10.7111271 132.688515,11.4573959 C132.898141,12.2036648 133.002952,12.9624999 133.002952,13.7339239 L133.002952,14.538884 L123.444051,14.538884 Z M130.588072,12.7277236 C130.571301,12.2246211 130.491645,11.7634505 130.3491,11.3441984 C130.206553,10.9249463 129.992739,10.5602023 129.707647,10.2499557 C129.422556,9.93970907 129.066196,9.69654653 128.638559,9.52046053 C128.210921,9.34437467 127.71202,9.25633307 127.141836,9.25633307 C126.588424,9.25633307 126.081136,9.36114453 125.619959,9.57077053 C125.158781,9.78039667 124.768883,10.0529065 124.450251,10.3883083 C124.131619,10.72371 123.884264,11.0968388 123.708179,11.507706 C123.532092,11.9185731 123.444051,12.3252416 123.444051,12.7277236 L130.588072,12.7277236 Z M135.719693,7.7470328 L137.983644,7.7470328 L137.983644,9.58334813 L138.033953,9.58334813 C138.184884,9.2647164 138.386123,8.9754368 138.637673,8.7155004 C138.889225,8.45556413 139.17012,8.23336373 139.480367,8.0488928 C139.790613,7.86442187 140.130201,7.71768587 140.499144,7.60868027 C140.868085,7.49967467 141.237023,7.44517267 141.605964,7.44517267 C141.974905,7.44517267 142.310303,7.49548227 142.612164,7.5961028 L142.511544,10.0361381 C142.327073,9.98582787 142.142605,9.94390333 141.958135,9.9103632 C141.773663,9.87682293 141.589195,9.8600532 141.404724,9.8600532 C140.297899,9.8600532 139.451021,10.1702951 138.864068,10.7907883 C138.277116,11.4112815 137.983644,12.3755471 137.983644,13.6836139 L137.983644,19.6705049 L135.719693,19.6705049 L135.719693,7.7470328 Z" id="path-1"></path>
            </g>
            <path d="M23.3403055,5.5173414 L27.1576768,7.1079128 L31.7365837,3.91131659 L35.4981904,7.67292324 L32.3015941,12.2518301 L33.8921656,16.0692015 L39.3710211,17.0432263 L39.3710211,22.3662807 L33.8921656,23.3403055 L32.3015941,27.1576768 L35.4981904,31.7365837 L31.7365837,35.4981904 L27.1576768,32.3015941 L23.3403055,33.8921656 L22.3662807,39.3710211 L17.0432263,39.3710211 L16.0692015,33.8921656 L12.2518301,32.3015941 L7.67292324,35.4981904 L3.91131659,31.7365837 L7.1079128,27.1576768 L5.5173414,23.3403055 L0.0384858467,22.3662807 L0.0384858467,17.0432263 L5.5173414,16.0692015 L7.1079128,12.2518301 L3.91131659,7.67292324 L7.67292324,3.91131659 L12.2518301,7.1079128 L16.0692015,5.5173414 L17.0432263,0.0384858467 L22.3662807,0.0384858467 L23.3403055,5.5173414 Z M19.7047535,31.2505075 C26.093404,31.2505075 31.2505075,26.093404 31.2505075,19.7047535 C31.2505075,13.3161029 26.093404,8.15899948 19.7047535,8.15899948 C13.3161029,8.15899948 8.15899948,13.3161029 8.15899948,19.7047535 C8.15899948,26.093404 13.3161029,31.2505075 19.7047535,31.2505075 Z" id="Combined-Shape"></path>
        </g>
    </g>
</svg>