<?xml version="1.0" encoding="UTF-8"?>
<svg width="584px" height="436px" viewBox="0 0 584 436" version="1.1" xmlns="http://www.w3.org/2000/svg" xmlns:xlink="http://www.w3.org/1999/xlink">
    <!-- Generator: Sketch 50.2 (55047) - http://www.bohemiancoding.com/sketch -->
    <title>contact-2</title>
    <desc>Created with Sketch.</desc>
    <defs>
        <linearGradient x1="49.9896022%" y1="100.034662%" x2="49.9896022%" y2="0.0433275563%" id="linearGradient-1">
            <stop stop-color="#808080" stop-opacity="0.25" offset="0%"></stop>
            <stop stop-color="#808080" stop-opacity="0.12" offset="54%"></stop>
            <stop stop-color="#808080" stop-opacity="0.1" offset="100%"></stop>
        </linearGradient>
        <linearGradient x1="50.0147929%" y1="99.9852507%" x2="50.0147929%" y2="0.0442477876%" id="linearGradient-2">
            <stop stop-color="#808080" stop-opacity="0.25" offset="0%"></stop>
            <stop stop-color="#808080" stop-opacity="0.12" offset="54%"></stop>
            <stop stop-color="#808080" stop-opacity="0.1" offset="100%"></stop>
        </linearGradient>
        <linearGradient x1="50.0470331%" y1="100.071736%" x2="50.0470331%" y2="0.0573888092%" id="linearGradient-3">
            <stop stop-color="#808080" stop-opacity="0.25" offset="0%"></stop>
            <stop stop-color="#808080" stop-opacity="0.12" offset="54%"></stop>
            <stop stop-color="#808080" stop-opacity="0.1" offset="100%"></stop>
        </linearGradient>
        <linearGradient x1="49.9827795%" y1="100.225904%" x2="49.9827795%" y2="0.135542169%" id="linearGradient-4">
            <stop stop-color="#808080" stop-opacity="0.25" offset="0%"></stop>
            <stop stop-color="#808080" stop-opacity="0.12" offset="54%"></stop>
            <stop stop-color="#808080" stop-opacity="0.1" offset="100%"></stop>
        </linearGradient>
        <linearGradient x1="50.0144928%" y1="99.9277457%" x2="50.0144928%" y2="-0.0144508671%" id="linearGradient-5">
            <stop stop-color="#808080" stop-opacity="0.25" offset="0%"></stop>
            <stop stop-color="#808080" stop-opacity="0.12" offset="54%"></stop>
            <stop stop-color="#808080" stop-opacity="0.1" offset="100%"></stop>
        </linearGradient>
        <linearGradient x1="50.0144928%" y1="99.8410405%" x2="50.0144928%" y2="-0.101156069%" id="linearGradient-6">
            <stop stop-color="#808080" stop-opacity="0.25" offset="0%"></stop>
            <stop stop-color="#808080" stop-opacity="0.12" offset="54%"></stop>
            <stop stop-color="#808080" stop-opacity="0.1" offset="100%"></stop>
        </linearGradient>
        <linearGradient x1="50.0646552%" y1="99.9856528%" x2="50.0646552%" y2="-0.0143472023%" id="linearGradient-7">
            <stop stop-color="#808080" stop-opacity="0.25" offset="0%"></stop>
            <stop stop-color="#808080" stop-opacity="0.12" offset="54%"></stop>
            <stop stop-color="#808080" stop-opacity="0.1" offset="100%"></stop>
        </linearGradient>
        <linearGradient x1="50.0071429%" y1="99.9859353%" x2="50.0071429%" y2="0.0281293952%" id="linearGradient-8">
            <stop stop-color="#808080" stop-opacity="0.25" offset="0%"></stop>
            <stop stop-color="#808080" stop-opacity="0.12" offset="54%"></stop>
            <stop stop-color="#808080" stop-opacity="0.1" offset="100%"></stop>
        </linearGradient>
    </defs>
    <g id="Page-1" stroke="none" stroke-width="1" fill="none" fill-rule="evenodd">
        <g id="contact-2" transform="translate(2.000000, 0.000000)">
            <g id="Group" opacity="0.5" transform="translate(174.000000, 63.000000)" fill="url(#linearGradient-1)" fill-rule="nonzero">
                <path d="M78,87.1 C103.3,87.1 115,73.5 115,55.3 C115,23.5 89.4,0.7 57.6,0.7 C25.7,1.1 0.2,27.3 0.7,59.2 C1.1,90.5 26.4,115.7 57.6,116.1 C69.3,116 80.7,112.3 90.3,105.4 C91.3,104.7 91.9,103.7 92.1,102.5 C92.3,101.5 92,100.5 91.2,99.8 C89.7,98.5 87.4,98.7 86.1,100.2 C86,100.3 86,100.3 85.9,100.4 C83.8,103.2 77.5,107.8 59,108.3 C30.9,108.9 7.4,86.6 7.3,58.5 C7.2,30.6 30.1,8.7 57.6,8.4 C85.1,8.1 107.3,27.5 107.3,54.7 C107.3,72 95.3,80 80.8,79.7 C76.2,80 75.3,78.2 75.9,71.7 C76.4,66.4 81.5,44.2 83.3,36.4 C83.9,34.1 82.4,31.8 80.1,31.2 C79.7,31.1 79.3,31.1 78.9,31.1 L78.6,31.1 C76.6,31.3 75.1,32.9 74.9,34.9 C74.7,36.1 74.7,37.4 74.6,38.7 C71.8,33.2 65.3,28.8 57.6,28.5 C41.3,28.8 27.1,43.6 26.4,65.2 C26.4,79.7 34.1,88 47.4,88 C56.7,88 63.4,82.5 67.2,77.2 C67.2,77.3 66.9,86.5 78,87.1 Z M48.7,80.7 C40.4,80.7 35.4,74.5 35.4,64.7 C35.4,47.7 46.8,36.9 57.6,36.9 C67.2,36.9 70.9,43.4 71.2,52 C71.2,65.9 62.2,80.7 48.7,80.7 Z" id="Shape"></path>
            </g>
            <path d="M251.1,148.9 C275.3,148.9 286.5,135.9 286.5,118.5 C286.5,88.1 262,66.3 231.7,66.3 C201.2,66.3 176.6,91 176.6,121.4 C176.6,151.9 201.3,176.5 231.7,176.5 C242.9,176.4 253.8,172.8 262.9,166.3 C263.8,165.7 264.4,164.7 264.6,163.6 C264.8,162.7 264.5,161.7 263.8,161.1 C262.3,159.9 260.2,160.1 258.9,161.5 C258.9,161.6 258.8,161.6 258.8,161.7 C256.8,164.3 250.8,168.8 233.1,169.2 C206.3,169.8 183.8,148.4 183.7,121.6 C183.6,95 205.5,74 231.8,73.7 C258.1,73.4 279.3,92 279.3,117.9 C279.3,134.4 267.8,142.1 253.9,141.8 C249.5,142.1 248.6,140.3 249.2,134.1 C249.7,129 254.5,107.8 256.3,100.4 C256.8,98.2 255.5,96 253.3,95.5 C252.9,95.4 252.6,95.4 252.2,95.4 L251.9,95.4 C250,95.6 248.5,97.1 248.3,99 C248.1,100.2 248.1,101.4 248,102.6 C245.3,97.3 239.2,93.2 231.8,92.9 C216.2,93.2 202.6,107.4 202,128 C202,141.9 209.4,149.8 222,149.8 C230.8,149.8 237.3,144.5 240.9,139.5 C240.8,139.4 240.5,148.3 251.1,148.9 Z M223.1,142.7 C215.1,142.7 210.4,136.8 210.4,127.4 C210.4,111.2 221.3,100.9 231.6,100.9 C240.7,100.9 244.3,107.1 244.6,115.4 C244.6,128.5 236,142.7 223.1,142.7 Z" id="Shape" fill="#5BA69D" fill-rule="nonzero"></path>
            <g id="Group" opacity="0.5" transform="translate(307.000000, 0.000000)" fill="url(#linearGradient-2)" fill-rule="nonzero">
                <path d="M46.3,51.5 C61.2,51.5 68,43.5 68,32.8 C68,14.1 53,0.7 34.3,0.7 C15.6,0.7 0.4,15.9 0.4,34.6 C0.4,53.3 15.6,68.5 34.3,68.5 C41.2,68.4 47.9,66.2 53.5,62.2 C54,61.8 54.4,61.2 54.5,60.5 C54.6,59.9 54.4,59.3 54,58.9 C53.1,58.1 51.8,58.2 51,59.1 C51,59.1 50.9,59.2 50.9,59.2 C49.7,60.8 46,63.6 35.1,63.8 C18.8,64.2 5.2,51.4 4.8,35.1 C4.8,34.9 4.8,34.8 4.8,34.6 C4.8,18.2 18.2,5.3 34.3,5.2 C50.4,5.1 63.5,16.4 63.5,32.4 C63.5,42.5 56.4,47.3 47.9,47.1 C45.2,47.3 44.6,46.2 45,42.4 C45.3,39.3 48.3,26.3 49.3,21.7 C49.6,20.3 48.8,19 47.4,18.7 C47.2,18.6 46.9,18.6 46.7,18.6 L46.5,18.6 C45.3,18.7 44.4,19.6 44.3,20.8 C44.2,21.5 44.2,22.3 44.1,23 C42.1,19.4 38.3,17.1 34.1,17 C24.5,17.2 16.2,25.9 15.8,38.6 C15.8,47.1 20.3,52 28.1,52 C32.8,51.9 37.1,49.5 39.7,45.7 C39.8,45.6 39.7,51.1 46.3,51.5 Z M29,47.7 C24.1,47.7 21.2,44.1 21.2,38.3 C21.2,28.3 27.9,22 34.2,22 C39.8,22 42,25.8 42.2,30.9 C42.3,39 37,47.7 29,47.7 Z" id="Shape"></path>
            </g>
            <path d="M352.7,50.6 C366.8,50.6 373.3,43 373.3,32.9 C373.3,15.2 359,2.5 341.3,2.5 C323.5,2.5 309.1,16.9 309.1,34.7 C309.1,52.5 323.5,66.9 341.3,66.9 C347.8,66.8 354.2,64.7 359.5,60.9 C360,60.5 360.4,60 360.5,59.3 C360.6,58.8 360.4,58.2 360,57.8 C359.2,57.1 357.9,57.2 357.2,58 C357.2,58 357.1,58.1 357.1,58.2 C355.9,59.7 352.4,62.3 342.1,62.6 C326.6,63 313.8,50.9 313.3,35.4 C313.3,35.2 313.3,35 313.3,34.8 C313.3,19.3 326,7 341.3,6.8 C356.6,6.6 369,17.5 369,32.7 C369,42.3 362.3,46.8 354.2,46.6 C351.6,46.8 351.1,45.7 351.4,42.1 C351.7,39.1 354.5,26.8 355.5,22.5 C355.8,21.2 355.1,19.9 353.8,19.6 C353.6,19.5 353.3,19.5 353.1,19.5 L353,19.5 C351.9,19.6 351,20.5 350.9,21.6 C350.8,22.3 350.8,23 350.7,23.7 C348.8,20.2 345.2,18.1 341.2,18 C332.1,18.2 324.2,26.4 323.8,38.5 C323.8,46.6 328.1,51.2 335.5,51.2 C339.9,51.1 344,48.9 346.5,45.2 C346.6,45.1 346.5,50.3 352.7,50.6 Z M336.3,47 C331.7,47 328.9,43.6 328.9,38.1 C328.9,28.6 335.3,22.6 341.3,22.6 C346.6,22.6 348.7,26.2 348.9,31 C348.9,38.7 343.9,47 336.3,47 Z" id="Shape" fill="#5BA69D" fill-rule="nonzero"></path>
            <g id="Group" opacity="0.5" transform="translate(412.000000, 71.000000)" fill="url(#linearGradient-3)" fill-rule="nonzero">
                <path d="M47.6,52.2 C62.9,52.2 70,44 70,33 C70,13.8 54.5,0 35.3,0 C16.1,0.3 0.7,16.2 1,35.4 C1.3,54.2 16.5,69.3 35.3,69.7 C42.4,69.6 49.3,67.4 55,63.2 C55.6,62.8 56,62.2 56.1,61.5 C56.2,60.9 56,60.3 55.6,59.9 C54.7,59.1 53.3,59.2 52.5,60.2 C52.5,60.2 52.4,60.3 52.4,60.3 C51.1,62 47.3,64.8 36.1,65 C19.3,65.5 5.4,52.2 4.9,35.4 C4.9,35.2 4.9,35.1 4.9,34.9 C4.8,18.1 18.7,4.8 35.3,4.6 C51.9,4.4 65.3,16.2 65.3,32.6 C65.3,43 58,47.9 49.3,47.7 C46.5,47.9 45.9,46.8 46.3,42.8 C46.6,39.6 49.7,26.2 50.8,21.5 C51.1,20.1 50.3,18.7 48.9,18.4 C48.7,18.3 48.4,18.3 48.2,18.3 L48,18.3 C46.8,18.4 45.9,19.4 45.7,20.6 C45.6,21.4 45.5,22.1 45.5,22.9 C43.4,19.2 39.5,16.8 35.2,16.8 C25.3,17 16.7,25.9 16.4,39 C16.4,47.8 21.1,52.8 29.1,52.8 C33.9,52.7 38.3,50.3 41,46.3 C41.1,46.3 40.9,51.9 47.6,52.2 Z M29.9,48.3 C24.9,48.3 21.9,44.6 21.9,38.6 C21.9,28.3 28.8,21.8 35.3,21.8 C41.1,21.8 43.3,25.7 43.5,30.9 C43.5,39.4 38.1,48.3 29.9,48.3 Z" id="Shape"></path>
            </g>
            <path d="M458.7,121.9 C472.8,121.9 479.3,114.3 479.3,104.2 C479.3,86.5 465,73.8 447.3,73.8 C429.5,73.8 415.1,88.2 415.1,106 C415.1,123.8 429.5,138.2 447.3,138.2 C453.8,138.1 460.2,136 465.5,132.2 C466,131.8 466.4,131.3 466.5,130.6 C466.6,130.1 466.4,129.5 466,129.1 C465.2,128.4 463.9,128.5 463.2,129.3 C463.2,129.3 463.1,129.4 463.1,129.5 C461.9,131 458.4,133.6 448.1,133.9 C432.6,134.3 419.8,122.2 419.3,106.7 C419.3,106.5 419.3,106.3 419.3,106.1 C419.3,90.6 432,78.3 447.3,78.1 C462.6,77.9 475,88.9 475,104 C475,113.6 468.3,118.1 460.2,117.9 C457.6,118.1 457.1,117 457.4,113.4 C457.7,110.4 460.5,98.1 461.5,93.8 C461.8,92.5 461.1,91.2 459.8,90.9 C459.6,90.8 459.3,90.8 459.1,90.8 L459,90.8 C457.9,90.9 457,91.8 456.9,92.9 C456.8,93.6 456.8,94.3 456.7,95 C454.8,91.5 451.2,89.4 447.2,89.3 C438.1,89.5 430.2,97.7 429.8,109.8 C429.8,117.9 434.1,122.5 441.5,122.5 C445.9,122.4 450,120.2 452.5,116.5 C452.6,116.4 452.5,121.6 458.7,121.9 Z M442.3,118.3 C437.7,118.3 434.9,114.9 434.9,109.4 C434.9,99.9 441.3,93.9 447.3,93.9 C452.6,93.9 454.7,97.5 454.9,102.3 C454.9,110 449.9,118.3 442.3,118.3 Z" id="Shape" fill="#5BA69D" fill-rule="nonzero"></path>
            <g id="Group" opacity="0.5" transform="translate(319.000000, 176.000000)" fill="url(#linearGradient-4)" fill-rule="nonzero">
                <path d="M45,50.6 C59.6,50.6 66.3,42.8 66.3,32.3 C66.3,14 51.5,0.8 33.3,0.8 C14.9,0.8 0.1,15.7 0.1,34 C0.1,52.3 15,67.2 33.3,67.2 C40.1,67.1 46.6,65 52.1,61 C52.6,60.6 53,60 53.1,59.4 C53.2,58.8 53,58.3 52.6,57.9 C51.7,57.2 50.4,57.3 49.7,58.2 C49.7,58.2 49.7,58.2 49.6,58.3 C48.4,59.9 44.8,62.6 34.1,62.8 C18.1,63.2 4.8,50.6 4.4,34.6 C4.4,34.5 4.4,34.3 4.4,34.2 C4.4,18.2 17.5,5.5 33.4,5.3 C49.3,5.1 62,16.3 62,32 C62,42 55.1,46.6 46.7,46.4 C44,46.6 43.5,45.5 43.9,41.8 C44.1,38.7 47.1,25.9 48.1,21.5 C48.4,20.2 47.6,18.8 46.3,18.5 C46.1,18.4 45.9,18.4 45.6,18.4 L45.4,18.4 C44.3,18.5 43.4,19.4 43.2,20.6 C43.1,21.3 43.1,22 43,22.8 C41,19.2 37.3,17 33.2,16.9 C23.8,17.1 15.6,25.6 15.2,38 C15.2,46.4 19.6,51.1 27.3,51.1 C31.9,51 36.1,48.7 38.7,44.9 C38.8,45 38.6,50.3 45,50.6 Z M28.1,46.9 C23.3,46.9 20.5,43.4 20.5,37.7 C20.5,27.9 27.1,21.7 33.3,21.7 C38.8,21.7 40.9,25.4 41.1,30.4 C41.1,38.4 35.9,46.9 28.1,46.9 Z" id="Shape"></path>
            </g>
            <path d="M363.6,226.1 C377.7,226.1 384.2,218.5 384.2,208.4 C384.2,190.7 369.9,178 352.2,178 C334.4,178 320,192.4 320,210.2 C320,228 334.4,242.4 352.2,242.4 C358.7,242.3 365.1,240.2 370.4,236.4 C370.9,236 371.3,235.5 371.4,234.8 C371.5,234.3 371.3,233.7 370.9,233.3 C370.1,232.6 368.8,232.7 368.1,233.5 C368.1,233.5 368,233.6 368,233.7 C366.8,235.2 363.3,237.8 353,238.1 C337.5,238.5 324.7,226.4 324.2,210.9 C324.2,210.7 324.2,210.5 324.2,210.3 C324.2,194.8 336.9,182.5 352.2,182.3 C367.5,182.1 379.9,193 379.9,208.2 C379.9,217.8 373.2,222.3 365.1,222.1 C362.5,222.3 362,221.2 362.3,217.6 C362.6,214.6 365.4,202.3 366.4,198 C366.7,196.7 366,195.4 364.7,195.1 C364.5,195 364.2,195 364,195 C362.9,195.1 362,196 361.9,197.1 C361.8,197.8 361.8,198.5 361.7,199.2 C359.8,195.7 356.2,193.6 352.2,193.5 C343.1,193.7 335.2,201.9 334.8,214 C334.8,222.1 339.1,226.7 346.5,226.7 C350.9,226.6 355,224.4 357.5,220.7 C357.6,220.6 357.4,225.8 363.6,226.1 Z M347.3,222.5 C342.7,222.5 339.9,219.1 339.9,213.6 C339.9,204.1 346.3,198.1 352.3,198.1 C357.6,198.1 359.7,201.7 359.9,206.5 C359.8,214.2 354.8,222.5 347.3,222.5 Z" id="Shape" fill="#5BA69D" fill-rule="nonzero"></path>
            <g id="Group" opacity="0.5" transform="translate(229.000000, 202.000000)" fill="url(#linearGradient-5)" fill-rule="nonzero">
                <path d="M46.8,51.8 C62,51.8 69,43.7 69,32.8 C69,13.8 53.7,0.1 34.6,0.1 C15.5,0.1 0,15.6 0,34.7 C0,53.8 15.5,69.3 34.6,69.3 C41.6,69.2 48.5,67 54.2,62.9 C54.8,62.5 55.2,61.9 55.3,61.2 C55.4,60.6 55.2,60 54.8,59.6 C53.9,58.8 52.5,58.9 51.7,59.8 C51.7,59.8 51.6,59.9 51.6,59.9 C50.3,61.5 46.6,64.4 35.5,64.6 C18.9,65.1 5,52 4.5,35.3 C4.5,35.1 4.5,34.9 4.5,34.7 C4.5,18 18.2,4.8 34.6,4.6 C51,4.4 64.4,16.1 64.4,32.3 C64.4,42.7 57.2,47.5 48.5,47.3 C45.7,47.5 45.2,46.4 45.5,42.5 C45.8,39.3 48.8,26 49.9,21.4 C50.2,20 49.4,18.6 48,18.3 C47.8,18.2 47.5,18.2 47.3,18.2 L47.1,18.2 C45.9,18.3 45,19.3 44.9,20.5 C44.8,21.2 44.7,22 44.7,22.8 C42.6,19.1 38.8,16.8 34.5,16.7 C24.7,16.9 16.2,25.8 15.8,38.7 C15.8,47.4 20.4,52.4 28.4,52.4 C33.2,52.3 37.7,49.9 40.4,45.9 C40.3,45.9 40.2,51.5 46.8,51.8 Z M29.2,47.9 C24.2,47.9 21.2,44.2 21.2,38.3 C21.2,28.1 28,21.7 34.5,21.7 C40.2,21.7 42.5,25.6 42.6,30.8 C42.7,39.1 37.4,47.9 29.2,47.9 Z" id="Shape"></path>
            </g>
            <path d="M275,252.6 C289.1,252.6 295.6,245 295.6,234.9 C295.6,217.2 281.3,204.5 263.6,204.5 C245.8,204.5 231.4,218.9 231.4,236.7 C231.4,254.5 245.8,268.9 263.6,268.9 C270.1,268.8 276.5,266.7 281.8,262.9 C282.3,262.5 282.7,262 282.8,261.3 C282.9,260.8 282.7,260.2 282.3,259.8 C281.5,259.1 280.2,259.2 279.5,260 C279.5,260 279.4,260.1 279.4,260.2 C278.2,261.7 274.7,264.3 264.4,264.6 C248.9,265 236.1,252.9 235.6,237.4 C235.6,237.2 235.6,237 235.6,236.8 C235.6,221.3 248.3,209 263.6,208.8 C278.9,208.6 291.3,219.5 291.3,234.6 C291.3,244.2 284.6,248.7 276.5,248.5 C273.9,248.7 273.4,247.6 273.7,244 C274,241 276.8,228.7 277.8,224.4 C278.1,223.1 277.4,221.8 276.1,221.5 C275.9,221.4 275.6,221.4 275.4,221.4 L275.2,221.4 C274.1,221.5 273.2,222.4 273.1,223.5 C273,224.2 273,224.9 272.9,225.6 C271,222.1 267.4,220 263.4,219.9 C254.3,220.1 246.4,228.3 246,240.4 C246,248.5 250.3,253.1 257.7,253.1 C262.1,253 266.2,250.8 268.7,247.1 C269,247 268.8,252.3 275,252.6 Z M258.7,249 C254.1,249 251.3,245.6 251.3,240.1 C251.3,230.6 257.7,224.6 263.7,224.6 C269,224.6 271.1,228.2 271.3,233 C271.2,240.8 266.2,249 258.7,249 Z" id="Shape" fill="#5BA69D" fill-rule="nonzero"></path>
            <g id="Group" opacity="0.5" transform="translate(229.000000, 309.000000)" fill="url(#linearGradient-6)" fill-rule="nonzero">
                <path d="M46.8,51.8 C62,51.8 69,43.7 69,32.8 C69,13.8 53.7,0.1 34.6,0.1 C15.5,0.1 0,15.6 0,34.7 C0,53.8 15.5,69.3 34.6,69.3 C41.6,69.2 48.5,67 54.2,62.9 C54.8,62.5 55.2,61.9 55.3,61.2 C55.4,60.6 55.2,60 54.8,59.6 C53.9,58.8 52.5,58.9 51.7,59.8 C51.7,59.8 51.6,59.9 51.6,59.9 C50.3,61.6 46.6,64.4 35.5,64.6 C18.9,65.1 5,52 4.5,35.3 C4.5,35.1 4.5,34.9 4.5,34.7 C4.5,18 18.2,4.8 34.6,4.6 C51,4.4 64.4,16.1 64.4,32.3 C64.4,42.7 57.2,47.5 48.5,47.3 C45.7,47.5 45.2,46.4 45.5,42.5 C45.8,39.3 48.8,26 49.9,21.4 C50.2,20 49.4,18.6 48,18.3 C47.8,18.2 47.5,18.2 47.3,18.2 L47.1,18.2 C45.9,18.3 45,19.3 44.9,20.5 C44.8,21.2 44.7,22 44.7,22.8 C42.6,19.1 38.8,16.8 34.5,16.7 C24.7,16.9 16.2,25.8 15.8,38.7 C15.8,47.4 20.4,52.4 28.4,52.4 C33.2,52.3 37.7,49.9 40.4,45.9 C40.3,45.9 40.2,51.4 46.8,51.8 Z M29.2,47.9 C24.2,47.9 21.2,44.2 21.2,38.3 C21.2,28.1 28,21.7 34.5,21.7 C40.2,21.7 42.5,25.6 42.6,30.8 C42.7,39 37.4,47.9 29.2,47.9 Z" id="Shape"></path>
            </g>
            <path d="M275,359.6 C289.1,359.6 295.6,352 295.6,341.9 C295.6,324.2 281.3,311.5 263.6,311.5 C245.8,311.5 231.4,325.9 231.4,343.7 C231.4,361.5 245.8,375.9 263.6,375.9 C270.1,375.8 276.5,373.7 281.8,369.9 C282.3,369.5 282.7,369 282.8,368.3 C282.9,367.8 282.7,367.2 282.3,366.8 C281.5,366.1 280.2,366.2 279.5,367 C279.5,367 279.4,367.1 279.4,367.2 C278.2,368.7 274.7,371.3 264.4,371.6 C248.9,372 236.1,359.9 235.6,344.4 C235.6,344.2 235.6,344 235.6,343.8 C235.6,328.3 248.3,316 263.6,315.8 C278.9,315.6 291.3,326.5 291.3,341.6 C291.3,351.2 284.6,355.7 276.5,355.5 C273.9,355.7 273.4,354.6 273.7,351 C274,348 276.8,335.7 277.8,331.3 C278.1,330 277.4,328.7 276.1,328.4 C275.9,328.3 275.6,328.3 275.4,328.3 L275.2,328.3 C274.1,328.4 273.2,329.3 273.1,330.4 C273,331.1 273,331.8 272.9,332.5 C271,329.1 267.3,327 263.4,327 C254.3,327.2 246.4,335.4 246,347.5 C246,355.6 250.3,360.2 257.7,360.2 C262.1,360.1 266.2,357.9 268.7,354.2 C268.9,354.1 268.8,359.2 275,359.6 Z M258.7,356 C254.1,356 251.3,352.6 251.3,347.1 C251.3,337.6 257.7,331.6 263.7,331.6 C269,331.6 271.1,335.2 271.3,340 C271.2,347.7 266.2,356 258.7,356 Z" id="Shape" fill="#5BA69D" fill-rule="nonzero"></path>
            <g id="Group" opacity="0.5" transform="translate(380.000000, 366.000000)" fill="url(#linearGradient-7)" fill-rule="nonzero">
                <path d="M47.6,52.5 C62.9,52.5 70,44.3 70,33.3 C70,14.1 54.5,0.3 35.3,0.3 C16.1,0.3 0.4,15.9 0.4,35.2 C0.4,54.4 16,70 35.3,70 C42.4,69.9 49.3,67.7 55,63.5 C55.6,63.1 56,62.5 56.1,61.8 C56.2,61.2 56,60.6 55.6,60.2 C54.7,59.4 53.3,59.5 52.5,60.5 C52.5,60.5 52.4,60.6 52.4,60.6 C51.1,62.3 47.3,65.1 36.1,65.3 C19.3,65.7 5.4,52.5 4.9,35.7 C4.9,35.5 4.9,35.4 4.9,35.2 C4.8,18.4 18.7,5.1 35.3,4.9 C51.9,4.7 65.3,16.4 65.3,32.9 C65.3,43.3 58,48.2 49.3,48 C46.5,48.2 46,47.1 46.3,43.2 C46.6,40 49.7,26.6 50.8,21.9 C51.1,20.5 50.3,19.1 48.9,18.8 C48.7,18.7 48.4,18.7 48.2,18.7 L48,18.7 C46.8,18.8 45.9,19.8 45.7,21 C45.6,21.8 45.5,22.5 45.5,23.3 C43.4,19.6 39.5,17.2 35.2,17.1 C25.3,17.3 16.7,26.2 16.4,39.3 C16.4,48.1 21.1,53.1 29.1,53.1 C33.9,53 38.3,50.6 41,46.6 C41.2,46.6 40.9,52.1 47.6,52.5 Z M29.9,48.6 C24.9,48.6 21.9,44.9 21.9,38.9 C21.9,28.6 28.8,22.1 35.3,22.1 C41.1,22.1 43.3,26 43.5,31.2 C43.5,39.6 38.1,48.6 29.9,48.6 Z" id="Shape"></path>
            </g>
            <path d="M426.7,417.1 C440.8,417.1 447.3,409.5 447.3,399.4 C447.3,381.7 433,369 415.3,369 C397.5,369 383.1,383.4 383.1,401.2 C383.1,419 397.5,433.4 415.3,433.4 C421.8,433.3 428.2,431.2 433.5,427.4 C434,427 434.4,426.5 434.5,425.8 C434.6,425.3 434.4,424.7 434,424.3 C433.2,423.6 431.9,423.7 431.2,424.5 C431.2,424.5 431.1,424.6 431.1,424.7 C429.9,426.2 426.4,428.8 416.1,429.1 C400.6,429.5 387.8,417.4 387.3,401.9 C387.3,401.7 387.3,401.5 387.3,401.3 C387.3,385.8 400,373.5 415.3,373.3 C430.6,373.1 443,384 443,399.1 C443,408.7 436.3,413.2 428.2,413 C425.6,413.2 425.1,412.1 425.4,408.5 C425.7,405.5 428.5,393.2 429.5,388.8 C429.8,387.5 429.1,386.2 427.8,385.9 C427.6,385.8 427.3,385.8 427.1,385.8 L427,385.8 C425.9,385.9 425,386.8 424.9,387.9 C424.8,388.6 424.8,389.3 424.7,390 C422.8,386.5 419.2,384.4 415.2,384.3 C406.1,384.5 398.2,392.7 397.8,404.8 C397.8,412.9 402.1,417.5 409.5,417.5 C413.9,417.4 418,415.2 420.5,411.5 C420.6,411.6 420.5,416.8 426.7,417.1 Z M410.3,413.5 C405.7,413.5 402.9,410.1 402.9,404.6 C402.9,395.1 409.3,389.1 415.3,389.1 C420.6,389.1 422.7,392.7 422.9,397.5 C422.9,405.3 417.9,413.5 410.3,413.5 Z" id="Shape" fill="#5BA69D" fill-rule="nonzero"></path>
            <path d="M368.6,316.6 C378.7,316.6 383.3,311.2 383.3,303.9 C383.3,291.2 373.1,282.1 360.5,282.1 C347.8,282.7 338,293.5 338.6,306.1 C339.2,318 348.6,327.4 360.5,328 C365.2,328 369.7,326.5 373.5,323.7 C373.9,323.4 374.1,323 374.2,322.6 C374.3,322.2 374.1,321.8 373.9,321.5 C373.3,321 372.4,321.1 371.9,321.7 C371.9,321.7 371.9,321.8 371.8,321.8 C371,322.9 368.5,324.8 361.1,324.9 C350.1,325 341.1,316.3 340.9,305.3 C340.7,294.3 349.5,285.3 360.5,285.1 C371.4,285 380.3,292.7 380.3,303.5 C380.3,310.4 375.5,313.6 369.7,313.5 C367.9,313.6 367.5,312.9 367.7,310.3 C367.9,308.2 369.9,299.3 370.6,296.3 C370.8,295.4 370.3,294.5 369.3,294.2 C369.1,294.2 369,294.1 368.8,294.2 L368.7,294.2 C367.9,294.3 367.3,294.9 367.2,295.7 C367.1,296.2 367.1,296.7 367.1,297.2 C365.7,294.7 363.2,293.2 360.3,293.2 C353.8,293.3 348.1,299.2 347.9,307.8 C347.9,313.6 351,316.9 356.2,316.9 C359.4,316.8 362.3,315.2 364.1,312.6 C364.3,312.8 364.2,316.3 368.6,316.6 Z M356.9,314 C353.6,314 351.6,311.5 351.6,307.6 C351.6,300.8 356.1,296.5 360.4,296.5 C364.2,296.5 365.7,299.1 365.8,302.5 C365.9,308.1 362.3,314 356.9,314 Z" id="Shape" fill="#5BA69D" fill-rule="nonzero" opacity="0.5"></path>
            <path d="M174.8,355 C184.9,355 189.5,349.6 189.5,342.3 C189.5,329.6 179.3,320.5 166.7,320.5 C154,321.1 144.2,331.9 144.8,344.5 C145.4,356.4 154.8,365.8 166.7,366.4 C171.4,366.4 175.9,364.9 179.7,362.1 C180.1,361.8 180.3,361.4 180.4,361 C180.5,360.6 180.3,360.2 180.1,359.9 C179.5,359.4 178.6,359.5 178.1,360.1 C178.1,360.1 178.1,360.2 178,360.2 C177.2,361.3 174.7,363.2 167.3,363.3 C156.3,363.4 147.3,354.7 147.1,343.7 C146.9,332.7 155.7,323.7 166.7,323.5 C177.6,323.4 186.5,331.1 186.5,341.9 C186.5,348.8 181.7,352 175.9,351.9 C174.1,352 173.7,351.3 173.9,348.7 C174.1,346.6 176.1,337.7 176.8,334.7 C177,333.8 176.5,332.9 175.5,332.6 C175.3,332.6 175.2,332.5 175,332.6 C174.2,332.7 173.6,333.3 173.5,334.1 C173.4,334.6 173.4,335.1 173.4,335.6 C172,333.1 169.5,331.6 166.6,331.6 C160.1,331.7 154.4,337.6 154.2,346.2 C154.2,352 157.3,355.3 162.5,355.3 C165.7,355.2 168.6,353.6 170.4,351 C170.5,351.1 170.4,354.7 174.8,355 Z M163.2,352.4 C159.9,352.4 157.9,349.9 157.9,346 C157.9,339.2 162.4,334.9 166.7,334.9 C170.5,334.9 172,337.5 172.1,340.9 C172.1,346.5 168.6,352.4 163.2,352.4 Z" id="Shape" fill="#5BA69D" fill-rule="nonzero" opacity="0.5"></path>
            <path d="M151.1,184.1 C161.2,184.1 165.8,178.7 165.8,171.5 C165.8,158.9 155.6,149.7 143,149.7 C130.3,150.3 120.5,161.1 121.1,173.7 C121.7,185.6 131.1,195 143,195.6 C147.7,195.6 152.2,194.1 156,191.3 C156.4,191 156.6,190.6 156.7,190.2 C156.8,189.8 156.6,189.4 156.4,189.1 C155.8,188.6 154.9,188.7 154.4,189.3 C154.4,189.3 154.4,189.4 154.3,189.4 C153.5,190.5 151,192.4 143.6,192.5 C132.6,192.6 123.6,183.9 123.4,172.9 C123.3,161.9 132,152.9 143,152.7 C153.9,152.6 162.8,160.3 162.8,171.1 C162.8,178 158,181.2 152.2,181.1 C150.4,181.2 150,180.5 150.2,177.9 C150.4,175.8 152.4,166.9 153.1,163.9 C153.3,163 152.8,162.1 151.8,161.8 C151.6,161.8 151.5,161.7 151.3,161.8 L151.2,161.8 C150.4,161.9 149.8,162.5 149.7,163.3 C149.6,163.8 149.6,164.3 149.6,164.8 C148.2,162.3 145.7,160.8 142.8,160.8 C136.3,160.9 130.6,166.8 130.4,175.4 C130.4,181.2 133.5,184.5 138.7,184.5 C141.9,184.4 144.8,182.8 146.6,180.2 C146.7,180.2 146.6,183.8 151.1,184.1 Z M139.4,181.5 C136.1,181.5 134.1,179 134.1,175.1 C134.1,168.3 138.6,164 142.9,164 C146.7,164 148.2,166.6 148.3,170 C148.4,175.6 144.8,181.5 139.4,181.5 Z" id="Shape" fill="#5BA69D" fill-rule="nonzero" opacity="0.5"></path>
            <path d="M535,189.5 C545.1,189.5 549.7,184.1 549.7,176.9 C549.7,164.3 539.5,155.1 526.9,155.1 C514.2,155.7 504.4,166.5 505,179.1 C505.6,191 515,200.4 526.9,201 C531.6,201 536.1,199.5 539.9,196.7 C540.3,196.4 540.5,196 540.6,195.6 C540.7,195.2 540.5,194.8 540.3,194.5 C539.7,194 538.8,194.1 538.3,194.7 C538.3,194.7 538.3,194.8 538.2,194.8 C537.4,195.9 534.9,197.8 527.5,197.9 C516.5,198 507.5,189.3 507.3,178.3 C507.2,167.3 515.9,158.3 526.9,158.1 C537.8,158 546.7,165.7 546.7,176.5 C546.7,183.4 541.9,186.6 536.1,186.5 C534.3,186.6 533.9,185.9 534.1,183.3 C534.3,181.2 536.3,172.3 537,169.3 C537.2,168.4 536.7,167.5 535.7,167.2 C535.5,167.2 535.4,167.1 535.2,167.2 L535.1,167.2 C534.3,167.3 533.7,167.9 533.6,168.7 C533.5,169.2 533.5,169.7 533.5,170.2 C532.1,167.7 529.6,166.2 526.7,166.2 C520.2,166.3 514.5,172.2 514.3,180.8 C514.3,186.6 517.4,189.9 522.6,189.9 C525.8,189.8 528.7,188.2 530.5,185.6 C530.7,185.7 530.5,189.3 535,189.5 Z M523.3,187 C520,187 518,184.5 518,180.6 C518,173.8 522.5,169.5 526.8,169.5 C530.6,169.5 532.1,172.1 532.2,175.5 C532.3,181.1 528.7,187 523.3,187 Z" id="Shape" fill="#5BA69D" fill-rule="nonzero" opacity="0.5"></path>
            <path d="M170.3,234.8 C175.9,234.8 178.6,231.8 178.6,227.7 C178.6,220.6 172.9,215.5 165.8,215.5 C158.7,215.7 153.1,221.6 153.3,228.7 C153.5,235.5 159,241 165.8,241.2 C168.4,241.2 171,240.3 173.1,238.8 C173.3,238.6 173.5,238.4 173.5,238.2 C173.5,238 173.5,237.8 173.3,237.6 C173,237.3 172.4,237.4 172.2,237.7 C172.2,237.7 172.2,237.7 172.2,237.7 C171.7,238.3 170.3,239.4 166.2,239.5 C160,239.7 154.9,235 154.6,228.8 C154.4,222.6 159.1,217.5 165.3,217.2 C165.5,217.2 165.7,217.2 165.9,217.2 C172,217.1 177,221.5 177,227.5 C177,231.4 174.3,233.1 171.1,233.1 C170.1,233.2 169.9,232.8 170,231.3 C170.1,230.1 171.3,225.2 171.7,223.4 C171.8,222.9 171.4,222.3 170.9,222.2 C170.8,222.2 170.8,222.2 170.7,222.2 L170.6,222.2 C170.2,222.3 169.8,222.6 169.8,223 C169.8,223.3 169.7,223.6 169.7,223.8 C168.9,222.4 167.5,221.6 165.9,221.5 C162.2,221.6 159.1,224.9 158.9,229.7 C158.9,232.9 160.6,234.8 163.6,234.8 C165.4,234.8 167,233.9 168,232.4 C168,233.6 169,234.6 170.2,234.6 C170.2,234.8 170.3,234.8 170.3,234.8 Z M163.8,233.4 C161.9,233.4 160.8,232 160.8,229.8 C160.8,226 163.3,223.6 165.8,223.6 C167.9,223.6 168.8,225 168.8,227 C168.8,230 166.8,233.4 163.8,233.4 Z" id="Shape" fill="#5BA69D" fill-rule="nonzero" opacity="0.3"></path>
            <path d="M236.2,288.7 C241.8,288.7 244.5,285.7 244.5,281.6 C244.5,274.5 238.8,269.4 231.7,269.4 C224.6,269.6 219,275.5 219.2,282.6 C219.4,289.4 224.9,294.9 231.7,295.1 C234.3,295.1 236.9,294.2 239,292.7 C239.2,292.5 239.4,292.3 239.4,292.1 C239.4,291.9 239.4,291.7 239.2,291.5 C238.9,291.2 238.3,291.3 238.1,291.6 C238.1,291.6 238.1,291.6 238.1,291.6 C237.6,292.2 236.2,293.3 232.1,293.4 C225.9,293.6 220.8,288.9 220.5,282.7 C220.3,276.5 225,271.4 231.2,271.1 C231.4,271.1 231.6,271.1 231.8,271.1 C237.9,271 242.9,275.4 242.9,281.4 C242.9,285.2 240.2,287 237,287 C236,287.1 235.8,286.7 235.9,285.2 C236,284 237.2,279.1 237.6,277.3 C237.7,276.8 237.3,276.2 236.8,276.1 C236.7,276.1 236.7,276.1 236.6,276.1 L236.5,276.1 C236.1,276.2 235.7,276.5 235.7,276.9 C235.7,277.2 235.6,277.5 235.6,277.7 C234.8,276.3 233.4,275.5 231.8,275.4 C228.1,275.5 225,278.8 224.8,283.6 C224.8,286.8 226.5,288.7 229.5,288.7 C231.3,288.7 232.9,287.8 233.9,286.3 C233.9,287.5 234.9,288.5 236.1,288.5 C236,288.7 236.1,288.7 236.2,288.7 Z M229.6,287.3 C227.7,287.3 226.6,285.9 226.6,283.7 C226.6,279.9 229.1,277.5 231.6,277.5 C233.7,277.5 234.6,278.9 234.6,280.9 C234.6,284 232.7,287.3 229.6,287.3 Z" id="Shape" fill="#5BA69D" fill-rule="nonzero" opacity="0.3"></path>
            <path d="M432.7,222.9 C438.3,222.9 441,219.9 441,215.8 C441,208.7 435.3,203.6 428.2,203.6 C421.1,203.8 415.5,209.7 415.7,216.8 C415.9,223.6 421.4,229.1 428.2,229.3 C430.8,229.3 433.4,228.4 435.5,226.9 C435.7,226.7 435.9,226.5 435.9,226.3 C435.9,226.1 435.9,225.9 435.7,225.7 C435.4,225.4 434.8,225.5 434.6,225.8 C434.6,225.8 434.6,225.8 434.6,225.8 C434.1,226.4 432.7,227.5 428.6,227.6 C422.4,227.8 417.3,223.1 417,216.9 C416.8,210.7 421.5,205.6 427.7,205.3 C427.9,205.3 428.1,205.3 428.3,205.3 C434.4,205.2 439.4,209.6 439.4,215.6 C439.4,219.5 436.7,221.2 433.5,221.2 C432.5,221.3 432.3,220.9 432.4,219.4 C432.5,218.2 433.7,213.3 434.1,211.5 C434.2,211 433.8,210.4 433.3,210.3 C433.2,210.3 433.2,210.3 433.1,210.3 L433,210.3 C432.6,210.4 432.2,210.7 432.2,211.1 C432.2,211.4 432.1,211.7 432.1,211.9 C431.3,210.5 429.9,209.7 428.3,209.6 C424.6,209.7 421.5,213 421.3,217.8 C421.3,221 423,222.9 426,222.9 C427.8,222.9 429.4,222 430.4,220.5 C430.4,221.7 431.4,222.7 432.6,222.7 C432.5,222.9 432.6,222.9 432.7,222.9 Z M426.1,221.4 C424.2,221.4 423.1,220 423.1,217.8 C423.1,214 425.6,211.6 428.1,211.6 C430.2,211.6 431.1,213 431.1,215 C431.2,218.2 429.2,221.5 426.1,221.4 Z" id="Shape" fill="#5BA69D" fill-rule="nonzero" opacity="0.3"></path>
            <path d="M300.1,166.2 C305.7,166.2 308.4,163.2 308.4,159.1 C308.4,152 302.7,146.9 295.6,146.9 C288.5,147.1 282.9,153 283.1,160.1 C283.3,166.9 288.8,172.4 295.6,172.6 C298.2,172.6 300.8,171.7 302.9,170.2 C303.1,170 303.3,169.8 303.3,169.6 C303.3,169.4 303.3,169.2 303.1,169 C302.8,168.7 302.2,168.8 302,169.1 C302,169.1 302,169.1 302,169.1 C301.5,169.7 300.1,170.8 296,170.9 C289.8,171.1 284.7,166.4 284.4,160.2 C284.2,154 288.9,148.9 295.1,148.6 C295.3,148.6 295.5,148.6 295.7,148.6 C301.8,148.5 306.8,152.9 306.8,158.9 C306.8,162.8 304.1,164.5 300.9,164.5 C299.9,164.6 299.7,164.2 299.8,162.7 C299.9,161.5 301.1,156.6 301.5,154.8 C301.6,154.3 301.2,153.7 300.7,153.6 C300.6,153.6 300.6,153.6 300.5,153.6 L300.4,153.6 C300,153.7 299.6,154 299.6,154.4 C299.6,154.7 299.5,155 299.5,155.2 C298.7,153.8 297.3,153 295.7,152.9 C292,153 288.9,156.3 288.7,161.1 C288.7,164.3 290.4,166.2 293.4,166.2 C295.2,166.2 296.8,165.3 297.8,163.8 C297.8,165 298.8,166 300,166 C300,166.2 300.1,166.2 300.1,166.2 Z M293.6,164.8 C291.7,164.8 290.6,163.4 290.6,161.2 C290.6,157.4 293.1,155 295.6,155 C297.7,155 298.6,156.4 298.6,158.4 C298.6,161.5 296.6,164.8 293.6,164.8 Z" id="Shape" fill="#5BA69D" fill-rule="nonzero" opacity="0.3"></path>
            <path d="M368.6,122.8 C378.7,122.8 383.3,117.4 383.3,110.2 C383.3,97.6 373.1,88.4 360.5,88.4 C347.8,89 338,99.8 338.6,112.4 C339.2,124.3 348.6,133.7 360.5,134.3 C365.2,134.3 369.7,132.8 373.5,130 C373.9,129.7 374.1,129.3 374.2,128.9 C374.3,128.5 374.1,128.1 373.9,127.8 C373.3,127.3 372.4,127.4 371.9,128 C371.9,128 371.9,128.1 371.8,128.1 C371,129.2 368.5,131.1 361.1,131.2 C350.1,131.3 341.1,122.6 340.9,111.6 C340.8,100.6 349.5,91.6 360.5,91.4 C371.4,91.3 380.3,99 380.3,109.8 C380.3,116.7 375.5,119.9 369.7,119.8 C367.9,119.9 367.5,119.2 367.7,116.6 C367.9,114.5 369.9,105.6 370.6,102.6 C370.8,101.7 370.3,100.8 369.3,100.5 C369.1,100.5 369,100.4 368.8,100.5 L368.7,100.5 C367.9,100.6 367.3,101.2 367.2,102 C367.1,102.5 367.1,103 367.1,103.5 C365.7,101 363.2,99.5 360.3,99.5 C353.8,99.6 348.1,105.5 347.9,114.1 C347.9,119.9 351,123.2 356.2,123.2 C359.4,123.1 362.3,121.5 364.1,118.9 C364.3,119 364.2,122.6 368.6,122.8 Z M356.9,120.2 C353.6,120.2 351.6,117.7 351.6,113.8 C351.6,107 356.1,102.7 360.4,102.7 C364.2,102.7 365.7,105.3 365.8,108.7 C365.9,114.3 362.3,120.2 356.9,120.2 Z" id="Shape" fill="#5BA69D" fill-rule="nonzero" opacity="0.5"></path>
            <g id="Group" opacity="0.5" transform="translate(440.000000, 223.000000)" fill="url(#linearGradient-8)" fill-rule="nonzero">
                <path d="M96.4,106.5 C127.6,106.5 142,89.8 142,67.4 C142,28.3 110.5,0.1 71.3,0.1 C32.1,0.1 0.6,32 0.6,71.2 C0.6,110.4 32.1,142.3 71.3,142.3 C85.7,142.2 99.8,137.6 111.5,129.1 C112.7,128.3 113.5,127 113.7,125.6 C113.9,124.4 113.5,123.2 112.6,122.3 C110.7,120.7 107.9,120.9 106.3,122.8 C106.2,122.9 106.2,123 106.1,123.1 C103.5,126.5 95.8,132.3 72.9,132.8 C38.3,133.6 9.4,106 9.3,71.5 C9.2,37.2 37.4,10.1 71.3,9.7 C105.2,9.3 132.5,33.3 132.5,66.7 C132.5,88 117.7,97.9 99.8,97.5 C94.1,97.9 93,95.6 93.7,87.6 C94.3,81.1 100.6,53.7 102.8,44.2 C103.5,41.4 101.7,38.5 98.9,37.8 C98.4,37.7 98,37.6 97.5,37.7 L97.1,37.7 C94.7,38 92.8,39.9 92.5,42.3 C92.3,43.8 92.2,45.4 92.2,46.9 C88.8,40.1 80.8,34.7 71.3,34.4 C51.2,34.8 33.7,53 32.9,79.6 C32.9,97.5 42.4,107.7 58.7,107.7 C70.1,107.7 78.5,100.9 83,94.4 C83.1,94.4 82.7,105.8 96.4,106.5 Z M60.3,98.5 C50,98.5 44,90.9 44,78.7 C44,57.8 58.1,44.5 71.4,44.5 C83.2,44.5 87.7,52.5 88.1,63.1 C88,80.3 77,98.6 60.3,98.5 Z" id="Shape"></path>
            </g>
            <path d="M535.5,328.3 C565.6,328.3 579.5,312.2 579.5,290.5 C579.5,252.7 549.1,225.6 511.3,225.6 C473.5,225.6 443.1,256.4 443.1,294.1 C443.1,331.8 473.5,362.6 511.3,362.6 C525.2,362.5 538.8,358 550.1,349.9 C551.2,349.1 552,347.9 552.2,346.5 C552.4,345.3 552,344.1 551.1,343.3 C549.3,341.8 546.6,342 545,343.8 C544.9,343.9 544.9,344 544.8,344.1 C542.3,347.4 534.9,352.9 512.8,353.4 C479.4,354.2 451.5,327.6 451.4,294.2 C451.3,261.1 478.5,235 511.2,234.6 C543.9,234.2 570.2,257.3 570.2,289.6 C570.2,310.1 555.9,319.7 538.7,319.3 C533.2,319.7 532.1,317.5 532.8,309.8 C533.4,303.5 539.4,277.1 541.6,267.9 C542.3,265.2 540.6,262.4 537.8,261.7 C537.4,261.6 536.9,261.5 536.4,261.6 L536,261.6 C533.7,261.9 531.8,263.7 531.6,266.1 C531.4,267.6 531.3,269.1 531.3,270.6 C528,264 520.3,258.9 511.1,258.5 C491.7,258.9 474.8,276.5 474.1,302.1 C474.1,319.3 483.3,329.2 499,329.2 C510,329.2 518.1,322.6 522.5,316.4 C522.7,316.6 522.3,327.6 535.5,328.3 Z M500.7,320.6 C490.8,320.6 484.9,313.3 484.9,301.5 C484.9,281.3 498.5,268.5 511.3,268.5 C522.7,268.5 527.1,276.2 527.4,286.5 C527.4,303 516.8,320.6 500.7,320.6 Z" id="Shape" fill="#5BA69D" fill-rule="nonzero"></path>
            <path d="M8.4,123.9 C9.3,119.7 14.9,118.1 19,119.4 C23.1,120.7 26.3,123.9 30,126.2 C33.7,128.5 38.7,129.8 42.1,127.2 C45.4,124.8 45.9,119.9 48.6,116.7 C51.3,113.5 56.1,112.4 60.4,113.1 C64.7,113.8 68.5,116 72.2,118.1 L95.1,131" id="Shape" stroke="#535461" stroke-width="3" opacity="0.2"></path>
            <path d="M0.4,148.9 C1.3,144.7 6.9,143.1 11,144.4 C15.1,145.7 18.3,148.9 22,151.2 C25.7,153.5 30.7,154.8 34.1,152.2 C37.4,149.8 37.9,144.9 40.6,141.7 C43.3,138.5 48.1,137.4 52.4,138.1 C56.7,138.8 60.5,141 64.2,143.1 L87.1,156" id="Shape" stroke="#535461" stroke-width="3" opacity="0.2"></path>
            <path d="M8.4,358.9 C9.3,363.1 14.9,364.7 19,363.4 C23.1,362.1 26.3,358.9 30,356.6 C33.7,354.3 38.7,353 42.1,355.6 C45.4,358 45.9,362.9 48.6,366.1 C51.3,369.3 56.1,370.4 60.4,369.7 C64.7,369 68.5,366.8 72.2,364.7 L95.1,351.8" id="Shape" stroke="#535461" stroke-width="3" opacity="0.2"></path>
            <path d="M0.4,333.9 C1.3,338.1 6.9,339.7 11,338.4 C15.1,337.1 18.3,333.9 22,331.6 C25.7,329.3 30.7,328 34.1,330.6 C37.4,333 37.9,337.9 40.6,341.1 C43.3,344.3 48.1,345.4 52.4,344.7 C56.7,344 60.5,341.8 64.2,339.7 L87.1,326.8" id="Shape" stroke="#535461" stroke-width="3" opacity="0.2"></path>
        </g>
    </g>
</svg>