<?xml version="1.0" encoding="UTF-8"?>
<svg width="19px" height="18px" viewBox="0 0 19 18" version="1.1" xmlns="http://www.w3.org/2000/svg" xmlns:xlink="http://www.w3.org/1999/xlink">
    <!-- Generator: Sketch 50.2 (55047) - http://www.bohemiancoding.com/sketch -->
    <title>Fill-5</title>
    <desc>Created with Sketch.</desc>
    <defs></defs>
    <g id="Page-1" stroke="none" stroke-width="1" fill="none" fill-rule="evenodd">
        <g id="btn-github" transform="translate(-14.000000, -14.000000)" fill="#161514" fill-rule="nonzero">
            <g id="github" transform="translate(14.000000, 14.000000)">
                <path d="M9.1677479,0.0673109244 C4.12366387,0.0673109244 0.0334285714,4.15678992 0.0334285714,9.20163025 C0.0334285714,13.2374118 2.65068908,16.6613445 6.28003361,17.8691597 C6.73653782,17.9537143 6.90413445,17.6710084 6.90413445,17.4297479 C6.90413445,17.2119328 6.89566387,16.4923866 6.89173109,15.7291261 C4.35055462,16.2816807 3.81433613,14.651395 3.81433613,14.651395 C3.39882353,13.5955966 2.80013445,13.3148571 2.80013445,13.3148571 C1.97137815,12.7479328 2.86260504,12.7595798 2.86260504,12.7595798 C3.77984874,12.8240168 4.26282353,13.7008739 4.26282353,13.7008739 C5.07751261,15.0973109 6.39968067,14.6935966 6.92092437,14.4602017 C7.00290756,13.8698319 7.23963025,13.4668739 7.50085714,13.2387731 C5.472,13.0077983 3.33922689,12.2245714 3.33922689,8.72455462 C3.33922689,7.72729412 3.69605042,6.91245378 4.28036975,6.27277311 C4.18552941,6.04270588 3.87287395,5.11366387 4.36885714,3.85547899 C4.36885714,3.85547899 5.13589916,3.60998319 6.88144538,4.79178151 C7.61006723,4.58939496 8.39147899,4.48789916 9.1677479,4.48442017 C9.94401681,4.48789916 10.7260336,4.58939496 11.4560168,4.79178151 C13.1994454,3.60998319 13.9654286,3.85547899 13.9654286,3.85547899 C14.4626218,5.11366387 14.1498151,6.04270588 14.0549748,6.27277311 C14.6406555,6.91245378 14.9950588,7.72729412 14.9950588,8.72455462 C14.9950588,12.2328908 12.8582017,13.0053782 10.8242017,13.2315126 C11.1518319,13.5149748 11.4437647,14.0708571 11.4437647,14.9230588 C11.4437647,16.1452437 11.4331765,17.1288908 11.4331765,17.4297479 C11.4331765,17.6728235 11.5975966,17.9576471 12.060605,17.8679496 C15.6879832,16.6587731 18.301916,13.2360504 18.301916,9.20163025 C18.301916,4.15678992 14.2122857,0.0673109244 9.1677479,0.0673109244" id="Fill-5"></path>
            </g>
        </g>
    </g>
</svg>