<?xml version="1.0" encoding="UTF-8"?>
<svg width="520px" height="331px" viewBox="0 0 520 331" version="1.1" xmlns="http://www.w3.org/2000/svg" xmlns:xlink="http://www.w3.org/1999/xlink">
    <!-- Generator: Sketch 50.2 (55047) - http://www.bohemiancoding.com/sketch -->
    <title>Group 2</title>
    <desc>Created with Sketch.</desc>
    <defs></defs>
    <g id="Page-1" stroke="none" stroke-width="1" fill="none" fill-rule="evenodd">
        <g id="Group-2" fill-rule="nonzero">
            <polygon id="Shape-Copy" fill="#5BA69D" points="520 171.576827 245.21828 330.580796 0 189.008411 274.78172 30"></polygon>
            <polygon id="Shape" fill="#FFD140" points="450 171.576827 245.21828 290.580796 0 149.008411 204.78172 30"></polygon>
            <g id="Asset-1" transform="translate(69.000000, 0.000000)">
                <g id="Group" transform="translate(1.000000, 0.000000)">
                    <g id="Shape">
                        <polygon fill="#C48378" points="9.72 0 0.36 5.44 0 131.51 194.8 243.98 204.16 238.53 204.52 112.47"></polygon>
                        <g>
                            <polygon fill="#FF7D5F" points="195.16 117.91 194.8 243.98 0 131.51 0.36 5.44"></polygon>
                            <polygon fill="#C48378" points="195.16 117.91 204.52 112.47 204.16 238.53 194.8 243.98"></polygon>
                            <polygon fill="#EFAC92" points="0.36 5.44 9.72 0 204.52 112.47 195.16 117.91"></polygon>
                        </g>
                    </g>
                    <g transform="translate(16.000000, 38.000000)" id="Shape">
                        <polygon fill="#75757A" points="0.31 84.53 0.54 6.14 9.9 0.7 156.25 85.19 156.03 163.58 146.66 169.02"></polygon>
                        <g>
                            <polygon fill="#515155" points="146.88 90.63 146.66 169.02 0.31 84.53 0.54 6.14"></polygon>
                            <polygon fill="#75757A" points="146.88 90.63 156.25 85.19 156.03 163.58 146.66 169.02"></polygon>
                            <polygon fill="#828288" points="0.54 6.14 9.9 0.7 156.25 85.19 146.88 90.63"></polygon>
                        </g>
                    </g>
                    <g transform="translate(26.000000, 65.000000)" id="Shape">
                        <polygon fill="#7BB6C6" points="3.23 47.76 3.36 2.4 126.57 73.59 126.44 118.95"></polygon>
                        <polygon fill="#75757A" points="3.23 47.76 0.39 49.4 0.52 0.85 3.36 2.4"></polygon>
                        <polygon fill="#828288" points="126.44 118.95 126.44 122.23 0.39 49.4 3.23 47.76"></polygon>
                    </g>
                    <g transform="translate(25.000000, 20.000000)" fill="#FFD140" id="Shape">
                        <polygon points="5.85 3.23 5.81 16.08 0.24 12.87 0.28 0.02"></polygon>
                        <polygon points="14.17 8.04 14.14 20.89 8.57 17.68 8.61 4.82"></polygon>
                        <polygon points="22.5 12.84 22.47 25.7 16.9 22.48 16.93 9.63"></polygon>
                        <polygon points="30.78 17.62 30.74 30.48 25.17 27.26 25.21 14.41"></polygon>
                        <polygon points="39.11 22.43 39.07 35.28 33.5 32.07 33.54 19.22"></polygon>
                        <polygon points="47.43 27.24 47.4 40.09 41.83 36.88 41.86 24.02"></polygon>
                        <polygon points="55.76 32.05 55.72 44.9 50.15 41.68 50.19 28.83"></polygon>
                        <polygon points="64.08 36.85 64.05 49.71 58.48 46.49 58.52 33.64"></polygon>
                        <polygon points="72.41 41.66 72.38 54.51 66.81 51.3 66.84 38.45"></polygon>
                        <polygon points="80.69 46.44 80.65 59.29 75.08 56.08 75.12 43.22"></polygon>
                        <polygon points="89.02 51.25 88.98 64.1 83.41 60.89 83.45 48.03"></polygon>
                        <polygon points="97.34 56.05 97.31 68.91 91.74 65.69 91.77 52.84"></polygon>
                    </g>
                    <g transform="translate(20.000000, 52.000000)" fill="#666666" id="Shape">
                        <polygon points="137.53 79.35 137.52 83.45 0.64 4.42 0.65 0.32"></polygon>
                        <polygon points="137.53 142.93 137.52 147.03 0.64 68 0.65 63.9"></polygon>
                    </g>
                </g>
                <g id="Group" transform="translate(177.000000, 113.000000)">
                    <path d="M0.49,6.45 C0.807629671,11.8513297 3.68780113,16.7754938 8.24,19.7 C12.5,22.1 15.92,20.07 15.89,15.16 C15.86,10.25 12.39,4.32 8.14,1.92 C3.89,-0.48 0.47,1.54 0.49,6.45 Z" id="Shape" fill="#FEE53F"></path>
                    <ellipse id="Oval" fill="#82937C" transform="translate(7.038400, 10.701600) rotate(-30.173520) translate(-7.038400, -10.701600) " cx="7.0384" cy="10.7016" rx="3.29274301" ry="5.69017826"></ellipse>
                    <path d="M12.2,13.81 C12.2326023,13.5646692 12.2493038,13.3174866 12.25,13.07 C12.0854399,10.2165926 10.5649902,7.61435608 8.16,6.07 C7.97053403,5.95932502 7.77335954,5.86240874 7.57,5.78 C7.52742784,6.02086373 7.51066638,6.26558108 7.52,6.51 C7.67423621,9.36396214 9.19273592,11.9692312 11.6,13.51 C11.8019186,13.6261554 12.0125517,13.7264569 12.23,13.81" id="Shape" fill="#FFFFFF"></path>
                </g>
                <g id="Group" transform="translate(177.000000, 215.000000)">
                    <path d="M0.49,6.06 C0.807629671,11.4613297 3.68780113,16.3854938 8.24,19.31 C12.5,21.72 15.92,19.69 15.89,14.78 C15.5723703,9.37867031 12.6921989,4.4545062 8.14,1.53 C3.89,-0.88 0.47,1.15 0.49,6.06 Z" id="Shape" fill="#FEE53F"></path>
                    <ellipse id="Oval" fill="#82937C" transform="translate(6.783400, 9.846200) rotate(-30.173520) translate(-6.783400, -9.846200) " cx="6.7834" cy="9.8462" rx="3.29274301" ry="5.69017826"></ellipse>
                    <path d="M12.2,13.42 C12.2326023,13.1746692 12.2493038,12.9274866 12.25,12.68 C12.0854399,9.82659264 10.5649902,7.22435608 8.16,5.68 C7.97042355,5.57240574 7.77323074,5.47882271 7.57,5.4 C7.5274677,5.6442354 7.51070907,5.89226303 7.52,6.14 C7.67909401,8.9925057 9.19639734,11.5957222 11.6,13.14 C11.8019186,13.2561554 12.0125517,13.3564569 12.23,13.44" id="Shape" fill="#FFFFFF"></path>
                </g>
                <g id="Group" transform="translate(3.000000, 115.000000)">
                    <path d="M0.9,6.11 C0.9,11.02 4.4,16.95 8.65,19.35 C12.9,21.75 16.33,19.73 16.3,14.82 C15.9823703,9.41867031 13.1021989,4.4945062 8.55,1.57 C4.3,-0.83 0.88,1.2 0.9,6.11 Z" id="Shape" fill="#FEE53F"></path>
                    <path d="M4.55,8.17 C4.70586007,11.0234758 6.22395942,13.628058 8.63,15.17 C10.87,16.44 12.63,15.37 12.63,12.78 C12.4692959,9.92797804 10.9523882,7.32544038 8.55,5.78 C6.34,4.51 4.53,5.58 4.55,8.17 Z" id="Shape" fill="#82937C"></path>
                    <path d="M12.61,13.47 C12.6426023,13.2246692 12.6593038,12.9774866 12.66,12.73 C12.4970474,9.87610757 10.9762021,7.27319379 8.57,5.73 C8.38162376,5.61730815 8.18429078,5.52031398 7.98,5.44 C7.93742784,5.68086373 7.92066638,5.92558108 7.93,6.17 C8.08586007,9.02347579 9.60395942,11.628058 12.01,13.17 C12.2119186,13.2861554 12.4225517,13.3864569 12.64,13.47" id="Shape" fill="#FFFFFF"></path>
                </g>
                <g id="Group" transform="translate(0.000000, 10.000000)">
                    <ellipse id="Oval" fill="#FEE53F" transform="translate(11.600756, 13.062656) rotate(-30.160000) translate(-11.600756, -13.062656) " cx="11.6007564" cy="13.0626558" rx="6.29" ry="10.85"></ellipse>
                    <ellipse id="Oval" fill="#82937C" transform="translate(11.600756, 13.062656) rotate(-30.160000) translate(-11.600756, -13.062656) " cx="11.6007564" cy="13.0626558" rx="3.31" ry="5.72"></ellipse>
                    <path d="M15.61,16.07 C15.642591,15.8213169 15.6592916,15.5708086 15.66,15.32 C15.4986595,12.4656216 13.977417,9.86202795 11.57,8.32 C11.3816238,8.20730815 11.1842908,8.11031398 10.98,8.03 C10.9374278,8.27086373 10.9206664,8.51558108 10.93,8.76 C11.0858601,11.6134758 12.6039594,14.218058 15.01,15.76 C15.2119186,15.8761554 15.4225517,15.9764569 15.64,16.06" id="Shape" fill="#FFFFFF"></path>
                </g>
                <g id="Group" transform="translate(31.000000, 77.000000)" fill="#CCB7AC">
                    <polygon id="Shape" points="6.62 3.72 6.58 14.41 1 11.18 1.03 0.5"></polygon>
                    <polygon id="Shape" points="14.24 8.13 14.22 18.81 8.61 15.58 8.64 4.89"></polygon>
                    <polygon id="Shape" points="21.88 12.53 21.84 23.22 16.24 19.98 16.27 9.3"></polygon>
                    <polygon id="Shape" points="29.51 16.94 29.48 27.62 23.87 24.39 23.9 13.7"></polygon>
                    <polygon id="Shape" points="37.14 21.34 37.11 32.03 31.5 28.79 31.53 18.11"></polygon>
                    <polygon id="Shape" points="44.77 25.75 44.73 36.43 39.13 33.2 39.16 22.51"></polygon>
                    <polygon id="Shape" points="52.38 30.14 52.35 40.83 46.76 37.6 46.79 26.92"></polygon>
                    <polygon id="Shape" points="60.01 34.55 59.98 45.23 54.39 42.01 54.42 31.32"></polygon>
                    <polygon id="Shape" points="67.64 38.96 67.61 49.64 62.02 46.41 62.05 35.73"></polygon>
                    <polygon id="Shape" points="75.27 43.36 75.24 54.04 69.65 50.82 69.68 40.14"></polygon>
                    <polygon id="Shape" points="82.9 47.77 82.87 58.45 77.28 55.22 77.31 44.54"></polygon>
                    <polygon id="Shape" points="90.53 52.17 90.5 62.85 84.89 59.62 84.92 48.94"></polygon>
                    <polygon id="Shape" points="98.16 56.58 98.13 67.26 92.53 64.02 92.56 53.34"></polygon>
                    <polygon id="Shape" points="105.79 60.98 105.76 71.66 100.16 68.43 100.19 57.75"></polygon>
                    <polygon id="Shape" points="113.42 65.39 113.39 76.07 107.78 72.83 107.81 62.15"></polygon>
                    <polygon id="Shape" points="121.03 69.78 121 80.47 115.41 77.24 115.45 66.56"></polygon>
                    <polygon id="Shape" points="6.57 20.11 6.54 30.8 0.95 27.57 0.98 16.89"></polygon>
                    <polygon id="Shape" points="14.2 24.52 14.17 35.2 8.56 31.97 8.59 21.28"></polygon>
                    <polygon id="Shape" points="21.83 28.92 21.8 39.61 16.19 36.37 16.22 25.69"></polygon>
                    <polygon id="Shape" points="29.46 33.33 29.43 44.01 23.82 40.78 23.85 30.09"></polygon>
                    <polygon id="Shape" points="37.09 37.73 37.06 48.42 31.45 45.18 31.48 34.5"></polygon>
                    <polygon id="Shape" points="44.72 42.14 44.69 52.82 39.08 49.59 39.11 38.9"></polygon>
                    <polygon id="Shape" points="52.33 46.53 52.3 57.22 46.71 53.99 46.75 43.31"></polygon>
                    <polygon id="Shape" points="59.96 50.94 59.93 61.62 54.34 58.4 54.38 47.71"></polygon>
                    <polygon id="Shape" points="67.59 55.34 67.56 66.03 61.97 62.8 62 52.12"></polygon>
                    <polygon id="Shape" points="75.22 59.75 75.19 70.43 69.61 67.21 69.64 56.53"></polygon>
                    <polygon id="Shape" points="82.85 64.16 82.82 74.84 77.23 71.61 77.27 60.93"></polygon>
                    <polygon id="Shape" points="90.48 68.56 90.45 79.24 84.85 76.01 84.88 65.33"></polygon>
                    <polygon id="Shape" points="98.11 72.97 98.08 83.65 92.48 80.41 92.51 69.73"></polygon>
                    <polygon id="Shape" points="105.74 77.37 105.71 88.05 100.11 84.82 100.14 74.14"></polygon>
                    <polygon id="Shape" points="113.37 81.78 113.34 92.46 107.74 89.22 107.77 78.54"></polygon>
                    <polygon id="Shape" points="120.99 86.17 120.96 96.85 115.37 93.63 115.4 82.95"></polygon>
                </g>
                <g id="Group" transform="translate(32.000000, 77.000000)" fill="#889984">
                    <polygon id="Shape" points="4.91 3.3 5.99 3.92 5.98 5.15 4.91 4.53"></polygon>
                    <polygon id="Shape" points="4.91 5.88 4.91 4.64 5.98 5.26 5.98 6.5"></polygon>
                    <polygon id="Shape" points="4.9 7.22 4.91 5.99 5.98 6.61 5.98 7.84"></polygon>
                    <polygon id="Shape" points="4.89 12.63 4.89 11.4 5.97 12.02 5.96 13.25"></polygon>
                    <polygon id="Shape" points="4.89 11.28 4.9 10.05 5.97 10.67 5.97 11.91"></polygon>
                    <polygon id="Shape" points="4.9 9.92 4.9 8.7 5.97 9.32 5.97 10.54"></polygon>
                    <polygon id="Shape" points="4.9 8.57 4.9 7.36 5.98 7.98 5.97 9.19"></polygon>
                    <polygon id="Shape" points="3.73 7.89 3.73 6.68 4.8 7.3 4.8 8.52"></polygon>
                    <polygon id="Shape" points="2.55 7.22 2.56 6 3.62 6.61 3.61 7.83"></polygon>
                    <polygon id="Shape" points="1.38 6.54 1.39 5.33 2.44 5.94 2.44 7.15"></polygon>
                    <polygon id="Shape" points="0.22 1.82 0.23 0.59 1.28 1.2 1.28 2.43"></polygon>
                    <polygon id="Shape" points="0.21 7.23 0.21 6 1.27 6.61 1.26 7.84"></polygon>
                    <polygon id="Shape" points="0.21 5.86 0.21 4.65 1.27 5.26 1.27 6.47"></polygon>
                    <polygon id="Shape" points="0.21 4.52 0.22 3.3 1.28 3.91 1.27 5.13"></polygon>
                    <polygon id="Shape" points="0.22 3.17 0.22 1.94 1.28 2.55 1.28 3.78"></polygon>
                    <polygon id="Shape" points="0.2 9.92 0.2 8.69 1.26 9.3 1.26 10.53"></polygon>
                    <polygon id="Shape" points="0.2 8.58 0.21 7.34 1.26 7.95 1.26 9.19"></polygon>
                    <polygon id="Shape" points="12.52 7.69 13.59 8.31 13.59 9.54 12.52 8.92"></polygon>
                    <polygon id="Shape" points="12.49 17.02 12.49 15.79 13.57 16.41 13.57 17.64"></polygon>
                    <polygon id="Shape" points="11.34 8.24 11.35 7.01 12.4 7.62 12.4 8.85"></polygon>
                    <polygon id="Shape" points="11.33 12.28 11.33 11.07 12.39 11.68 12.39 12.9"></polygon>
                    <polygon id="Shape" points="11.32 16.34 11.32 15.11 12.38 15.72 12.38 16.96"></polygon>
                    <polygon id="Shape" points="10.17 7.57 10.17 6.33 11.23 6.94 11.23 8.18"></polygon>
                    <polygon id="Shape" points="10.16 11.61 10.16 10.39 11.22 11 11.22 12.22"></polygon>
                    <polygon id="Shape" points="10.15 15.67 10.15 14.43 11.21 15.04 11.21 16.28"></polygon>
                    <polygon id="Shape" points="8.98 6.88 8.98 5.65 10.06 6.27 10.06 7.5"></polygon>
                    <polygon id="Shape" points="8.97 10.92 8.97 9.71 10.05 10.33 10.05 11.54"></polygon>
                    <polygon id="Shape" points="8.96 14.98 8.96 13.75 10.04 14.37 10.03 15.6"></polygon>
                    <polygon id="Shape" points="7.8 8.9 7.8 7.68 8.88 8.3 8.88 9.52"></polygon>
                    <polygon id="Shape" points="7.8 7.55 7.81 6.32 8.88 6.94 8.88 8.17"></polygon>
                    <polygon id="Shape" points="7.81 6.2 7.81 4.97 8.89 5.59 8.88 6.82"></polygon>
                    <polygon id="Shape" points="7.79 11.61 7.8 10.38 8.87 11 8.87 12.23"></polygon>
                    <polygon id="Shape" points="7.8 10.25 7.8 9.03 8.88 9.65 8.87 10.86"></polygon>
                    <polygon id="Shape" points="7.79 14.31 7.79 13.07 8.86 13.69 8.86 14.92"></polygon>
                    <polygon id="Shape" points="7.79 12.96 7.79 11.72 8.87 12.34 8.87 13.58"></polygon>
                    <polygon id="Shape" points="20.1 20.18 21.16 20.79 21.15 22.02 20.1 21.41"></polygon>
                    <polygon id="Shape" points="18.91 20.73 18.91 19.49 19.98 20.11 19.98 21.35"></polygon>
                    <polygon id="Shape" points="17.73 20.05 17.74 18.81 18.81 19.43 18.81 20.67"></polygon>
                    <polygon id="Shape" points="16.56 19.37 16.57 18.14 17.64 18.76 17.64 19.99"></polygon>
                    <polygon id="Shape" points="15.41 13.29 15.41 12.07 16.48 12.69 16.48 13.91"></polygon>
                    <polygon id="Shape" points="15.39 18.69 15.39 17.46 16.47 18.08 16.47 19.32"></polygon>
                    <polygon id="Shape" points="15.39 17.35 15.4 16.11 16.47 16.73 16.47 17.97"></polygon>
                    <polygon id="Shape" points="15.4 15.98 15.4 14.77 16.48 15.39 16.47 16.6"></polygon>
                    <polygon id="Shape" points="15.4 14.64 15.41 13.42 16.48 14.04 16.48 15.25"></polygon>
                    <polygon id="Shape" points="16.47 11.32 16.47 12.55 15.41 11.94 15.41 10.71"></polygon>
                    <polygon id="Shape" points="16.48 9.97 16.47 11.2 15.41 10.59 15.42 9.36"></polygon>
                    <polygon id="Shape" points="27.69 24.56 28.76 25.18 28.76 26.41 27.68 25.79"></polygon>
                    <polygon id="Shape" points="26.51 25.12 26.52 23.88 27.59 24.5 27.59 25.74"></polygon>
                    <polygon id="Shape" points="25.34 24.44 25.34 23.2 26.42 23.82 26.41 25.06"></polygon>
                    <polygon id="Shape" points="24.17 23.76 24.17 22.53 25.23 23.14 25.23 24.37"></polygon>
                    <polygon id="Shape" points="23.01 19.03 23.01 17.81 24.08 18.43 24.08 19.65"></polygon>
                    <polygon id="Shape" points="24.08 14.36 24.08 15.59 23.02 14.98 23.02 13.75"></polygon>
                    <polygon id="Shape" points="24.08 15.71 24.07 16.94 23.01 16.33 23.02 15.1"></polygon>
                    <polygon id="Shape" points="23.01 17.68 23.01 16.46 24.09 17.08 24.08 18.3"></polygon>
                    <polygon id="Shape" points="23 21.74 23 20.5 24.08 21.12 24.07 22.36"></polygon>
                    <polygon id="Shape" points="23 20.37 23.01 19.16 24.08 19.78 24.08 20.99"></polygon>
                    <polygon id="Shape" points="22.99 23.08 23 21.85 24.07 22.47 24.07 23.71"></polygon>
                    <polygon id="Shape" points="35.3 26.12 35.3 24.91 36.38 25.53 36.37 26.74"></polygon>
                    <polygon id="Shape" points="35.3 24.78 35.31 23.54 36.38 24.16 36.38 25.4"></polygon>
                    <polygon id="Shape" points="35.31 22.19 36.39 22.81 36.38 24.05 35.31 23.43"></polygon>
                    <polygon id="Shape" points="35.3 27.47 35.3 26.25 36.37 26.87 36.37 28.09"></polygon>
                    <polygon id="Shape" points="35.29 28.84 35.3 27.6 36.37 28.22 36.37 29.46"></polygon>
                    <polygon id="Shape" points="34.14 21.4 34.14 20.17 35.22 20.79 35.21 22.03"></polygon>
                    <polygon id="Shape" points="34.11 29.51 34.12 28.27 35.19 28.89 35.19 30.13"></polygon>
                    <polygon id="Shape" points="32.97 20.73 32.97 19.49 34.03 20.1 34.02 21.34"></polygon>
                    <polygon id="Shape" points="32.94 28.83 32.95 27.59 34 28.2 34 29.44"></polygon>
                    <polygon id="Shape" points="31.79 20.05 31.8 18.82 32.85 19.43 32.85 20.66"></polygon>
                    <polygon id="Shape" points="31.77 28.15 31.77 26.92 32.83 27.53 32.83 28.76"></polygon>
                    <polygon id="Shape" points="30.6 26.13 30.6 24.89 31.66 25.5 31.66 26.74"></polygon>
                    <polygon id="Shape" points="30.61 24.78 30.61 23.55 31.67 24.16 31.66 25.39"></polygon>
                    <polygon id="Shape" points="30.61 23.42 30.61 22.2 31.67 22.81 31.67 24.03"></polygon>
                    <polygon id="Shape" points="30.61 22.07 30.62 20.85 31.67 21.46 31.67 22.68"></polygon>
                    <polygon id="Shape" points="30.62 20.72 30.62 19.49 31.68 20.1 31.67 21.33"></polygon>
                    <polygon id="Shape" points="40.55 31.89 40.55 30.67 41.61 31.29 41.61 32.5"></polygon>
                    <polygon id="Shape" points="40.55 30.56 40.56 29.33 41.62 29.94 41.61 31.17"></polygon>
                    <polygon id="Shape" points="40.56 27.98 41.62 28.59 41.62 29.83 40.56 29.22"></polygon>
                    <polygon id="Shape" points="39.37 32.54 39.38 31.31 40.45 31.93 40.45 33.16"></polygon>
                    <polygon id="Shape" points="40.45 27.92 40.44 29.15 39.39 28.54 39.39 27.3"></polygon>
                    <polygon id="Shape" points="40.44 29.26 40.44 30.5 39.38 29.89 39.39 28.65"></polygon>
                    <polygon id="Shape" points="50.51 33.56 50.51 32.32 51.57 32.93 51.57 34.17"></polygon>
                    <polygon id="Shape" points="50.51 32.21 50.52 30.97 51.58 31.58 51.57 32.82"></polygon>
                    <polygon id="Shape" points="50.52 29.63 51.58 30.24 51.58 31.47 50.52 30.86"></polygon>
                    <polygon id="Shape" points="50.5 37.62 50.5 36.38 51.56 36.99 51.56 38.23"></polygon>
                    <polygon id="Shape" points="50.5 36.25 50.51 35.03 51.56 35.64 51.56 36.86"></polygon>
                    <polygon id="Shape" points="50.51 34.9 50.51 33.69 51.57 34.3 51.56 35.51"></polygon>
                    <polygon id="Shape" points="49.31 38.28 49.31 37.04 50.39 37.66 50.38 38.9"></polygon>
                    <polygon id="Shape" points="48.16 34.9 48.16 33.68 49.22 34.29 49.22 35.51"></polygon>
                    <polygon id="Shape" points="48.16 33.55 48.17 32.33 49.22 32.94 49.22 34.16"></polygon>
                    <polygon id="Shape" points="48.15 36.26 48.16 35.03 49.22 35.64 49.21 36.87"></polygon>
                    <polygon id="Shape" points="46.96 36.92 46.97 35.69 48.04 36.31 48.04 37.54"></polygon>
                    <polygon id="Shape" points="45.81 30.84 45.81 29.62 46.87 30.23 46.86 31.45"></polygon>
                    <polygon id="Shape" points="45.81 29.49 45.81 28.26 46.87 28.87 46.87 30.1"></polygon>
                    <polygon id="Shape" points="45.81 28.14 45.82 26.91 46.88 27.52 46.87 28.76"></polygon>
                    <polygon id="Shape" points="45.8 32.19 45.81 30.97 46.86 31.58 46.86 32.8"></polygon>
                    <polygon id="Shape" points="45.79 34.9 45.8 33.66 46.86 34.28 46.85 35.51"></polygon>
                    <polygon id="Shape" points="45.8 33.55 45.8 32.32 46.86 32.93 46.86 34.16"></polygon>
                    <polygon id="Shape" points="58.11 40.64 58.11 39.42 59.17 40.03 59.17 41.25"></polygon>
                    <polygon id="Shape" points="58.11 39.29 58.11 38.08 59.17 38.69 59.17 39.9"></polygon>
                    <polygon id="Shape" points="58.11 37.95 58.12 36.71 59.18 37.32 59.17 38.56"></polygon>
                    <polygon id="Shape" points="58.12 35.36 59.18 35.97 59.18 37.21 58.12 36.6"></polygon>
                    <polygon id="Shape" points="58.1 42.01 58.11 40.77 59.17 41.38 59.16 42.62"></polygon>
                    <polygon id="Shape" points="56.93 34.57 56.94 33.33 58.01 33.95 58.01 35.19"></polygon>
                    <polygon id="Shape" points="56.91 42.67 56.91 41.43 57.99 42.05 57.98 43.29"></polygon>
                    <polygon id="Shape" points="55.76 33.89 55.77 32.65 56.84 33.27 56.84 34.51"></polygon>
                    <polygon id="Shape" points="55.74 41.99 55.74 40.75 56.82 41.38 56.81 42.61"></polygon>
                    <polygon id="Shape" points="54.59 33.21 54.59 31.98 55.67 32.6 55.66 33.83"></polygon>
                    <polygon id="Shape" points="54.57 41.31 54.57 40.08 55.64 40.7 55.64 41.93"></polygon>
                    <polygon id="Shape" points="53.41 33.88 53.42 32.65 54.47 33.26 54.47 34.49"></polygon>
                    <polygon id="Shape" points="53.4 39.29 53.4 38.05 54.46 38.67 54.46 39.9"></polygon>
                    <polygon id="Shape" points="53.4 37.94 53.41 36.71 54.46 37.32 54.46 38.55"></polygon>
                    <polygon id="Shape" points="53.41 36.58 53.41 35.36 54.47 35.97 54.46 37.19"></polygon>
                    <polygon id="Shape" points="53.41 35.23 53.41 34.01 54.47 34.62 54.47 35.84"></polygon>
                    <polygon id="Shape" points="65.71 39.75 66.78 40.36 66.78 41.6 65.71 40.98"></polygon>
                    <polygon id="Shape" points="65.7 42.33 65.71 41.09 66.78 41.71 66.78 42.95"></polygon>
                    <polygon id="Shape" points="65.69 47.73 65.69 46.5 66.77 47.12 66.76 48.35"></polygon>
                    <polygon id="Shape" points="64.54 38.96 64.54 37.72 65.62 38.34 65.61 39.58"></polygon>
                    <polygon id="Shape" points="64.53 43 64.53 41.78 65.6 42.4 65.6 43.62"></polygon>
                    <polygon id="Shape" points="64.52 45.71 64.52 44.47 65.6 45.09 65.59 46.33"></polygon>
                    <polygon id="Shape" points="63.36 38.28 63.37 37.04 64.43 37.66 64.42 38.89"></polygon>
                    <polygon id="Shape" points="63.35 43.67 63.35 42.45 64.41 43.06 64.41 44.28"></polygon>
                    <polygon id="Shape" points="63.35 42.32 63.36 41.1 64.42 41.72 64.41 42.93"></polygon>
                    <polygon id="Shape" points="62.19 37.6 62.2 36.37 63.25 36.98 63.25 38.21"></polygon>
                    <polygon id="Shape" points="62.18 41.64 62.19 40.43 63.24 41.04 63.24 42.25"></polygon>
                    <polygon id="Shape" points="61.02 38.27 61.02 37.04 62.08 37.65 62.08 38.88"></polygon>
                    <polygon id="Shape" points="61.02 36.92 61.02 35.69 62.08 36.3 62.08 37.54"></polygon>
                    <polygon id="Shape" points="61.01 39.62 61.02 38.4 62.08 39.01 62.07 40.23"></polygon>
                    <polygon id="Shape" points="61 42.33 61.01 41.1 62.07 41.71 62.06 42.94"></polygon>
                    <polygon id="Shape" points="61.01 40.97 61.01 39.75 62.07 40.36 62.07 41.58"></polygon>
                    <polygon id="Shape" points="61 45.03 61 43.79 62.06 44.4 62.06 45.64"></polygon>
                    <polygon id="Shape" points="61 43.68 61 42.44 62.06 43.06 62.06 44.29"></polygon>
                    <polygon id="Shape" points="73.29 50.89 74.37 51.51 74.37 52.75 73.29 52.12"></polygon>
                    <polygon id="Shape" points="72.12 51.45 72.12 50.21 73.18 50.82 73.18 52.06"></polygon>
                    <polygon id="Shape" points="70.95 50.77 70.95 49.53 72.01 50.15 72 51.38"></polygon>
                    <polygon id="Shape" points="69.76 50.08 69.76 48.85 70.84 49.47 70.83 50.7"></polygon>
                    <polygon id="Shape" points="68.61 41.31 68.61 40.07 69.69 40.69 69.68 41.93"></polygon>
                    <polygon id="Shape" points="68.6 44 68.6 42.78 69.68 43.4 69.67 44.62"></polygon>
                    <polygon id="Shape" points="68.6 42.65 68.61 41.42 69.68 42.04 69.68 43.27"></polygon>
                    <polygon id="Shape" points="68.59 48.06 68.59 46.83 69.67 47.45 69.66 48.68"></polygon>
                    <polygon id="Shape" points="68.59 46.69 68.6 45.48 69.67 46.1 69.67 47.31"></polygon>
                    <polygon id="Shape" points="68.6 45.35 68.6 44.13 69.67 44.75 69.67 45.97"></polygon>
                    <polygon id="Shape" points="68.58 49.41 68.59 48.17 69.66 48.79 69.66 50.03"></polygon>
                    <polygon id="Shape" points="80.91 49.87 81.99 50.49 81.98 51.73 80.91 51.11"></polygon>
                    <polygon id="Shape" points="80.91 52.45 80.91 51.24 81.98 51.86 81.98 53.07"></polygon>
                    <polygon id="Shape" points="80.9 53.8 80.91 52.59 81.98 53.21 81.98 54.42"></polygon>
                    <polygon id="Shape" points="79.72 49.07 79.73 47.84 80.8 48.46 80.8 49.69"></polygon>
                    <polygon id="Shape" points="79.71 54.48 79.71 53.25 80.79 53.87 80.78 55.1"></polygon>
                    <polygon id="Shape" points="78.57 47.06 78.58 45.82 79.64 46.44 79.63 47.67"></polygon>
                    <polygon id="Shape" points="78.55 55.16 78.55 53.93 79.61 54.54 79.61 55.77"></polygon>
                    <polygon id="Shape" points="77.39 46.37 77.39 45.14 78.46 45.76 78.46 46.99"></polygon>
                    <polygon id="Shape" points="77.36 54.47 77.36 53.24 78.44 53.86 78.44 55.09"></polygon>
                    <polygon id="Shape" points="76.21 45.7 76.22 44.46 77.27 45.07 77.27 46.31"></polygon>
                    <polygon id="Shape" points="76.21 47.04 76.21 45.81 77.27 46.42 77.27 47.65"></polygon>
                    <polygon id="Shape" points="76.19 52.45 76.2 51.22 77.25 51.83 77.25 53.06"></polygon>
                    <polygon id="Shape" points="76.2 51.1 76.2 49.87 77.26 50.48 77.25 51.71"></polygon>
                    <polygon id="Shape" points="76.2 49.74 76.2 48.52 77.26 49.13 77.26 50.35"></polygon>
                    <polygon id="Shape" points="76.2 48.39 76.21 47.17 77.27 47.78 77.26 49"></polygon>
                    <polygon id="Shape" points="76.19 53.8 76.19 52.56 77.25 53.17 77.25 54.41"></polygon>
                    <polygon id="Shape" points="86.16 50.2 87.24 50.83 87.23 52.06 86.16 51.44"></polygon>
                    <polygon id="Shape" points="86.16 52.79 86.16 51.55 87.23 52.17 87.23 53.41"></polygon>
                    <polygon id="Shape" points="86.15 54.13 86.16 52.9 87.23 53.52 87.23 54.75"></polygon>
                    <polygon id="Shape" points="86.15 56.83 86.15 55.61 87.22 56.23 87.22 57.45"></polygon>
                    <polygon id="Shape" points="86.15 55.48 86.15 54.26 87.23 54.89 87.22 56.1"></polygon>
                    <polygon id="Shape" points="86.14 59.54 86.14 58.31 87.22 58.93 87.21 60.16"></polygon>
                </g>
                <g id="Group" transform="translate(31.000000, 78.000000)" fill="#FFEDE1">
                    <polygon id="Shape" points="5.01 2.88 6.09 3.5 6.08 4.73 5.01 4.11"></polygon>
                    <polygon id="Shape" points="5 5.46 5.01 4.22 6.08 4.84 6.08 6.08"></polygon>
                    <polygon id="Shape" points="5 6.81 5 5.57 6.08 6.19 6.08 7.43"></polygon>
                    <polygon id="Shape" points="4.98 12.21 4.99 10.98 6.06 11.6 6.06 12.83"></polygon>
                    <polygon id="Shape" points="4.99 10.87 4.99 9.63 6.07 10.25 6.06 11.49"></polygon>
                    <polygon id="Shape" points="4.99 9.5 5 8.28 6.07 8.91 6.07 10.12"></polygon>
                    <polygon id="Shape" points="5 8.15 5 6.94 6.08 7.56 6.07 8.77"></polygon>
                    <polygon id="Shape" points="3.82 7.48 3.83 6.26 4.9 6.88 4.9 8.1"></polygon>
                    <polygon id="Shape" points="2.65 6.8 2.66 5.58 3.71 6.19 3.71 7.41"></polygon>
                    <polygon id="Shape" points="1.48 6.12 1.48 4.91 2.54 5.52 2.54 6.73"></polygon>
                    <polygon id="Shape" points="0.32 1.41 0.32 0.17 1.38 0.78 1.38 2.02"></polygon>
                    <polygon id="Shape" points="0.3 6.81 0.31 5.58 1.36 6.19 1.36 7.42"></polygon>
                    <polygon id="Shape" points="0.31 5.45 0.31 4.23 1.37 4.84 1.36 6.06"></polygon>
                    <polygon id="Shape" points="0.31 4.1 0.31 2.88 1.37 3.49 1.37 4.71"></polygon>
                    <polygon id="Shape" points="0.32 2.75 0.32 1.52 1.38 2.13 1.37 3.36"></polygon>
                    <polygon id="Shape" points="0.3 9.51 0.3 8.27 1.36 8.88 1.35 10.12"></polygon>
                    <polygon id="Shape" points="0.3 8.16 0.3 6.92 1.36 7.53 1.36 8.77"></polygon>
                    <polygon id="Shape" points="12.62 7.27 13.69 7.89 13.69 9.12 12.61 8.5"></polygon>
                    <polygon id="Shape" points="12.59 16.6 12.59 15.37 13.67 15.99 13.66 17.22"></polygon>
                    <polygon id="Shape" points="11.44 7.83 11.44 6.59 12.5 7.2 12.5 8.44"></polygon>
                    <polygon id="Shape" points="11.43 11.87 11.43 10.65 12.49 11.26 12.49 12.48"></polygon>
                    <polygon id="Shape" points="11.42 15.93 11.42 14.69 12.48 15.3 12.48 16.54"></polygon>
                    <polygon id="Shape" points="10.27 7.15 10.27 5.91 11.33 6.53 11.33 7.76"></polygon>
                    <polygon id="Shape" points="10.26 11.19 10.26 9.97 11.32 10.58 11.31 11.8"></polygon>
                    <polygon id="Shape" points="10.24 15.25 10.25 14.02 11.31 14.63 11.3 15.86"></polygon>
                    <polygon id="Shape" points="9.08 6.46 9.08 5.23 10.16 5.85 10.15 7.08"></polygon>
                    <polygon id="Shape" points="9.07 10.5 9.07 9.29 10.15 9.91 10.14 11.12"></polygon>
                    <polygon id="Shape" points="9.06 14.56 9.06 13.33 10.13 13.95 10.13 15.19"></polygon>
                    <polygon id="Shape" points="7.9 8.48 7.9 7.26 8.98 7.88 8.97 9.1"></polygon>
                    <polygon id="Shape" points="7.9 7.13 7.91 5.9 8.98 6.52 8.98 7.75"></polygon>
                    <polygon id="Shape" points="7.91 5.79 7.91 4.55 8.98 5.17 8.98 6.41"></polygon>
                    <polygon id="Shape" points="7.89 11.19 7.9 9.96 8.97 10.58 8.97 11.81"></polygon>
                    <polygon id="Shape" points="7.9 9.83 7.9 8.61 8.97 9.23 8.97 10.45"></polygon>
                    <polygon id="Shape" points="7.88 13.89 7.89 12.65 8.96 13.27 8.96 14.51"></polygon>
                    <polygon id="Shape" points="7.89 12.54 7.89 11.31 8.97 11.93 8.96 13.16"></polygon>
                    <polygon id="Shape" points="20.2 19.76 21.26 20.37 21.25 21.61 20.19 20.99"></polygon>
                    <polygon id="Shape" points="19 20.31 19.01 19.07 20.08 19.69 20.08 20.93"></polygon>
                    <polygon id="Shape" points="17.83 19.63 17.84 18.4 18.91 19.02 18.91 20.25"></polygon>
                    <polygon id="Shape" points="16.66 18.95 16.66 17.72 17.74 18.34 17.73 19.58"></polygon>
                    <polygon id="Shape" points="15.5 12.87 15.51 11.65 16.58 12.27 16.58 13.49"></polygon>
                    <polygon id="Shape" points="15.49 18.28 15.49 17.04 16.56 17.66 16.56 18.9"></polygon>
                    <polygon id="Shape" points="15.49 16.93 15.49 15.69 16.57 16.32 16.57 17.55"></polygon>
                    <polygon id="Shape" points="15.49 15.56 15.5 14.35 16.57 14.97 16.57 16.19"></polygon>
                    <polygon id="Shape" points="15.5 14.22 15.5 13 16.58 13.62 16.57 14.84"></polygon>
                    <polygon id="Shape" points="16.57 10.9 16.56 12.13 15.51 11.52 15.51 10.29"></polygon>
                    <polygon id="Shape" points="16.57 9.55 16.57 10.79 15.51 10.18 15.51 8.94"></polygon>
                    <polygon id="Shape" points="27.78 24.14 28.86 24.76 28.85 26 27.78 25.38"></polygon>
                    <polygon id="Shape" points="26.61 24.7 26.61 23.46 27.69 24.08 27.68 25.32"></polygon>
                    <polygon id="Shape" points="25.44 24.02 25.44 22.79 26.51 23.41 26.51 24.64"></polygon>
                    <polygon id="Shape" points="24.26 23.34 24.27 22.11 25.33 22.72 25.32 23.95"></polygon>
                    <polygon id="Shape" points="23.1 18.61 23.11 17.39 24.18 18.01 24.18 19.23"></polygon>
                    <polygon id="Shape" points="24.18 13.94 24.17 15.18 23.11 14.57 23.12 13.33"></polygon>
                    <polygon id="Shape" points="24.17 15.29 24.17 16.52 23.11 15.91 23.11 14.68"></polygon>
                    <polygon id="Shape" points="23.11 17.26 23.11 16.04 24.19 16.67 24.18 17.88"></polygon>
                    <polygon id="Shape" points="23.09 21.32 23.1 20.08 24.17 20.71 24.17 21.94"></polygon>
                    <polygon id="Shape" points="23.1 19.95 23.1 18.74 24.18 19.36 24.17 20.58"></polygon>
                    <polygon id="Shape" points="23.09 22.67 23.09 21.43 24.17 22.05 24.17 23.29"></polygon>
                    <polygon id="Shape" points="35.4 25.7 35.4 24.49 36.47 25.11 36.47 26.33"></polygon>
                    <polygon id="Shape" points="35.4 24.36 35.4 23.12 36.48 23.74 36.47 24.98"></polygon>
                    <polygon id="Shape" points="35.41 21.78 36.48 22.4 36.48 23.63 35.4 23.01"></polygon>
                    <polygon id="Shape" points="35.39 27.05 35.4 25.84 36.47 26.46 36.47 27.67"></polygon>
                    <polygon id="Shape" points="35.39 28.42 35.39 27.18 36.47 27.8 36.46 29.04"></polygon>
                    <polygon id="Shape" points="34.23 20.99 34.24 19.75 35.31 20.37 35.31 21.61"></polygon>
                    <polygon id="Shape" points="34.21 29.09 34.22 27.85 35.29 28.47 35.29 29.71"></polygon>
                    <polygon id="Shape" points="33.06 20.31 33.07 19.08 34.13 19.69 34.12 20.92"></polygon>
                    <polygon id="Shape" points="33.04 28.41 33.04 27.18 34.1 27.79 34.1 29.02"></polygon>
                    <polygon id="Shape" points="31.89 19.63 31.89 18.4 32.95 19.01 32.95 20.24"></polygon>
                    <polygon id="Shape" points="31.87 27.73 31.87 26.5 32.93 27.11 32.93 28.35"></polygon>
                    <polygon id="Shape" points="30.7 25.71 30.7 24.48 31.76 25.09 31.76 26.32"></polygon>
                    <polygon id="Shape" points="30.7 24.36 30.71 23.13 31.77 23.74 31.76 24.97"></polygon>
                    <polygon id="Shape" points="30.71 23 30.71 21.78 31.77 22.39 31.77 23.61"></polygon>
                    <polygon id="Shape" points="30.71 21.65 30.71 20.43 31.77 21.05 31.77 22.26"></polygon>
                    <polygon id="Shape" points="30.71 20.3 30.72 19.07 31.78 19.68 31.77 20.91"></polygon>
                    <polygon id="Shape" points="40.65 31.47 40.65 30.26 41.71 30.87 41.71 32.08"></polygon>
                    <polygon id="Shape" points="40.65 30.14 40.66 28.91 41.71 29.52 41.71 30.76"></polygon>
                    <polygon id="Shape" points="40.66 27.56 41.72 28.17 41.71 29.41 40.66 28.8"></polygon>
                    <polygon id="Shape" points="39.47 32.13 39.47 30.89 40.55 31.51 40.55 32.75"></polygon>
                    <polygon id="Shape" points="40.55 27.5 40.54 28.73 39.48 28.12 39.49 26.89"></polygon>
                    <polygon id="Shape" points="40.54 28.84 40.54 30.08 39.48 29.47 39.48 28.23"></polygon>
                    <polygon id="Shape" points="50.61 33.14 50.61 31.9 51.67 32.51 51.67 33.75"></polygon>
                    <polygon id="Shape" points="50.61 31.79 50.61 30.56 51.67 31.17 51.67 32.4"></polygon>
                    <polygon id="Shape" points="50.62 29.21 51.68 29.82 51.67 31.06 50.61 30.44"></polygon>
                    <polygon id="Shape" points="50.6 37.2 50.6 35.96 51.66 36.57 51.66 37.81"></polygon>
                    <polygon id="Shape" points="50.6 35.83 50.6 34.62 51.66 35.23 51.66 36.44"></polygon>
                    <polygon id="Shape" points="50.6 34.48 50.61 33.27 51.67 33.88 51.66 35.1"></polygon>
                    <polygon id="Shape" points="49.4 37.86 49.41 36.62 50.48 37.25 50.48 38.48"></polygon>
                    <polygon id="Shape" points="48.25 34.48 48.26 33.26 49.32 33.87 49.31 35.09"></polygon>
                    <polygon id="Shape" points="48.26 33.13 48.26 31.92 49.32 32.53 49.32 33.74"></polygon>
                    <polygon id="Shape" points="48.25 35.84 48.25 34.61 49.31 35.22 49.31 36.46"></polygon>
                    <polygon id="Shape" points="47.06 36.5 47.06 35.27 48.14 35.89 48.13 37.13"></polygon>
                    <polygon id="Shape" points="45.9 30.42 45.91 29.2 46.96 29.82 46.96 31.03"></polygon>
                    <polygon id="Shape" points="45.91 29.07 45.91 27.84 46.97 28.45 46.96 29.69"></polygon>
                    <polygon id="Shape" points="45.91 27.73 45.91 26.49 46.97 27.1 46.97 28.34"></polygon>
                    <polygon id="Shape" points="45.9 31.77 45.9 30.55 46.96 31.16 46.96 32.38"></polygon>
                    <polygon id="Shape" points="45.89 34.48 45.89 33.25 46.95 33.86 46.95 35.09"></polygon>
                    <polygon id="Shape" points="45.89 33.13 45.9 31.9 46.96 32.51 46.95 33.75"></polygon>
                    <polygon id="Shape" points="58.2 40.22 58.21 39.01 59.27 39.62 59.26 40.83"></polygon>
                    <polygon id="Shape" points="58.21 38.88 58.21 37.66 59.27 38.27 59.27 39.49"></polygon>
                    <polygon id="Shape" points="58.21 37.53 58.22 36.29 59.27 36.91 59.27 38.14"></polygon>
                    <polygon id="Shape" points="58.22 34.95 59.28 35.56 59.27 36.79 58.22 36.18"></polygon>
                    <polygon id="Shape" points="58.2 41.59 58.2 40.35 59.26 40.96 59.26 42.2"></polygon>
                    <polygon id="Shape" points="57.03 34.15 57.03 32.91 58.11 33.53 58.11 34.77"></polygon>
                    <polygon id="Shape" points="57.01 42.25 57.01 41.01 58.09 41.64 58.08 42.87"></polygon>
                    <polygon id="Shape" points="55.86 33.47 55.86 32.24 56.94 32.86 56.93 34.09"></polygon>
                    <polygon id="Shape" points="55.83 41.57 55.84 40.34 56.91 40.96 56.91 42.19"></polygon>
                    <polygon id="Shape" points="54.69 32.79 54.69 31.56 55.76 32.18 55.76 33.41"></polygon>
                    <polygon id="Shape" points="54.66 40.9 54.67 39.66 55.74 40.28 55.74 41.52"></polygon>
                    <polygon id="Shape" points="53.51 33.46 53.51 32.23 54.57 32.84 54.57 34.08"></polygon>
                    <polygon id="Shape" points="53.5 38.87 53.5 37.64 54.56 38.25 54.55 39.48"></polygon>
                    <polygon id="Shape" points="53.5 37.52 53.5 36.29 54.56 36.9 54.56 38.14"></polygon>
                    <polygon id="Shape" points="53.5 36.16 53.51 34.94 54.56 35.55 54.56 36.77"></polygon>
                    <polygon id="Shape" points="53.51 34.81 53.51 33.59 54.57 34.21 54.56 35.42"></polygon>
                    <polygon id="Shape" points="65.81 39.33 66.88 39.95 66.88 41.18 65.8 40.56"></polygon>
                    <polygon id="Shape" points="65.8 41.91 65.8 40.67 66.88 41.3 66.87 42.53"></polygon>
                    <polygon id="Shape" points="65.78 47.32 65.79 46.08 66.86 46.7 66.86 47.94"></polygon>
                    <polygon id="Shape" points="64.64 38.54 64.64 37.3 65.71 37.92 65.71 39.16"></polygon>
                    <polygon id="Shape" points="64.62 42.58 64.63 41.36 65.7 41.98 65.7 43.2"></polygon>
                    <polygon id="Shape" points="64.62 45.29 64.62 44.06 65.69 44.68 65.69 45.91"></polygon>
                    <polygon id="Shape" points="63.46 37.86 63.47 36.63 64.52 37.24 64.52 38.47"></polygon>
                    <polygon id="Shape" points="63.45 43.25 63.45 42.03 64.51 42.64 64.5 43.86"></polygon>
                    <polygon id="Shape" points="63.45 41.9 63.45 40.69 64.51 41.3 64.51 42.51"></polygon>
                    <polygon id="Shape" points="62.29 37.18 62.29 35.95 63.35 36.56 63.35 37.8"></polygon>
                    <polygon id="Shape" points="62.28 41.23 62.28 40.01 63.34 40.62 63.34 41.84"></polygon>
                    <polygon id="Shape" points="61.11 37.86 61.12 36.62 62.18 37.23 62.17 38.47"></polygon>
                    <polygon id="Shape" points="61.12 36.51 61.12 35.27 62.18 35.88 62.18 37.12"></polygon>
                    <polygon id="Shape" points="61.11 39.2 61.11 37.99 62.17 38.6 62.17 39.81"></polygon>
                    <polygon id="Shape" points="61.1 41.92 61.11 40.68 62.16 41.29 62.16 42.53"></polygon>
                    <polygon id="Shape" points="61.11 40.55 61.11 39.33 62.17 39.94 62.17 41.16"></polygon>
                    <polygon id="Shape" points="61.09 44.61 61.1 43.37 62.16 43.98 62.15 45.22"></polygon>
                    <polygon id="Shape" points="61.1 43.26 61.1 42.03 62.16 42.64 62.16 43.87"></polygon>
                    <polygon id="Shape" points="73.39 50.47 74.47 51.09 74.46 52.33 73.39 51.71"></polygon>
                    <polygon id="Shape" points="72.22 51.03 72.22 49.8 73.28 50.41 73.27 51.64"></polygon>
                    <polygon id="Shape" points="71.04 50.35 71.05 49.12 72.11 49.73 72.1 50.96"></polygon>
                    <polygon id="Shape" points="69.86 49.67 69.86 48.43 70.93 49.05 70.93 50.29"></polygon>
                    <polygon id="Shape" points="68.7 40.89 68.71 39.65 69.78 40.27 69.78 41.51"></polygon>
                    <polygon id="Shape" points="68.7 43.58 68.7 42.37 69.78 42.99 69.77 44.2"></polygon>
                    <polygon id="Shape" points="68.7 42.23 68.7 41 69.78 41.62 69.78 42.86"></polygon>
                    <polygon id="Shape" points="68.69 47.64 68.69 46.41 69.76 47.03 69.76 48.26"></polygon>
                    <polygon id="Shape" points="68.69 46.28 68.69 45.06 69.77 45.68 69.77 46.9"></polygon>
                    <polygon id="Shape" points="68.69 44.93 68.7 43.71 69.77 44.33 69.77 45.55"></polygon>
                    <polygon id="Shape" points="68.68 48.99 68.69 47.75 69.76 48.38 69.76 49.61"></polygon>
                    <polygon id="Shape" points="81.01 49.45 82.09 50.07 82.08 51.31 81.01 50.69"></polygon>
                    <polygon id="Shape" points="81 52.04 81.01 50.82 82.08 51.44 82.08 52.66"></polygon>
                    <polygon id="Shape" points="81 53.38 81 52.17 82.08 52.79 82.08 54"></polygon>
                    <polygon id="Shape" points="79.82 48.66 79.83 47.42 80.9 48.04 80.9 49.28"></polygon>
                    <polygon id="Shape" points="79.81 54.06 79.81 52.83 80.89 53.45 80.88 54.68"></polygon>
                    <polygon id="Shape" points="78.67 46.64 78.67 45.41 79.73 46.02 79.73 47.25"></polygon>
                    <polygon id="Shape" points="78.65 54.74 78.65 53.51 79.71 54.12 79.71 55.35"></polygon>
                    <polygon id="Shape" points="77.48 45.95 77.48 44.72 78.56 45.34 78.56 46.58"></polygon>
                    <polygon id="Shape" points="77.46 54.06 77.46 52.82 78.54 53.44 78.53 54.68"></polygon>
                    <polygon id="Shape" points="76.31 45.28 76.31 44.04 77.37 44.65 77.37 45.89"></polygon>
                    <polygon id="Shape" points="76.31 46.63 76.31 45.39 77.37 46 77.36 47.24"></polygon>
                    <polygon id="Shape" points="76.29 52.03 76.29 50.8 77.35 51.41 77.35 52.64"></polygon>
                    <polygon id="Shape" points="76.29 50.69 76.3 49.45 77.36 50.06 77.35 51.3"></polygon>
                    <polygon id="Shape" points="76.3 49.32 76.3 48.1 77.36 48.72 77.36 49.93"></polygon>
                    <polygon id="Shape" points="76.3 47.97 76.31 46.76 77.36 47.37 77.36 48.58"></polygon>
                    <polygon id="Shape" points="76.29 53.38 76.29 52.15 77.35 52.76 77.34 53.99"></polygon>
                    <polygon id="Shape" points="86.26 49.79 87.34 50.41 87.33 51.64 86.26 51.02"></polygon>
                    <polygon id="Shape" points="86.25 52.37 86.26 51.13 87.33 51.75 87.33 52.99"></polygon>
                    <polygon id="Shape" points="86.25 53.72 86.25 52.48 87.33 53.1 87.33 54.34"></polygon>
                    <polygon id="Shape" points="86.24 56.41 86.25 55.19 87.32 55.81 87.32 57.03"></polygon>
                    <polygon id="Shape" points="86.25 55.06 86.25 53.85 87.33 54.47 87.32 55.68"></polygon>
                    <polygon id="Shape" points="86.23 59.12 86.24 57.89 87.31 58.51 87.31 59.74"></polygon>
                </g>
            </g>
        </g>
    </g>
</svg>