<?xml version="1.0" encoding="UTF-8"?>
<svg width="550px" height="341px" viewBox="0 0 550 341" version="1.1" xmlns="http://www.w3.org/2000/svg" xmlns:xlink="http://www.w3.org/1999/xlink">
    <!-- Generator: Sketch 50.2 (55047) - http://www.bohemiancoding.com/sketch -->
    <title>Group 2</title>
    <desc>Created with Sketch.</desc>
    <defs></defs>
    <g id="Page-1" stroke="none" stroke-width="1" fill="none" fill-rule="evenodd">
        <g id="Group-2" fill-rule="nonzero">
            <polygon id="Shape-Copy" fill="#FFD140" transform="translate(275.000000, 180.290398) scale(1, -1) translate(-275.000000, -180.290398) " points="245.21828 340.580796 0 199.008411 304.78172 20 550 161.576827"></polygon>
            <polygon id="Shape" fill="#5BA69D" transform="translate(325.000000, 170.290398) scale(1, -1) translate(-325.000000, -170.290398) " points="550 181.576827 345.21828 300.580796 100 159.008411 304.78172 40"></polygon>
            <g id="Asset-3" transform="translate(380.000000, 0.000000)">
                <g id="Group">
                    <g id="Shape">
                        <polygon fill="#FFF200" points="0.85 44.49 70.75 0.04 121.41 28.42 121.11 148.93 48.41 190.72 0.46 164.41"></polygon>
                        <g>
                            <path d="M115.2,19.62 C123.57,24.45 123.59,32.28 115.3,37.1 L64.54,66.6 C56.22,71.43 42.74,71.43 34.37,66.6 L6.65,50.6 C-1.72,45.76 -1.77,38 6.55,33.12 L57.31,3.62 C65.6,-1.2 79.11,-1.21 87.48,3.62 L115.2,19.62 Z" fill="#FFF200"></path>
                            <path d="M103.5,23 C110.07,26.79 110.08,32.93 103.58,36.71 L63.76,59.81 C57.23,63.6 46.66,63.6 40.09,59.81 L18.35,47.26 C11.78,43.47 11.75,37.34 18.27,33.55 L58.09,10.41 C64.59,6.63 75.19,6.62 81.76,10.41 L103.5,23 Z" fill="#515151"></path>
                            <path d="M115.3,37.1 L64.54,66.6 C56.22,71.43 42.74,71.43 34.37,66.6 L6.65,50.6 C2.44,48.16 0.33,45 0.34,41.8 L0,162.31 C0,165.49 2.09,168.68 6.31,171.11 L34.03,187.11 C42.39,191.94 55.88,191.94 64.19,187.11 L115,157.61 C119.12,155.22 121.19,152.08 121.2,148.93 L121.54,28.42 C121.49,31.56 119.42,34.7 115.3,37.1 Z" fill="#FFF200"></path>
                        </g>
                    </g>
                    <path d="M115.28,60.8 L64.49,90.32 C56.21,95.13 42.72,95.13 34.37,90.32 L6.61,74.32 C2.39,71.85 0.29,68.66 0.3,65.48 L0,162.74 C0,165.92 2.28,168.81 6.5,171.24 L34.26,187.24 C42.6,192.06 56.09,192.06 64.38,187.24 L115.17,157.73 C119.31,155.32 121.37,152.18 121.38,149.04 L121.5,52.04 C121.49,55.26 119.42,58.4 115.28,60.8 Z" id="Shape" fill="#FF7D5F"></path>
                    <path d="M115.36,55.23 L64.57,84.75 C56.29,89.56 42.79,89.56 34.45,84.75 L6.69,68.75 C2.47,66.28 0.28,62.77 0.29,59.59 L0.29,77.2 C0.29,80.39 2.39,83.58 6.61,86.01 L34.37,102.01 C42.71,106.83 56.2,106.83 64.49,102.01 L115.28,72.5 C119.41,70.09 121.48,66.95 121.49,63.81 L121.61,46.51 C121.57,49.69 119.5,52.83 115.36,55.23 Z" id="Shape" fill="#FFB000"></path>
                    <path d="M107.89,32.29 C106.925664,30.3882847 105.390673,28.8358101 103.5,27.85 L81.75,15.3 C75.19,11.51 64.58,11.52 58.09,15.3 L18.26,38.44 C16.4007678,39.4168679 14.8911316,40.9474712 13.94,42.82 C14.9086003,44.7220263 16.446817,46.2742268 18.34,47.26 L40.09,59.81 C46.65,63.6 57.23,63.6 63.75,59.81 L103.57,36.67 C105.436866,35.6954322 106.951214,34.1600997 107.9,32.28" id="Shape" fill="#878787"></path>
                    <g transform="translate(60.000000, 14.000000)" id="Shape">
                        <g>
                            <g transform="translate(0.000000, 5.000000)">
                                <path d="M29.73,8.39 L29.73,10.66 C29.73,12.78 28.33,14.89 25.54,16.51 C19.94,19.77 10.83,19.77 5.19,16.51 C2.35,14.87 0.93,12.72 0.94,10.57 L0.939947552,8.31 C0.94,10.46 2.35,12.61 5.19,14.25 C10.83,17.5 19.94,17.5 25.54,14.25 C28.33,12.63 29.72,10.51 29.73,8.39 Z" fill="#EAEAEA"></path>
                                <path d="M25.48,2.46 C31.12,5.71 31.15,10.99 25.54,14.25 C19.93,17.51 10.83,17.5 5.19,14.25 C-0.45,11 -0.48,5.71 5.12,2.46 C10.72,-0.79 19.84,-0.8 25.48,2.46 Z" fill="#BABABA"></path>
                            </g>
                            <g transform="translate(4.000000, 0.000000)" fill="#EAEAEA">
                                <path d="M22.19,6.66 L22.19,12.98 C22.19,14.58 21.19,16.18 19.04,17.4 C14.2118731,19.8596266 8.49812695,19.8596266 3.67,17.4 C1.53,16.16 0.46,14.54 0.46,12.92 L0.46,6.59 C0.46,8.21 1.52,9.84 3.66,11.08 C8.49084692,13.5282691 14.1991531,13.5282691 19.03,11.08 C21.13,9.85 22.18,8.26 22.19,6.66 Z"></path>
                                <path d="M19,2.17 C23.26,4.63 23.28,8.62 19,11.08 C14.1691531,13.5282691 8.46084692,13.5282691 3.63,11.08 C-0.62,8.62 -0.65,4.63 3.63,2.17 C8.46084692,-0.278269104 14.1691531,-0.278269104 19,2.17 Z"></path>
                            </g>
                        </g>
                        <g transform="translate(7.000000, 1.000000)">
                            <path d="M2.67,8.9 C6.23061374,10.7066099 10.4393863,10.7066099 14,8.9 C17.11,7.1 17.09,4.16 13.95,2.34 C10.3948188,0.540147716 6.19518115,0.540147716 2.64,2.34 C-0.47,4.16 -0.45,7.1 2.67,8.9 Z" fill="#A8A8A8"></path>
                            <path d="M2.66,8.9 C6.22176647,10.7165051 10.4382335,10.7165051 14,8.9 C10.4413324,7.09999404 6.2386676,7.09999404 2.68,8.9" fill="#666666"></path>
                        </g>
                    </g>
                    <g transform="translate(30.000000, 26.000000)" id="Shape">
                        <path d="M28.07,6.94 C30.68,8.44 30.69,10.94 28.07,12.44 L20.19,17 C17.2055705,18.5193212 13.6744295,18.5193212 10.69,17 L2.69,12.4 C0.07,10.89 0.06,8.4 2.69,6.9 L10.56,2.32 C13.5479213,0.800540095 17.0820787,0.800540095 20.07,2.32 L28.07,6.94 Z" fill="#EAEAEA"></path>
                        <path d="M28.07,5.82 C30.68,7.33 30.69,9.82 28.07,11.33 L20.19,15.91 C17.2044044,17.4244528 13.6755956,17.4244528 10.69,15.91 L2.69,11.32 C0.07,9.81 0.06,7.32 2.69,5.81 L10.56,1.24 C13.5479213,-0.279459905 17.0820787,-0.279459905 20.07,1.24 L28.07,5.82 Z" fill="#EAEAEA"></path>
                        <path d="M28.07,11.33 L20.19,15.91 C17.2044044,17.4244528 13.6755956,17.4244528 10.69,15.91 L2.69,11.32 C1.57154466,10.831516 0.805922378,9.77495721 0.69,8.56 L0.69,20.56 C0.801743224,21.7765313 1.5687475,22.8349972 2.69,23.32 L10.69,27.92 C13.67675,29.4296174 17.20325,29.4296174 20.19,27.92 L28,23.38 C29.1141616,22.8915181 29.8785643,21.8404644 30,20.63 L30,8.58 C29.892033,9.7748598 29.1569733,10.8222247 28.07,11.33 Z" fill="#EAEAEA"></path>
                        <path d="M23.72,6.77 C25.43,7.77 25.44,9.38 23.72,10.38 L18.56,13.38 C16.6050173,14.3707176 14.2949827,14.3707176 12.34,13.38 L7.12,10.38 C5.41,9.38 5.4,7.77 7.12,6.77 L12.28,3.77 C14.2373091,2.7742772 16.5526909,2.7742772 18.51,3.77 L23.72,6.77 Z" fill="#666666"></path>
                    </g>
                </g>
                <polygon id="Shape" fill="#FFF200" points="105.53 114.27 86.85 151.62 89.19 131.04 78.86 137 97.55 99.65 95.21 120.23"></polygon>
            </g>
            <g id="Asset-3-Copy" transform="translate(250.000000, 70.000000)">
                <g id="Group">
                    <g id="Shape">
                        <polygon fill="#FFF200" points="0.85 44.49 70.75 0.04 121.41 28.42 121.11 148.93 48.41 190.72 0.46 164.41"></polygon>
                        <g>
                            <path d="M115.2,19.62 C123.57,24.45 123.59,32.28 115.3,37.1 L64.54,66.6 C56.22,71.43 42.74,71.43 34.37,66.6 L6.65,50.6 C-1.72,45.76 -1.77,38 6.55,33.12 L57.31,3.62 C65.6,-1.2 79.11,-1.21 87.48,3.62 L115.2,19.62 Z" fill="#FFF200"></path>
                            <path d="M103.5,23 C110.07,26.79 110.08,32.93 103.58,36.71 L63.76,59.81 C57.23,63.6 46.66,63.6 40.09,59.81 L18.35,47.26 C11.78,43.47 11.75,37.34 18.27,33.55 L58.09,10.41 C64.59,6.63 75.19,6.62 81.76,10.41 L103.5,23 Z" fill="#515151"></path>
                            <path d="M115.3,37.1 L64.54,66.6 C56.22,71.43 42.74,71.43 34.37,66.6 L6.65,50.6 C2.44,48.16 0.33,45 0.34,41.8 L0,162.31 C0,165.49 2.09,168.68 6.31,171.11 L34.03,187.11 C42.39,191.94 55.88,191.94 64.19,187.11 L115,157.61 C119.12,155.22 121.19,152.08 121.2,148.93 L121.54,28.42 C121.49,31.56 119.42,34.7 115.3,37.1 Z" fill="#FFF200"></path>
                        </g>
                    </g>
                    <path d="M115.28,60.8 L64.49,90.32 C56.21,95.13 42.72,95.13 34.37,90.32 L6.61,74.32 C2.39,71.85 0.29,68.66 0.3,65.48 L0,162.74 C0,165.92 2.28,168.81 6.5,171.24 L34.26,187.24 C42.6,192.06 56.09,192.06 64.38,187.24 L115.17,157.73 C119.31,155.32 121.37,152.18 121.38,149.04 L121.5,52.04 C121.49,55.26 119.42,58.4 115.28,60.8 Z" id="Shape" fill="#FF7D5F"></path>
                    <path d="M115.36,55.23 L64.57,84.75 C56.29,89.56 42.79,89.56 34.45,84.75 L6.69,68.75 C2.47,66.28 0.28,62.77 0.29,59.59 L0.29,77.2 C0.29,80.39 2.39,83.58 6.61,86.01 L34.37,102.01 C42.71,106.83 56.2,106.83 64.49,102.01 L115.28,72.5 C119.41,70.09 121.48,66.95 121.49,63.81 L121.61,46.51 C121.57,49.69 119.5,52.83 115.36,55.23 Z" id="Shape" fill="#FFB000"></path>
                    <path d="M107.89,32.29 C106.925664,30.3882847 105.390673,28.8358101 103.5,27.85 L81.75,15.3 C75.19,11.51 64.58,11.52 58.09,15.3 L18.26,38.44 C16.4007678,39.4168679 14.8911316,40.9474712 13.94,42.82 C14.9086003,44.7220263 16.446817,46.2742268 18.34,47.26 L40.09,59.81 C46.65,63.6 57.23,63.6 63.75,59.81 L103.57,36.67 C105.436866,35.6954322 106.951214,34.1600997 107.9,32.28" id="Shape" fill="#878787"></path>
                    <g transform="translate(60.000000, 14.000000)" id="Shape">
                        <g>
                            <g transform="translate(0.000000, 5.000000)">
                                <path d="M29.73,8.39 L29.73,10.66 C29.73,12.78 28.33,14.89 25.54,16.51 C19.94,19.77 10.83,19.77 5.19,16.51 C2.35,14.87 0.93,12.72 0.94,10.57 L0.939947552,8.31 C0.94,10.46 2.35,12.61 5.19,14.25 C10.83,17.5 19.94,17.5 25.54,14.25 C28.33,12.63 29.72,10.51 29.73,8.39 Z" fill="#EAEAEA"></path>
                                <path d="M25.48,2.46 C31.12,5.71 31.15,10.99 25.54,14.25 C19.93,17.51 10.83,17.5 5.19,14.25 C-0.45,11 -0.48,5.71 5.12,2.46 C10.72,-0.79 19.84,-0.8 25.48,2.46 Z" fill="#BABABA"></path>
                            </g>
                            <g transform="translate(4.000000, 0.000000)" fill="#EAEAEA">
                                <path d="M22.19,6.66 L22.19,12.98 C22.19,14.58 21.19,16.18 19.04,17.4 C14.2118731,19.8596266 8.49812695,19.8596266 3.67,17.4 C1.53,16.16 0.46,14.54 0.46,12.92 L0.46,6.59 C0.46,8.21 1.52,9.84 3.66,11.08 C8.49084692,13.5282691 14.1991531,13.5282691 19.03,11.08 C21.13,9.85 22.18,8.26 22.19,6.66 Z"></path>
                                <path d="M19,2.17 C23.26,4.63 23.28,8.62 19,11.08 C14.1691531,13.5282691 8.46084692,13.5282691 3.63,11.08 C-0.62,8.62 -0.65,4.63 3.63,2.17 C8.46084692,-0.278269104 14.1691531,-0.278269104 19,2.17 Z"></path>
                            </g>
                        </g>
                        <g transform="translate(7.000000, 1.000000)">
                            <path d="M2.67,8.9 C6.23061374,10.7066099 10.4393863,10.7066099 14,8.9 C17.11,7.1 17.09,4.16 13.95,2.34 C10.3948188,0.540147716 6.19518115,0.540147716 2.64,2.34 C-0.47,4.16 -0.45,7.1 2.67,8.9 Z" fill="#A8A8A8"></path>
                            <path d="M2.66,8.9 C6.22176647,10.7165051 10.4382335,10.7165051 14,8.9 C10.4413324,7.09999404 6.2386676,7.09999404 2.68,8.9" fill="#666666"></path>
                        </g>
                    </g>
                    <g transform="translate(30.000000, 26.000000)" id="Shape">
                        <path d="M28.07,6.94 C30.68,8.44 30.69,10.94 28.07,12.44 L20.19,17 C17.2055705,18.5193212 13.6744295,18.5193212 10.69,17 L2.69,12.4 C0.07,10.89 0.06,8.4 2.69,6.9 L10.56,2.32 C13.5479213,0.800540095 17.0820787,0.800540095 20.07,2.32 L28.07,6.94 Z" fill="#EAEAEA"></path>
                        <path d="M28.07,5.82 C30.68,7.33 30.69,9.82 28.07,11.33 L20.19,15.91 C17.2044044,17.4244528 13.6755956,17.4244528 10.69,15.91 L2.69,11.32 C0.07,9.81 0.06,7.32 2.69,5.81 L10.56,1.24 C13.5479213,-0.279459905 17.0820787,-0.279459905 20.07,1.24 L28.07,5.82 Z" fill="#EAEAEA"></path>
                        <path d="M28.07,11.33 L20.19,15.91 C17.2044044,17.4244528 13.6755956,17.4244528 10.69,15.91 L2.69,11.32 C1.57154466,10.831516 0.805922378,9.77495721 0.69,8.56 L0.69,20.56 C0.801743224,21.7765313 1.5687475,22.8349972 2.69,23.32 L10.69,27.92 C13.67675,29.4296174 17.20325,29.4296174 20.19,27.92 L28,23.38 C29.1141616,22.8915181 29.8785643,21.8404644 30,20.63 L30,8.58 C29.892033,9.7748598 29.1569733,10.8222247 28.07,11.33 Z" fill="#EAEAEA"></path>
                        <path d="M23.72,6.77 C25.43,7.77 25.44,9.38 23.72,10.38 L18.56,13.38 C16.6050173,14.3707176 14.2949827,14.3707176 12.34,13.38 L7.12,10.38 C5.41,9.38 5.4,7.77 7.12,6.77 L12.28,3.77 C14.2373091,2.7742772 16.5526909,2.7742772 18.51,3.77 L23.72,6.77 Z" fill="#666666"></path>
                    </g>
                </g>
                <polygon id="Shape" fill="#FFF200" points="105.53 114.27 86.85 151.62 89.19 131.04 78.86 137 97.55 99.65 95.21 120.23"></polygon>
            </g>
        </g>
    </g>
</svg>