<?xml version="1.0" encoding="UTF-8"?>
<svg width="520px" height="301px" viewBox="0 0 520 301" version="1.1" xmlns="http://www.w3.org/2000/svg" xmlns:xlink="http://www.w3.org/1999/xlink">
    <!-- Generator: Sketch 50.2 (55047) - http://www.bohemiancoding.com/sketch -->
    <title>img3</title>
    <desc>Created with Sketch.</desc>
    <defs></defs>
    <g id="Page-1" stroke="none" stroke-width="1" fill="none" fill-rule="evenodd">
        <g id="img3" transform="translate(0.000000, -1.000000)" fill-rule="nonzero">
            <polygon id="Shape-Copy" fill="#FF8C3E" points="520 142.576827 245.21828 301.580796 0 160.008411 274.78172 1"></polygon>
            <polygon id="Shape" fill="#5BA69D" points="450 142.576827 245.21828 261.580796 0 120.008411 204.78172 1"></polygon>
            <g id="Asset-2" transform="translate(130.000000, 0.000000)">
                <g id="Group">
                    <g id="Shape" transform="translate(12.000000, 67.000000)" fill="#CCCCCC">
                        <path d="M16.2,4.71 L16.06,65.76 C15.9462021,67.177365 15.068127,68.4197071 13.77,69 C10.2853834,70.7707381 6.16461662,70.7707381 2.68,69 C1.38113428,68.4167237 0.498008663,67.178054 0.37,65.76 L0.51,4.71 C0.629678443,6.13112498 1.51551555,7.37359781 2.82,7.95 C6.30461662,9.72073809 10.4253834,9.72073809 13.91,7.95 C15.208127,7.3697071 16.0862021,6.12736503 16.2,4.71 Z"></path>
                        <path d="M13.87,1.47 C16.94,3.24 16.99,6.11 13.87,7.9 C10.3853834,9.67073809 6.26461662,9.67073809 2.78,7.9 C-0.29,6.13 -0.31,3.24 2.78,1.47 C6.26226451,-0.310531745 10.3877355,-0.310531745 13.87,1.47 Z"></path>
                    </g>
                    <g id="Shape" transform="translate(38.000000, 71.000000)" fill="#CCCCCC">
                        <path d="M16.46,5.24 L16.26,77.75 C16.1385979,79.1436501 15.2745235,80.3632948 14,80.94 C10.5153834,82.7107381 6.39461662,82.7107381 2.91,80.94 C1.60974154,80.3584237 0.725947518,79.1188165 0.6,77.7 L0.81,5.2 C0.81,6.37 1.57,7.54 3.12,8.43 C6.60226451,10.2105317 10.7277355,10.2105317 14.21,8.43 C15.4806376,7.85052489 16.3405118,6.63141433 16.46,5.24 Z"></path>
                        <path d="M14.15,2 C17.22,3.77 17.24,6.65 14.15,8.42 C10.6677355,10.2005317 6.54226451,10.2005317 3.06,8.42 C2.22044605e-16,6.66 2.22044605e-16,3.78 3.06,2 C6.54461662,0.229261913 10.6653834,0.229261913 14.15,2 Z"></path>
                    </g>
                    <g>
                        <g transform="translate(0.000000, 44.000000)">
                            <path d="M67.82,20.28 L67.82,34.78 C67.82,39.78 64.52,44.78 57.98,48.57 C44.77,56.24 23.34,56.24 10.05,48.57 C3.37,44.71 0.05,39.64 0.05,34.57 L0.05,20.07 C0.05,25.07 3.38,30.18 10.05,34.07 C23.34,41.74 44.78,41.74 57.98,34.07 C64.52,30.26 67.81,25.28 67.82,20.28 Z" id="Shape" fill="#FF8C5F"></path>
                            <ellipse id="Oval" fill="#FFD215" transform="translate(33.944532, 20.176592) rotate(-89.840000) translate(-33.944532, -20.176592) " cx="33.9445319" cy="20.1765921" rx="19.63" ry="33.89"></ellipse>
                        </g>
                        <path d="M52,16.14 C62,21.91 62,31.27 52.11,37.04 C42.22,42.81 26.11,42.79 16.11,37.04 C6.11,31.29 6,21.89 15.87,16.14 C25.74,10.39 42,10.37 52,16.14 Z" id="Shape" fill="#EFBA0F"></path>
                        <path d="M59.46,27.14 C59.46,26.92 59.46,26.71 59.46,26.49 C59.4599998,12.406739 48.043261,0.99000038 33.96,0.99000038 C19.876739,0.99000038 8.46000021,12.406739 8.46,26.49 C8.46,26.6 8.46,26.71 8.46,26.82 C8.46,26.71 8.46,26.6 8.46,26.49 L8.35,60.06 C8.35,63.87 10.85,67.68 15.89,70.59 C25.89,76.36 42.03,76.36 51.89,70.59 C56.82,67.72 59.29,63.97 59.3,60.21 L59.44,26.64 C59.48,26.82 59.46,27 59.46,27.14 Z" id="Shape" fill="#FF8C5F"></path>
                        <circle id="Oval" fill="#FFD215" transform="translate(26.184262, 22.399194) rotate(-67.500000) translate(-26.184262, -22.399194) " cx="26.1842618" cy="22.3991936" r="12.4"></circle>
                    </g>
                </g>
                <g id="Group" transform="translate(90.000000, 50.000000)">
                    <g id="Shape" transform="translate(12.000000, 67.000000)" fill="#CCCCCC">
                        <path d="M16.75,4.71 L16.62,65.76 C16.4806827,67.1558217 15.607942,68.3715609 14.33,68.95 C10.8415062,70.7192632 6.71849376,70.7192632 3.23,68.95 C1.93113428,68.3667237 1.04800866,67.128054 0.92,65.71 L1.06,4.66 C1.18800866,6.078054 2.07113428,7.31672371 3.37,7.9 C6.85461662,9.67073809 10.9753834,9.67073809 14.46,7.9 C15.7434073,7.32824896 16.6187674,6.10886078 16.75,4.71 Z"></path>
                        <path d="M14.43,1.47 C17.49,3.24 17.55,6.11 14.43,7.9 C10.9453834,9.67073809 6.82461662,9.67073809 3.34,7.9 C0.27,6.13 0.26,3.24 3.34,1.47 C6.82305305,-0.30725444 10.946947,-0.30725444 14.43,1.47 Z"></path>
                    </g>
                    <g id="Shape" transform="translate(39.000000, 71.000000)" fill="#CCCCCC">
                        <path d="M16,5.24 L15.79,77.75 C15.664633,79.1451337 14.7970187,80.3643803 13.52,80.94 C10.0315062,82.7092632 5.90849376,82.7092632 2.42,80.94 C1.11974154,80.3584237 0.235947518,79.1188165 0.11,77.7 L0.32,5.2 C0.449416604,6.61511391 1.3326718,7.85014175 2.63,8.43 C6.11226451,10.2105317 10.2377355,10.2105317 13.72,8.43 C15.0009055,7.85716067 15.8727252,6.63737785 16,5.24 Z"></path>
                        <path d="M13.71,2 C16.77,3.77 16.79,6.65 13.71,8.42 C10.2277355,10.2005317 6.10226451,10.2005317 2.62,8.42 C-0.45,6.65 -0.46,3.77 2.62,2 C6.10577761,0.234116014 10.2242224,0.234116014 13.71,2 Z"></path>
                    </g>
                    <g>
                        <g transform="translate(0.000000, 44.000000)">
                            <path d="M68.37,20.28 L68.37,34.78 C68.37,39.78 65.07,44.78 58.53,48.57 C45.33,56.24 23.89,56.24 10.61,48.57 C3.92,44.71 0.61,39.64 0.61,34.57 L0.61,20.07 C0.61,25.07 3.94,30.18 10.61,34.07 C23.9,41.74 45.33,41.74 58.53,34.07 C65.08,30.26 68.36,25.28 68.37,20.28 Z" id="Shape" fill="#91FF4A"></path>
                            <ellipse id="Oval" fill="#E2FFA9" transform="translate(34.487395, 20.186945) rotate(-89.840000) translate(-34.487395, -20.186945) " cx="34.4873949" cy="20.1869452" rx="19.63" ry="33.89"></ellipse>
                        </g>
                        <path d="M52.5,16.14 C62.5,21.91 62.55,31.27 52.62,37.04 C42.69,42.81 26.57,42.79 16.62,37.04 C6.67,31.29 6.62,21.91 16.46,16.16 C26.3,10.41 42.5,10.37 52.5,16.14 Z" id="Shape" fill="#EFBA0F"></path>
                        <path d="M60,27.14 C60,26.92 60,26.71 60,26.49 C60.0000002,17.3797273 55.1397277,8.96148815 47.2500002,4.40635176 C39.3602726,-0.148784635 29.6397274,-0.148784635 21.7499998,4.40635176 C13.8602723,8.96148815 8.99999981,17.3797273 9,26.49 C9,26.6 9,26.71 9,26.82 C9,26.71 9,26.6 9,26.49 L8.87,60.06 C8.87,63.87 11.37,67.68 16.4,70.59 C26.4,76.36 42.55,76.36 52.4,70.59 C57.33,67.72 59.8,63.97 59.81,60.21 L60,26.66 C60,26.82 60,27 60,27.14 Z" id="Shape" fill="#91FF4A"></path>
                        <circle id="Oval" fill="#E2FFA9" transform="translate(26.740074, 22.392663) rotate(-67.500000) translate(-26.740074, -22.392663) " cx="26.7400741" cy="22.3926632" r="12.4"></circle>
                    </g>
                </g>
            </g>
        </g>
    </g>
</svg>